<svg height='100px' width='100px'  fill="#000000" xmlns="http://www.w3.org/2000/svg" xmlns:xlink="http://www.w3.org/1999/xlink" version="1.1" x="0px" y="0px" viewBox="0 0 100 100" style="enable-background:new 0 0 100 100;" xml:space="preserve"><g><path d="M88.7,23h-5.4v-4c0-0.8-0.6-1.4-1.4-1.5c-0.8-0.1-18.2-1.7-31.9,5.3c-13.9-7.4-31.2-5.4-32-5.3c-0.8,0.1-1.3,0.7-1.3,1.5v4   h-5.4c-0.8,0-1.5,0.7-1.5,1.5v56.8c0,0.8,0.7,1.5,1.5,1.5h77.3c0.8,0,1.5-0.7,1.5-1.5V24.5C90.2,23.6,89.5,23,88.7,23z M80.3,72.6   c-14.6-0.3-24.5,3.8-28.8,6.1V25.4c10.8-5.4,24.5-5.2,28.8-5V72.6z M48.5,25.4v53.5c-4.3-2.1-14.5-6.2-27.4-6.2c-0.5,0-0.9,0-1.4,0   V20.3C24,20.1,37.5,19.6,48.5,25.4z M12.8,26h3.9v48.2c0,0.4,0.2,0.8,0.5,1.1c0.3,0.3,0.7,0.4,1.1,0.4c10.4-0.5,19.3,2,24.9,4.1   H12.8V26z M87.2,79.8h-31c5.1-2.1,13.8-4.7,25.5-4.1c0.4,0,0.8-0.1,1.1-0.4c0.3-0.3,0.5-0.7,0.5-1.1V26h3.9V79.8z"></path><path d="M24.7,32.1c0.1,0,11.5,0.3,18.1,3.6v-3.3c-7.2-3-17.6-3.3-18-3.3L24.7,32.1z"></path><path d="M24.7,42.2c0.1,0,11.5,0.3,18.1,3.6v-3.3c-7.2-3-17.6-3.3-18-3.3L24.7,42.2z"></path><path d="M24.7,52.4c0.1,0,11.5,0.3,18.1,3.6v-3.3c-7.2-3-17.6-3.3-18-3.3L24.7,52.4z"></path><path d="M24.7,62.5c0.1,0,11.5,0.3,18.1,3.6v-3.3c-7.2-3-17.6-3.3-18-3.3L24.7,62.5z"></path><path d="M57.2,32.4v3.3c6.6-3.3,18-3.6,18.1-3.6l-0.1-3C74.8,29.1,64.4,29.4,57.2,32.4z"></path><path d="M57.2,42.5v3.3c6.6-3.3,18-3.6,18.1-3.6l-0.1-3C74.8,39.2,64.4,39.5,57.2,42.5z"></path><path d="M57.2,52.6v3.3c6.6-3.3,18-3.6,18.1-3.6l-0.1-3C74.8,49.4,64.4,49.6,57.2,52.6z"></path><path d="M57.2,62.8v3.3c6.6-3.3,18-3.6,18.1-3.6l-0.1-3C74.8,59.5,64.4,59.7,57.2,62.8z"></path></g></svg>