<?xml version="1.0" encoding="UTF-8" ?>
<!DOCTYPE svg PUBLIC "-//W3C//DTD SVG 1.1//EN" "http://www.w3.org/Graphics/SVG/1.1/DTD/svg11.dtd">
<svg width="60pt" height="60pt" viewBox="0 0 60 60" version="1.1" xmlns="http://www.w3.org/2000/svg">
<g id="#f26356ff">
<path fill="#f26356" opacity="1.00" d=" M 16.22 4.24 C 28.69 -4.22 48.89 1.46 52.23 17.07 C 48.35 17.09 44.48 17.05 40.61 16.90 C 37.67 12.58 32.86 9.03 27.36 10.44 C 22.19 10.69 19.69 15.51 18.09 19.75 C 26.91 24.28 37.43 23.96 45.95 29.07 C 54.40 34.43 54.48 47.76 47.06 54.04 C 34.56 64.69 10.74 59.62 7.22 42.32 C 11.22 42.24 15.23 42.22 19.23 42.37 C 22.46 48.58 30.06 51.33 36.53 48.59 C 40.70 47.36 41.69 42.72 43.03 39.17 C 34.51 35.09 24.69 34.96 16.28 30.72 C 6.48 25.45 7.42 10.01 16.22 4.24 Z" />
</g>
</svg>
