<svg height='100px' width='100px'  fill="#1742ee" xmlns="http://www.w3.org/2000/svg" xmlns:xlink="http://www.w3.org/1999/xlink" viewBox="0 0 100 100" version="1.1" x="0px" y="0px"><title>svg/013_tile_pattern_seamless_decoration_background</title><desc>Created with Sketch.</desc><g stroke="none" stroke-width="1" fill="none" fill-rule="evenodd"><g transform="translate(-1400.000000, -50.000000)" fill="#1742ee" fill-rule="nonzero"><g transform="translate(1400.000000, 50.000000)"><polygon points="25 0 50 25 25 25"></polygon><polygon points="25 25 50 50 25 50"></polygon><polygon points="75 50 100 75 75 75"></polygon><polygon transform="translate(87.500000, 37.500000) scale(-1, 1) translate(-87.500000, -37.500000) " points="75 25 100 50 75 50"></polygon><polygon transform="translate(62.500000, 37.500000) scale(1, -1) translate(-62.500000, -37.500000) " points="50 25 75 50 50 50"></polygon><polygon transform="translate(12.500000, 87.500000) scale(-1, 1) translate(-12.500000, -87.500000) " points="0 75 25 100 0 100"></polygon><polygon transform="translate(37.500000, 87.500000) scale(1, -1) translate(-37.500000, -87.500000) " points="25 75 50 100 25 100"></polygon><polygon transform="translate(87.500000, 12.500000) scale(-1, 1) translate(-87.500000, -12.500000) " points="75 0 100 25 75 25"></polygon><polygon transform="translate(87.500000, 62.500000) scale(-1, -1) translate(-87.500000, -62.500000) " points="75 50 100 75 75 75"></polygon><polygon points="75 75 100 100 75 100"></polygon><polygon points="50 0 75 25 50 25"></polygon><polygon points="0 50 25 75 0 75"></polygon><polygon transform="translate(12.500000, 37.500000) scale(-1, 1) translate(-12.500000, -37.500000) " points="0 25 25 50 0 50"></polygon><polygon transform="translate(12.500000, 12.500000) scale(1, -1) translate(-12.500000, -12.500000) " points="0 0 25 25 0 25"></polygon><polygon points="50 75 75 100 50 100"></polygon><polygon points="50 50 75 75 50 75"></polygon></g></g></g></svg>