<svg height='100px' width='100px'  fill="#1742ee" xmlns="http://www.w3.org/2000/svg" xmlns:xlink="http://www.w3.org/1999/xlink" version="1.1" x="0px" y="0px" viewBox="0 0 32 32" enable-background="new 0 0 32 32" xml:space="preserve"><g display="none"><rect x="-182.591" y="-65.699" display="inline" fill="#1742ee" width="240.181" height="241.399"></rect></g><g display="none"><path display="inline" fill="#1742ee" stroke="#1742ee" stroke-miterlimit="10" d="M16,3.28L0.867,29.213h30.266L16,3.28z"></path><polygon display="inline" fill="#1742ee" stroke="#1742ee" stroke-miterlimit="10" points="16,15.246 20.829,23.591 11.171,23.591     "></polygon><g display="inline"><line fill="#1742ee" stroke="#1742ee" stroke-miterlimit="10" x1="17.953" y1="6.792" x2="32" y2="6.792"></line><line fill="#1742ee" stroke="#1742ee" stroke-miterlimit="10" x1="20.732" y1="11.375" x2="32" y2="11.375"></line><line fill="#1742ee" stroke="#1742ee" stroke-miterlimit="10" x1="23.35" y1="15.958" x2="32" y2="15.958"></line></g><g display="inline"><line fill="#1742ee" stroke="#1742ee" stroke-miterlimit="10" x1="14.047" y1="6.792" x2="0" y2="6.792"></line><line fill="#1742ee" stroke="#1742ee" stroke-miterlimit="10" x1="11.268" y1="11.375" x2="0" y2="11.375"></line><line fill="#1742ee" stroke="#1742ee" stroke-miterlimit="10" x1="8.65" y1="15.958" x2="0" y2="15.958"></line></g></g><g><g><path d="M32.007,29.618l-7.44-12.66H32v-2h-8.609l-1.518-2.583H32v-2H20.732v0.059L19.18,7.792H32v-2H18.004L16,2.382l-2.004,3.41    H0v2h12.82l-1.553,2.642v-0.059H0v2h10.127l-1.518,2.583H0v2h7.434l-7.44,12.66H32.007z M28.511,27.618H3.489L16,6.329    L28.511,27.618z"></path><path d="M22.29,24.358L16,13.565L9.71,24.358H22.29z M18.81,22.358H13.19l2.81-4.82L18.81,22.358z"></path></g></g><g display="none"><path display="inline" fill="#1742ee" stroke="#1742ee" stroke-width="0.5" stroke-miterlimit="10" d="M16,3.28L0.867,29.213h30.266   L16,3.28z"></path><polygon display="inline" fill="#1742ee" stroke="#1742ee" stroke-width="0.5" stroke-miterlimit="10" points="16,15.246    20.829,23.591 11.171,23.591  "></polygon><line display="inline" fill="#1742ee" stroke="#1742ee" stroke-width="0.5" stroke-miterlimit="10" x1="17.953" y1="6.792" x2="32" y2="6.792"></line><line display="inline" fill="#1742ee" stroke="#1742ee" stroke-width="0.5" stroke-miterlimit="10" x1="20.732" y1="11.375" x2="32" y2="11.375"></line><line display="inline" fill="#1742ee" stroke="#1742ee" stroke-width="0.5" stroke-miterlimit="10" x1="23.35" y1="15.958" x2="32" y2="15.958"></line><line display="inline" fill="#1742ee" stroke="#1742ee" stroke-width="0.5" stroke-miterlimit="10" x1="14.047" y1="6.792" x2="0" y2="6.792"></line><line display="inline" fill="#1742ee" stroke="#1742ee" stroke-width="0.5" stroke-miterlimit="10" x1="11.268" y1="11.375" x2="0" y2="11.375"></line><line display="inline" fill="#1742ee" stroke="#1742ee" stroke-width="0.5" stroke-miterlimit="10" x1="8.65" y1="15.958" x2="0" y2="15.958"></line></g></svg>