<svg xmlns="http://www.w3.org/2000/svg" viewBox="0 0 100 100" x="0px" y="0px"><path d="M94.14,60.87c0-.15-.03-.3-.08-.43V18.83c0-3.22-2.62-5.84-5.84-5.84H11.7c-3.22,0-5.84,2.62-5.84,5.84v50.14c0,3.22,2.62,5.84,5.84,5.84h25.93l-3.05,9.91h-6.21c-.63,0-1.15,.51-1.15,1.15s.51,1.15,1.15,1.15h43.24c.63,0,1.15-.51,1.15-1.15s-.51-1.15-1.15-1.15h-6.21l-3.05-9.91h25.85c3.22,0,5.84-2.62,5.84-5.84v-7.67c.05-.13,.08-.28,.08-.43ZM11.7,15.27H88.21c1.96,0,3.55,1.59,3.55,3.55V59.72H8.15V18.83c0-1.96,1.59-3.55,3.55-3.55ZM63.01,84.72h-26.03l3.05-9.91h19.93l3.05,9.91Zm25.2-12.21H11.7c-1.96,0-3.55-1.59-3.55-3.55v-6.95H91.77v6.95c0,1.96-1.59,3.55-3.55,3.55Z"></path><path d="M26.09,44.02c6.82,0,12.37-5.55,12.37-12.37s-5.55-12.37-12.37-12.37-12.37,5.55-12.37,12.37,5.55,12.37,12.37,12.37Zm10.07-12.37c0,5.55-4.52,10.07-10.07,10.07-2.36,0-4.54-.82-6.26-2.19l7.07-7.07c.22-.21,.34-.51,.34-.81v-10.01c5.02,.57,8.93,4.84,8.93,10.01Zm-11.22-10.01v9.53l-6.74,6.74c-1.37-1.72-2.19-3.9-2.19-6.26,0-5.17,3.91-9.44,8.93-10.01Z"></path><path d="M14.87,55.4h24.76c.63,0,1.15-.51,1.15-1.15s-.51-1.15-1.15-1.15H14.87c-.63,0-1.15,.51-1.15,1.15s.51,1.15,1.15,1.15Z"></path><path d="M52.05,35.61h4.55c.06,0,.11,.01,.17,.01h5.12c.06,0,.12,0,.17-.01h4.44c.06,0,.11,.01,.17,.01h5.12c.06,0,.12,0,.17-.01h4.44c.06,0,.11,.01,.17,.01h5.12c.06,0,.12,0,.17-.01h1.52c.63,0,1.15-.51,1.15-1.15s-.51-1.15-1.15-1.15h-.54v-11.84c0-.63-.51-1.15-1.15-1.15h-5.12c-.63,0-1.15,.51-1.15,1.15v11.84h-2.49v-7.33c0-.63-.51-1.15-1.15-1.15h-5.12c-.63,0-1.15,.51-1.15,1.15v7.33h-2.49v-4.31c0-.63-.51-1.15-1.15-1.15h-5.12c-.63,0-1.15,.51-1.15,1.15v4.31h-2.43v-12.8c0-.63-.51-1.15-1.15-1.15s-1.15,.51-1.15,1.15v13.94c0,.63,.51,1.15,1.15,1.15Zm25.68-12.99h2.82v10.7h-2.82v-10.7Zm-9.9,4.51h2.82v6.18h-2.82v-6.18Zm-9.9,3.03h2.82v3.16h-2.82v-3.16Z"></path><path d="M52.05,55.4h31.33c.63,0,1.15-.51,1.15-1.15s-.51-1.15-1.15-1.15h-30.19v-2.75l3.97-3.16c.35-.28,.99-.28,1.34,0l2.27,1.84c1.17,.95,3.02,.96,4.2,.02l6.12-4.83c.36-.28,1-.28,1.34,0l2.03,1.68c1.18,.97,3.04,.99,4.24,.03l4.82-3.85c.49-.4,.58-1.12,.18-1.61-.4-.49-1.12-.58-1.61-.18l-4.82,3.85c-.35,.28-1,.28-1.34,0l-2.03-1.68c-1.17-.97-3.03-.99-4.22-.04l-6.12,4.83c-.35,.28-.99,.28-1.34,0l-2.27-1.84c-1.18-.95-3.03-.96-4.21-.02l-2.54,2.02v-7.12c0-.63-.51-1.15-1.15-1.15s-1.15,.51-1.15,1.15v13.94c0,.63,.51,1.15,1.15,1.15Z"></path><path d="M14.87,49.73h12.38c.63,0,1.15-.51,1.15-1.15s-.51-1.15-1.15-1.15H14.87c-.63,0-1.15,.51-1.15,1.15s.51,1.15,1.15,1.15Z"></path></svg>