<svg height='100px' width='100px'  fill="#000000" xmlns="http://www.w3.org/2000/svg" xmlns:xlink="http://www.w3.org/1999/xlink" version="1.1" x="0px" y="0px" viewBox="0 0 100 100" enable-background="new 0 0 100 100" xml:space="preserve"><path d="M91.749,25.564l0.034-0.034l-1.414-1.414l-0.034,0.034c-2.134-1.806-4.806-2.795-7.634-2.795  c-3.165,0-6.14,1.232-8.376,3.469l-18.007,18.01l0.064,1.096l-1.051-0.11L44.65,54.501V69.84l-7.805,7.806l1.414,1.414l7.806-7.807  h15.34L83.04,49.616l0.045-1.177l1.201-0.069l6.791-6.791c2.238-2.239,3.471-5.214,3.471-8.378  C94.548,30.372,93.557,27.699,91.749,25.564z M92.548,33.201c0,1.984-0.585,3.879-1.67,5.489l-12.213-0.04l11.668-11.67  C91.768,28.732,92.548,30.906,92.548,33.201z M82.701,23.354c2.293,0,4.466,0.779,6.218,2.211L74.855,39.631l-0.042-12.468  l0.926-0.925C77.599,24.378,80.071,23.354,82.701,23.354z M66.656,50.659l12.471,0.042L67.662,62.168l-12.471-0.042L66.656,50.659z   M64.409,50.079l-0.04-12.469l8.451-8.452l0.042,12.468L64.409,50.079z M56.072,45.908l2.445,0.257l-0.15-2.552l4.009-4.009  l0.04,12.469l-8.637,8.638l-0.042-12.467L56.072,45.908z M46.65,55.329l5.094-5.093l0.042,12.468L46.65,67.84V55.329z   M60.577,69.253H48.065l5.133-5.134l12.471,0.042L60.577,69.253z M83.411,46.417l-2.256,0.128l-0.082,2.163l-12.424-0.042  l8.021-8.023l12.473,0.041L83.411,46.417z M41.041,56.759H6.452v-2h34.589V56.759z M41.041,63.206H6.452v-2h34.589V63.206z   M41.041,69.652H6.452v-2h34.589V69.652z M32.645,76.097H6.452v-2h26.192V76.097z"></path><path fill="none" stroke="#000000" stroke-width="4" stroke-linecap="square" stroke-miterlimit="10" d="M3081.371,433.86"></path><g display="none"><line display="inline" fill="none" stroke="#000000" stroke-width="2" stroke-linecap="square" stroke-miterlimit="10" x1="594.884" y1="21.773" x2="555.486" y2="61.175"></line><path display="inline" fill="none" stroke="#000000" stroke-width="2" stroke-linecap="square" stroke-miterlimit="10" d="   M574.566,52.7h-10.607l0,0V42.093l6.95-6.95l1.209,0.127l-0.073-1.261l12.232-12.235c2.928-2.929,7.679-2.929,10.605,0l0,0   c2.933,2.93,2.933,7.676,0,10.608l-4.511,4.51l-1.193,0.068l-0.047,1.172L574.566,52.7z"></path><line display="inline" fill="none" stroke="#000000" stroke-width="2" stroke-miterlimit="10" x1="583.434" y1="22.618" x2="583.47" y2="33.191"></line><line display="inline" fill="none" stroke="#000000" stroke-width="2" stroke-miterlimit="10" x1="595.698" y1="31.566" x2="585.128" y2="31.531"></line><line display="inline" fill="none" stroke="#000000" stroke-width="2" stroke-miterlimit="10" x1="579.465" y1="47.802" x2="568.895" y2="47.767"></line><line display="inline" fill="none" stroke="#000000" stroke-width="2" stroke-miterlimit="10" x1="588.771" y1="38.494" x2="578.198" y2="38.46"></line><line display="inline" fill="none" stroke="#000000" stroke-width="2" stroke-miterlimit="10" x1="576.211" y1="29.838" x2="576.245" y2="40.412"></line><line display="inline" fill="none" stroke="#000000" stroke-width="2" stroke-miterlimit="10" x1="568.859" y1="37.193" x2="568.895" y2="47.767"></line></g></svg>