<svg enable-background="new 0 0 100 100" height="100" viewBox="0 0 100 100" width="100" xmlns="http://www.w3.org/2000/svg"><path d="m91.749 25.564.034-.034-1.414-1.414-.034.034c-2.134-1.806-4.806-2.795-7.634-2.795-3.165 0-6.14 1.232-8.376 3.469l-18.007 18.01.064 1.096-1.051-.11-10.681 10.681v15.339l-7.805 7.806 1.414 1.414 7.806-7.807h15.34l21.635-21.637.045-1.177 1.201-.069 6.791-6.791c2.238-2.239 3.471-5.214 3.471-8.378 0-2.829-.991-5.502-2.799-7.637zm.799 7.637c0 1.984-.585 3.879-1.67 5.489l-12.213-.04 11.668-11.67c1.435 1.752 2.215 3.926 2.215 6.221zm-9.847-9.847c2.293 0 4.466.779 6.218 2.211l-14.064 14.066-.042-12.468.926-.925c1.86-1.86 4.332-2.884 6.962-2.884zm-16.045 27.305 12.471.042-11.465 11.467-12.471-.042zm-2.247-.58-.04-12.469 8.451-8.452.042 12.468zm-8.337-4.171 2.445.257-.15-2.552 4.009-4.009.04 12.469-8.637 8.638-.042-12.467zm-9.422 9.421 5.094-5.093.042 12.468-5.136 5.136zm13.927 13.924h-12.512l5.133-5.134 12.471.042zm22.834-22.836-2.256.128-.082 2.163-12.424-.042 8.021-8.023 12.473.041zm-42.37 10.342h-34.589v-2h34.589zm0 6.447h-34.589v-2h34.589zm0 6.446h-34.589v-2h34.589zm-8.396 6.445h-26.193v-2h26.192v2z"/></svg>