<svg height="2008.2758" width="2000" xmlns="http://www.w3.org/2000/svg" xmlns:xlink="http://www.w3.org/1999/xlink"><linearGradient id="a" gradientUnits="userSpaceOnUse" x1="262.62408" x2="375.37671" y1="547.20599" y2="432.48389"><stop offset="0" stop-color="#070135"/><stop offset="1" stop-color="#612d50"/></linearGradient><g transform="matrix(15.623041 0 0 15.623041 -3987.6024 -6644.8835)"><rect fill="url(#a)" height="128.54576" ry="20.679518" width="128.01605" x="255.23856" y="425.32587"/><path d="m318.55641 483.16526c3.25239.00005 5.71852-.71477 7.3984-2.14446 1.67978-1.42959 2.51969-3.53831 2.51974-6.32617-.00005-2.752-.83996-4.84285-2.51974-6.27255-1.67988-1.46532-4.14601-2.19801-7.3984-2.19808h-11.41926v16.94126zm.69695 35.00836c4.14592.00001 7.25538-.87564 9.32841-2.62697 2.10867-1.75129 3.16303-4.39613 3.16309-7.93451-.00006-3.46686-1.03655-6.05808-3.10947-7.77368-2.07303-1.75128-5.20037-2.62693-9.38203-2.62697h-12.11621v20.96213zm19.19294-28.78942c4.43183 1.28672 7.86296 3.6635 10.29343 7.13034 2.43031 3.46692 3.64551 7.7201 3.64558 12.75956-.00007 7.72008-2.60917 13.47438-7.82729 17.26292-5.21825 3.78855-13.15276 5.68283-23.80353 5.68283h-34.2578v-80.04208h30.98749c11.11541.00008 19.15714 1.67991 24.12521 5.03949 5.00367 3.35973 7.50554 8.73875 7.50562 16.13708-.00008 3.89583-.91147 7.21975-2.73419 9.97175-1.82286 2.71637-4.4677 4.73574-7.93452 6.05811" fill="#fff" transform="scale(1.0052013 .99482561)"/></g></svg>