<svg height="64" viewBox="0 0 64 64" width="64" xmlns="http://www.w3.org/2000/svg"><path d="m19.0682347 47.1917647c-.0764892-1.0218951-.3610288-2.1406763-1.4900086-3.1707302 0-.0020397-.0020397-.0020397-.0050993-.0040794-.0438538-.0407942-.0928068-.0836281-.1397202-.1244224-.007139-.0040794-.0112184-.0101985-.0163176-.0132581-1.5624184-1.4267775-2.8107213-4.1691685-2.8107213-7.0808554 0-4.0590241 1.7980049-15.5956273 2.1865698-15.5956273.3079963 0 .3141154 5.5643305.1101444 10.7951684-.1417599 3.6327246.3957038 5.0635816 1.2625808 5.0635816 1.1544763 0 1.3390701-3.6561813 1.4583931-7.7661982.0979061-3.3838799.3936642-8.0670555.6302706-8.0925518h.0010199c.3691876 0 .6741243 4.6535997.7730503 8.0456385.1223826 4.2120024.4140613 7.7090863 1.3788444 7.7090863 1.0127163 0 1.3207126-1.6174906 1.2493227-5.2084011-.0877075-4.3833381-.0887274-10.5463237.2192689-10.5463237.3885649 0 1.7072378 4.0498454 2.0254327 15.5956273.0805685 2.9096472-1.2483029 5.653058-2.8117411 7.0808554-.0050993.0040794-.0091787.0101986-.0163177.0132581-.0469134.0407943-.0958664.0836282-.1397202.1244224-.0020397.0020397-.0050993.0020397-.0050993.0040794-1.1299996 1.0300539-1.4135194 2.1488351-1.4910284 3.1707302-.1223827 1.6317685-.1774548 3.7224718-.1713357 6.075278l8.8992574 8.8992575c.1244223-3.8785098.1121841-7.5367308-.0591516-10.2984989-.0642509-1.0320936-.2223285-2.2304236-.4028429-3.186028-.056092-.3049368-.2519042-.5864168-.2519042-.8281225 0-3.3471652 0-31.5482041 0-33.6195303 0-2.8678331 2.685279-4.2232208 5.1553686 2.0713262 2.4700895 6.2945469 1.7806673 28.6803709 1.7806673 30.2723651 0 .3375721-.2926984.7363355-.7730503 1.1289798-.1917328.1244223-.3589891.2498645-.5201262.3783663-1.47981 1.1871116-1.6909201 2.5557574-1.7684291 3.7826434-.1845938 2.9698186-.3334927 6.9758103-.3722472 11.178634l12.2647799-12.2647799c-.0173375-1.4410556-.0571118-2.7372917-.1244223-3.8173185-.0254964-.4140612-.1285018-.8352615-.2070306-1.2788985-.2223285-1.2564618-1.7776078-2.2854958-2.6771202-3.1890876-1.748032-1.755171-2.8719126-4.7056124-2.8719126-8.0323804 0-5.4021735 2.9942952-12.2403034 6.6882112-12.2403034 3.6939159 0 6.6892309 6.83711 6.6892309 12.2403034 0 3.326768-1.1238805 6.2782293-2.8719125 8.0323804-.9005323.9035918-2.4558116 1.9326258-2.6781401 3.1890876-.0785288.4446569-.1815342.8648373-.2070306 1.2788985-.0407942.6496479-.07037 1.381904-.0928068 2.171272l17.134589-17.1356089-32-32-32 32 19.2273321 19.2273321c-.0214169-1.522644-.0734296-2.8933295-.1590974-4.0355674z" fill="#3f894a"/></svg>