<svg xmlns="http://www.w3.org/2000/svg" xmlns:xlink="http://www.w3.org/1999/xlink" version="1.1" x="0px" y="0px" viewBox="0 0 100 100" style="enable-background:new 0 0 100 100;" xml:space="preserve"><path d="M25.4,73.7h27.9V48.8H25.4V73.7z M27.3,50.8h24v20.9h-24V50.8z"></path><polygon points="60,81.1 62,81.1 62,54.3 73.7,54.3 73.7,81.1 75.7,81.1 75.7,52.3 60,52.3 "></polygon><path d="M87.3,37.3l-3.9-14.7v-0.2h-0.1l-0.9-3.4H17.9L17,22.3h-0.1v0.2L13,37c-1.1,1-1.9,2.4-1.9,4  c0,0.6,0.1,1.2,0.3,1.8l0.1,0.2c0.8,2,2.7,3.4,5,3.4c0.1,0,0.3,0,0.4,0v34.7h1.9V45.9c1.1-0.5,1.9-1.4,2.4-2.4c0.9,1.8,2.7,3,4.8,3  s3.9-1.2,4.8-3c0.9,1.8,2.7,3,4.8,3s3.9-1.2,4.8-3c0.9,1.8,2.7,3,4.8,3c2.1,0,3.9-1.2,4.8-3c0.9,1.8,2.7,3,4.8,3  c2.1,0,3.9-1.2,4.8-3c0.9,1.8,2.7,3,4.8,3s3.9-1.2,4.8-3c0.9,1.8,2.7,3,4.8,3c2.1,0,3.9-1.2,4.8-3c0.6,1.2,1.5,2.1,2.7,2.6v35.1h1.9  V46.4c0,0,0.1,0,0.1,0c2.3,0,4.2-1.4,5-3.4l0.2-0.7c0.1-0.4,0.2-0.9,0.2-1.3C88.8,39.6,88.3,38.3,87.3,37.3z M85.3,37.4h-6.7  l-3.2-16.5h5.5L85.3,37.4z M25.6,20.9h6.8l-1.6,16.5h-8.3L25.6,20.9z M33.4,20.9h7.4l-0.7,16.5h-8.3L33.4,20.9z M41.8,20.9h7.7  l0.1,16.5h-8.5L41.8,20.9z M50.5,20.9h7.4l1,16.5h-8.3L50.5,20.9z M58.9,20.9h7.4l1.9,16.5h-8.3L58.9,20.9z M67.3,20.9h7.2l3.2,16.5  h-8.5L67.3,20.9z M24.7,20.9l-3.1,16.5h-6.6l4.4-16.5H24.7z M19.6,42.6c-0.6,1.2-1.7,1.9-3,1.9c-1.4,0-2.6-0.8-3.1-2.1l0-0.1l0,0  l0,0c-0.1-0.4-0.2-0.8-0.2-1.1c0-1,0.4-1.9,1.2-2.6l0.1-0.1h6.9l-0.2,0.9L19.6,42.6z M29.1,42.6c-0.6,1.2-1.7,1.9-3,1.9  c-1.3,0-2.5-0.7-3-1.9L22,40.4l0.4-2h8.4l-0.1,1.2L29.1,42.6z M38.7,42.6c-0.6,1.2-1.7,1.9-3,1.9c-1.3,0-2.5-0.7-3-1.9l-1.1-2.2  l0.2-1.9h8.4L40,39.9L38.7,42.6z M48.3,42.6c-0.6,1.2-1.7,1.9-3,1.9c-1.3,0-2.5-0.7-3-1.9L41,40.1l0.1-1.7h8.6l0,1.4L48.3,42.6z   M57.8,42.6c-0.6,1.2-1.7,1.9-3,1.9s-2.5-0.7-3-1.9l-1.1-2.3l0-1.9h8.3l0.1,1.7L57.8,42.6z M67.4,42.6c-0.6,1.2-1.7,1.9-3,1.9  s-2.5-0.7-3-1.9L60,39.9l-0.1-1.5h8.4l0.2,1.9L67.4,42.6z M77,42.6c-0.6,1.2-1.7,1.9-3,1.9s-2.5-0.7-3-1.9l-1.5-3l-0.1-1.2h8.5  l0.3,1.8L77,42.6z M86.8,41.9l-0.2,0.5c-0.5,1.3-1.8,2.1-3.1,2.1c-1.3,0-2.5-0.7-3-1.9L79,39.7l-0.3-1.3h6.8l0.3,0.3  c0.6,0.6,1,1.5,1,2.4C86.9,41.3,86.9,41.5,86.8,41.9z"></path></svg>