<svg width="381" height="381" viewBox="0 0 381 381" fill="none" xmlns="http://www.w3.org/2000/svg">
<path fill-rule="evenodd" clip-rule="evenodd" d="M250.27 240.342C265.298 230.818 276.682 226.056 284.424 226.056C298.086 226.056 314.707 238.074 334.289 262.112C344.763 275.264 350 287.056 350 297.487C350 314.721 337.477 330.821 312.43 345.788C286.473 363.929 254.596 373 216.799 373C196.306 373 175.472 369.032 154.297 361.095C133.121 353.158 113.198 341.933 94.5268 327.42C75.8557 312.907 60.6003 293.519 48.7602 269.255C36.92 244.991 31 218.119 31 188.639C31 159.613 36.92 133.195 48.7602 109.385C60.6003 85.5742 75.7419 66.4127 94.1852 51.8996C112.629 37.3866 132.438 26.2751 153.613 18.5651C174.789 10.855 195.395 7 215.433 7C232.737 7 249.587 9.38103 265.981 14.1431C282.375 18.9052 294.442 23.5539 302.184 28.0892L313.113 34.8922C321.311 40.3346 327.572 44.6431 331.898 47.8179C336.224 50.9926 340.323 55.4145 344.194 61.0837C348.065 66.7528 350 72.9888 350 79.7918C350 90.6767 345.218 103.375 335.655 117.888C319.261 142.833 303.55 155.305 288.522 155.305C279.87 155.305 267.575 150.316 251.636 140.338C243.439 132.628 231.371 128.773 215.433 128.773C200.86 128.773 186.971 134.216 173.764 145.1C160.558 155.985 153.955 170.952 153.955 190C153.955 209.502 160.33 224.582 173.081 235.24C185.832 245.898 199.494 251.227 214.066 251.227C221.353 251.227 227.956 250.32 233.876 248.506C239.796 246.691 243.894 244.877 246.171 243.063L250.27 240.342Z" fill="url(#paint0_linear_172_756)"/>
<defs>
<linearGradient id="paint0_linear_172_756" x1="91598.3" y1="1932.43" x2="91598.3" y2="53043" gradientUnits="userSpaceOnUse">
<stop stop-color="#37E1EC"/>
<stop offset="1" stop-color="#27CD7F"/>
</linearGradient>
</defs>
</svg>
