<svg fill="none" height="50" viewBox="0 0 50 50" width="50" xmlns="http://www.w3.org/2000/svg"><path d="m17.6861 34.0795c-2.3986-2.4-3.8095-5.7-3.8095-9.45s1.4109-7.05 3.6684-9.45c1.9753-2.1 1.9753-5.40002 0-7.50002s-5.0794-2.1-7.0547 0c-3.95061 4.35002-6.4903 10.35002-6.4903 16.95002s2.53969 12.6 6.6314 16.95c1.9753 2.1 5.0794 2.1 7.0547 0 1.8342-2.1 1.8342-5.4 0-7.5z" fill="#ffd85f"/><path d="m17.6861 15.1795c2.2575-2.55 5.3615-4.05 8.8889-4.05 3.5273 0 6.6314 1.5 8.8888 3.9 1.9754 2.1 5.0794 2.1 7.0547 0s1.9753-5.40001 0-7.50001c-4.0917-4.2-9.7354-6.900004-15.9435-6.900004-6.2082 0-11.8519 2.700004-15.9436 7.050004-1.97531 2.09999-1.97531 5.40001 0 7.50001 1.9753 1.95 5.0794 1.95 7.0547 0z" fill="#3bb4e7"/><path d="m35.4638 34.0795c-2.2574 2.55-5.3615 4.05-8.8888 4.05-3.5274 0-6.6314-1.5-8.8889-3.9-1.9753-2.1-5.0794-2.1-7.0547 0-1.97531 2.1-1.97531 5.4 0 7.5 4.0917 4.2 9.7354 6.9 15.9436 6.9 6.2081 0 11.8518-2.7 15.9435-7.05 1.9753-2.1 1.9753-5.4 0-7.5-1.9753-1.95-5.0793-1.95-7.0547 0z" fill="#ed5c68"/><path d="m14.1586 16.6795c2.7274 0 4.9383-2.3505 4.9383-5.25 0-2.89952-2.2109-5.25003-4.9383-5.25003-2.7273 0-4.93823 2.35051-4.93823 5.25003 0 2.8995 2.21093 5.25 4.93823 5.25z" fill="#308bc5"/><path d="m14.1586 43.0795c2.7274 0 4.9383-2.3505 4.9383-5.25s-2.2109-5.25-4.9383-5.25c-2.7273 0-4.93823 2.3505-4.93823 5.25s2.21093 5.25 4.93823 5.25z" fill="#d5465f"/></svg>