<svg enable-background="new 0 0 52.6 50.5" viewBox="0 0 52.6 50.5" xmlns="http://www.w3.org/2000/svg"><g fill="#29abe2"><path d="m20.4 17.3c1.3-1.1 2.5-2.2 3.8-3.2-1-.7-1.9-1.3-2.8-1.9-1.1.9-2.2 1.9-3.3 2.9 1.1.4 1.9 1.2 2.3 2.2z"/><ellipse cx="17.2" cy="18.2" rx="4.3" ry="4.1" transform="matrix(1 .00263737 -.00263737 1 .047941 -.045402)"/><path d="m21.1 41.2c-5.9 3.2-11 4-13.3 1.8-3.2-3.1-.3-11.2 6.7-19.4-1.1-.3-2-1.1-2.5-2.1-10.2 11.4-14.8 22.9-10.3 27.2 3.7 3.6 12.6 1.2 22.4-5.2-1-.7-2-1.5-3-2.3z"/><path d="m28.1 13.9c.3-1.1 1.1-2 2.1-2.5-11.8-9.7-23.8-14-28.3-9.7-3.7 3.6-1.3 12.1 5.4 21.5.8-1 1.6-1.9 2.4-2.9-3.3-5.7-4.2-10.6-1.9-12.9 3.3-3.1 11.7-.2 20.3 6.5z"/><path d="m36.1 16.7c-.4 1-1.3 1.8-2.3 2.2 1.5 1.5 2.9 2.9 4.1 4.4.7-.9 1.4-1.8 1.9-2.7-1.1-1.3-2.4-2.6-3.7-3.9z"/><path d="m33.7 20.7c2.4 0 4.3-1.8 4.3-4.1s-1.9-4.1-4.3-4.1-4.3 1.8-4.3 4.1c0 2.2 1.9 4.1 4.3 4.1z"/><path d="m44.8 7.5c3.2 3.1.3 11.2-6.7 19.4 1.1.3 2 1.1 2.5 2.1 10.1-11.4 14.7-23 10.2-27.3-3.7-3.5-12.6-1.1-22.3 5.3 1 .7 2 1.5 3 2.3 5.9-3.2 11-4 13.3-1.8z"/><path d="m32.9 32.5c-1.5 1.4-3.1 2.7-4.6 3.9 1 .7 1.9 1.3 2.9 1.9 1.4-1.1 2.7-2.3 4.1-3.6-1.1-.4-1.9-1.2-2.4-2.2z"/><ellipse cx="35.3" cy="32.4" rx="4.3" ry="4.1" transform="matrix(-1 -.0027546 .0027546 -1 70.5604 64.8494)"/><path d="m18.8 31.7c-1.5-1.5-2.9-2.9-4.1-4.4-.7.9-1.4 1.8-1.9 2.7 1.2 1.3 2.4 2.6 3.7 3.9.4-1 1.2-1.8 2.3-2.2z"/><path d="m45.3 27.4c-.8 1-1.6 1.9-2.4 2.9 3.3 5.7 4.2 10.5 1.8 12.8-3.3 3.1-11.7.2-20.3-6.4-.3 1.1-1.1 2-2.1 2.5 11.9 9.7 23.9 14.1 28.4 9.8 3.7-3.7 1.3-12.3-5.4-21.6z"/><ellipse cx="18.9" cy="34" rx="4.1" ry="4.3" transform="matrix(.0026228 -1 1 .0026228 -15.1309 52.7534)"/></g></svg>