<svg fill="none" height="50" viewBox="0 0 50 50" width="50" xmlns="http://www.w3.org/2000/svg" xmlns:xlink="http://www.w3.org/1999/xlink"><linearGradient id="a" gradientUnits="userSpaceOnUse" x1="4" x2="47" y1="24.5003" y2="24.5003"><stop offset="0" stop-color="#ff593d"/><stop offset="1" stop-color="#ff7751"/></linearGradient><path d="m25.5003 48h-21.5003v-47h21.5003c10.7528 0 21.4997 10.5219 21.4997 23.4967s-10.7469 23.5033-21.4997 23.5033zm0-34.1783c-1.9447.0008-3.8455.6279-5.462 1.8019-1.6166 1.1741-2.8762 2.8423-3.6198 4.7939-.7435 1.9515-.9375 4.0987-.5574 6.1699.3801 2.0713 1.3172 3.9737 2.6928 5.4665 1.3756 1.4929 3.1279 2.5093 5.0354 2.9206 1.9074.4113 3.8843.199 5.6807-.6099s3.3316-2.1781 4.4115-3.9346c1.0798-1.7565 1.6559-3.8213 1.6552-5.9333.0001-1.4025-.2543-2.7913-.7487-4.087s-1.2191-2.4729-2.1326-3.4643c-.9135-.9913-1.9979-1.7775-3.1913-2.3135s-2.4724-.8113-3.7638-.8102z" fill="url(#a)"/></svg>