<svg height="114" viewBox="0 0 188 114" width="188" xmlns="http://www.w3.org/2000/svg" xmlns:xlink="http://www.w3.org/1999/xlink"><linearGradient id="a" x1="0%" x2="100.012%" y1="49.999%" y2="49.999%"><stop offset="0" stop-color="#1670cc"/><stop offset=".42" stop-color="#80d9ef"/><stop offset=".89" stop-color="#f5defb"/><stop offset="1" stop-color="#eaf8f3"/></linearGradient><linearGradient id="b" x1="-71.597%" x2="124.232%" y1="50.012%" y2="50.012%"><stop offset="0" stop-color="#eaf8f3"/><stop offset=".11" stop-color="#f5defb"/><stop offset=".58" stop-color="#80d9ef"/><stop offset="1" stop-color="#1670cc"/></linearGradient><linearGradient id="c" x1="-14.675%" x2="95.372%" y1="49.985%" y2="49.985%"><stop offset="0" stop-color="#fff" stop-opacity="0"/><stop offset=".11" stop-color="#f5f8fb" stop-opacity=".05"/><stop offset=".3" stop-color="#dae6f0" stop-opacity=".2"/><stop offset=".54" stop-color="#aec7df" stop-opacity=".44"/><stop offset=".82" stop-color="#729ec6" stop-opacity=".76"/><stop offset="1" stop-color="#4680b5"/></linearGradient><radialGradient id="d" cx="92.947%" cy="78.325%" gradientTransform="matrix(.98577 -.11938 .25444 1.0595 -.186 .064)" r="87.507%"><stop offset="0" stop-color="#4680b5"/><stop offset=".09151" stop-color="#4881b6"/><stop offset=".2" stop-color="#7fa7cc"/><stop offset=".39" stop-color="#adc7de"/><stop offset=".56" stop-color="#d0dfec"/><stop offset=".73" stop-color="#eaf1f7"/><stop offset=".88" stop-color="#fafbfd"/><stop offset="1" stop-color="#fff"/></radialGradient><linearGradient id="e" x1="50.107%" x2="50.107%" y1="100%" y2=".006%"><stop offset="0" stop-color="#f4fafa"/><stop offset="1" stop-color="#d8ddf8"/></linearGradient><linearGradient id="f" x1="49.949%" x2="49.949%" y1="99.969%" y2="0%"><stop offset="0" stop-color="#66bcde"/><stop offset="1" stop-color="#f4fafa"/></linearGradient><radialGradient id="g" cx="1.74%" cy="46.907%" gradientTransform="matrix(.50955 0 0 .52662 .009 .222)" r="139.088%"><stop offset="0" stop-color="#4680b5"/><stop offset=".06" stop-color="#6192c0" stop-opacity=".85"/><stop offset=".16" stop-color="#8bafd0" stop-opacity=".63"/><stop offset=".27" stop-color="#afc8df" stop-opacity=".43"/><stop offset=".38" stop-color="#ccdceb" stop-opacity=".28"/><stop offset=".5" stop-color="#e3ebf4" stop-opacity=".15"/><stop offset=".64" stop-color="#f3f6fa" stop-opacity=".07"/><stop offset=".79" stop-color="#fcfdfe" stop-opacity=".02"/><stop offset="1" stop-color="#fff" stop-opacity="0"/></radialGradient><linearGradient id="h" x1="46.128%" y1="50.035%" y2="50.035%"><stop offset="0" stop-color="#fff" stop-opacity="0"/><stop offset=".3096" stop-color="#f4f9fb" stop-opacity=".13"/><stop offset=".78798" stop-color="#d7ebf0" stop-opacity=".48"/><stop offset="1" stop-color="#abd6df"/></linearGradient><linearGradient id="i" x1="46.093%" x2="50.998%" y1="107.99%" y2="29.922%"><stop offset="0" stop-color="#abd6df"/><stop offset=".31" stop-color="#d7ebf0" stop-opacity=".48"/><stop offset=".53" stop-color="#f4f9fb" stop-opacity=".13"/><stop offset=".64" stop-color="#fff" stop-opacity="0"/></linearGradient><linearGradient id="j" x1="10.917%" x2="116.24%" y1="63.029%" y2="15.697%"><stop offset=".07" stop-color="#fff" stop-opacity="0"/><stop offset=".16" stop-color="#fef8fe" stop-opacity=".14"/><stop offset=".33" stop-color="#fdecfd" stop-opacity=".4"/><stop offset=".5" stop-color="#fbe2fc" stop-opacity=".61"/><stop offset=".66" stop-color="#fadafb" stop-opacity=".78"/><stop offset=".8" stop-color="#fad5fa" stop-opacity=".9"/><stop offset=".92" stop-color="#f9d1fa" stop-opacity=".97"/><stop offset="1" stop-color="#f9d0fa"/></linearGradient><radialGradient id="k" cx="5.441%" cy="97.249%" gradientTransform="matrix(.63975 0 0 1 .02 0)" r="69.651%"><stop offset="0" stop-color="#bcdcf5"/><stop offset=".02" stop-color="#beddf5" stop-opacity=".97"/><stop offset=".48" stop-color="#ecf5fc" stop-opacity=".28"/><stop offset="1" stop-color="#fff" stop-opacity="0"/></radialGradient><linearGradient id="l" x1="39.862%" x2="68.177%" y1="54.63%" y2="1.872%"><stop offset="0" stop-color="#fff" stop-opacity="0"/><stop offset=".61" stop-color="#f3f5fd" stop-opacity=".27"/><stop offset=".98" stop-color="#d6ddf8" stop-opacity=".95"/><stop offset="1" stop-color="#d4dbf8"/></linearGradient><linearGradient id="m" x1="-2.933%" x2="97.783%" y1="81.568%" y2="28.983%"><stop offset="0" stop-color="#fff" stop-opacity="0"/><stop offset=".15" stop-color="#fbfcfd" stop-opacity=".02"/><stop offset=".3" stop-color="#eff4f8" stop-opacity=".09"/><stop offset=".45" stop-color="#dae6f0" stop-opacity=".2"/><stop offset=".6" stop-color="#bdd2e5" stop-opacity=".35"/><stop offset=".75" stop-color="#98b9d6" stop-opacity=".55"/><stop offset=".89" stop-color="#6c9ac4" stop-opacity=".8"/><stop offset="1" stop-color="#4680b5"/></linearGradient><linearGradient id="n" x1="31.986%" y1="50.028%" y2="50.028%"><stop offset="0" stop-color="#fff" stop-opacity="0"/><stop offset=".38103" stop-color="#ecf5fc" stop-opacity=".28"/><stop offset=".91549" stop-color="#beddf5" stop-opacity=".97"/><stop offset="1" stop-color="#bcdcf5"/></linearGradient><g fill="none" fill-rule="evenodd"><path d="m147.515841 70.9639895c-.592281-.2434846-1.125175-.6114134-1.5625-1.0788055v-.1078805c.46803-3.6823228 0-6.9906597.396025-10.7017507 1.440093-14.5566824 10.577477-9.9609709 18.800404-12.2624227 5.105126-1.4384073 10.224654-4.3583743 11.520737-10.4212612-5.515475-6.4726761-11.802511-12.2475675-18.721198-17.1961599-22.285427-15.89440125-51.382489-22.20181749-77.80818-17.85782729 9.7519948 17.04611839 30.485403 24.45183799 48.847926 17.44788119-.079205.1222646-1.440092 2.2223393-3.125 10.960664-3.657834 18.5770309-14.278514 17.1170475-27.3617509 12.4278395-27.2177419-9.8099381-42.2163018-.6544753-55.8035714-19.3537709-4.4258828 2.4788578-6.9068457 7.3889971-6.2743541 12.4177402s4.2523176 9.1733483 9.1545385 10.4817048c-10.296659 10.8455915-2.124136 26.3803909-20.0748848 29.6671517-7.1572581.3739859-7.0204494 5.1566903-9.5478111 12.3774952-3.2762097 9.3280717-7.54608295 13.0535466-15.9562212 21.9213276 3.42741935 4.149806 7.04925115 4.703592 10.7286866 3.164497 7.5532834-3.157305 13.3640553-12.9456665 18.8724079-19.2746589 6.1059908-7.0553881 20.7805299-4.0347326 31.9196428-10.9175118 3.0669655-1.8945673 5.6661391-4.4562816 7.6036867-7.4941023 15.2289746-7.7889758 39.033698 19.4184993 58.323733 15.2111578 5.760368 2.7617421 12.924827 3.6607467 21.118951 1.186686 4.83871-1.4384073 9.259793-3.2795687 14.624136-2.3086438 3.996533.6097965 7.573033 2.8165319 9.907834 6.1132313 3.43462 5.0344257 11.045507 6.1419997 14.400922-.0647284-8.518145-21.9429041-32.920507-21.3603491-39.984159-24.3378524z" fill="url(#a)"/><path d="m129.166667 18.7516325c-13.922384 5.2755329-29.6496185 2.4270301-40.7908155-7.3879961-3.7881986 1.2925582-7.4957471 2.8066676-11.1031242 4.5343558 14.2250354 13.4986873 36.2501577 14.7098456 51.8939397 2.8536403z" fill="url(#b)"/><path d="m88.3888029 11.3636364c-1.9617225.6704589-3.8994043 1.3979782-5.8130453 2.1825579 12.7612877 11.5116311 31.5590354 13.6066134 46.5909094 5.1924906-13.919282 5.2592926-29.6416791 2.4157537-40.7778641-7.3750485z" fill="url(#c)"/><path d="m127.651515 90.459314c-3.604711-1.733351-6.773064-4.2489306-9.271958-7.3616634-5.356166-6.6701568-6.326067-13.1602338-4.66855-18.3249233-3.771031 3.9113338-5.79045 10.1709087-3.901316 18.5050031.397466 1.7703916.97465 3.4960137 1.722659 5.1502831 5.522642 2.0601133 10.980141 3.1549986 16.119165 2.0313005z" fill="url(#d)"/><path d="m145.7119 69.6969697v-.1075827c.465549-3.6721561 0-6.9713588.393926-10.6722037.909612-9.0728075 4.79874-10.686548 9.575992-11.1814284-6.977995-.213063-13.459036 3.6022776-16.666666 9.8115421 4.956309 4.1383478 4.232917 9.5174827 6.696748 12.1496727z" fill="url(#e)"/><path d="m71.969697 36.6605756c-11.9694728-1.3352749-20.8477304-2.3004464-29.2443335-13.9333029-4.4187599 2.5012239-6.89573 7.4556661-6.2642563 12.5297822s4.2454741 9.256117 9.1398053 10.5762784c7.244904-6.4524815 16.7241511-9.7499728 26.3687845-9.1727577z" fill="url(#f)" opacity=".85"/><path d="m127.272727 90.461871c-3.083992-1.4840299-5.851706-3.5502215-8.150669-6.0847489-6.468785-1.6666609-14.274452-5.1364764-19.7585443-12.3634628-11.162248-14.7197763-31.5604834-10.9841572-31.5604834-10.9841572 2.0837423 4.4502473 2.5267066 9.4934003 1.2506318 14.2384563 15.1944572-7.7801454 38.9636489 19.410852 58.2190649 15.1939126z" fill="url(#g)"/><path d="m112.121212 45.1588158c-4.015289.0792889-8.63503-1.2397896-13.6073688-3.0273933-27.2147379-9.8318203-42.2037118-.6559353-55.7822973-19.4041498-4.4230541 2.4843872-6.9024313 7.4054791-6.270344 12.4454394.6320874 5.0399603 4.2495999 9.1938105 9.1486875 10.5050854-5.3681106 5.6439262-5.7279036 12.5708905-7.3541676 18.337354l29.6325464-3.1283064c-3.0654358-15.2090476 34.4321838-13.0610399 44.2329438-15.7280293z" fill="url(#h)" opacity=".8"/><path d="m80.3030303 1.34712903c9.7560567 17.19021177 30.4981007 24.65853307 48.8682727 17.59537077 8.807521-3.7484795 18.713003-3.9251834 27.646879-.4931926-22.093012-15.35424563-50.589899-21.39585479-76.5151517-17.10217817z" fill="url(#i)" fill-opacity=".85"/><path d="m176.515152 36.3899159c-5.513246-6.4616829-11.797742-12.2267661-18.713633-17.1669539-8.220101-5.8141024-17.260558-10.37763981-26.825272-13.54114382l-2.108882 13.13907382-.2951.5743858c-.496631 1.0841531-1.554671 3.905823-2.828637 10.3676626-1.727412 8.7737422-5.038286 13.0672756-9.356816 14.6611961-.179939.0646184-.381471.1364166-.604595.201035l-.251914.0717982c23.672745-3.704788 19.642116-27.8505287 39.737678-12.7729029 5.664473 4.2504545 11.595255 9.1470929 21.247171 4.4658491z" fill="url(#j)"/><path d="m176.515152 36.3899159c-5.513246-6.4616829-11.797742-12.2267661-18.713633-17.1669539-8.220101-5.8141024-17.260558-10.37763981-26.825272-13.54114382l-2.108882 13.13907382-.2951.5743858c-.496631 1.0841531-1.554671 3.905823-2.828637 10.3676626-1.727412 8.7737422-5.038286 13.0672756-9.356816 14.6611961-.179939.0646184-.381471.1364166-.604595.201035l-.251914.0717982c23.672745-3.704788 19.642116-27.8505287 39.737678-12.7729029 5.664473 4.2504545 11.595255 9.1470929 21.247171 4.4658491z" fill="url(#k)"/><path d="m127.272727 90.4562757c-3.579549-1.7345737-6.725786-4.2519278-9.207237-7.3668562-1.546068-2.0029328-2.853481-4.1801773-3.895646-6.4874468-6.907225-14.6400049-6.878475-32.3507346-46.3668137-15.7140378 8.0069184 7.0785253 1.2506318 14.3228409 1.2506318 14.3228409 10.7813083-5.5431629 25.9182653 6.6099874 40.6742829 12.6072715 1.37282.5550372 2.601889 1.0163667 3.924396 1.4416549 4.664713 1.499321 9.25755 2.1624822 13.620386 1.1965735z" fill="url(#l)" opacity=".75"/><path d="m37.5 65.9090909c-1.6227186 4.5141564-4.4947869 8.1182589-12.0914076 9.519453-5.3707678.2816834-6.6201175 3.076849-7.98435 7.5260016 9.6044202-.83369 17.6459404-7.6613958 20.0757576-17.0454546z" fill="url(#m)"/><path d="m162.878788 89.1275445c-8.191726-2.6741364-16.909147-3.4216326-25.449296-2.1822112l-10.156765 3.2803562c5.738286 2.7031261 12.875278 3.5830499 21.037989 1.1614995 4.82016-1.4078782 9.224294-3.2099623 14.568072-2.2596445z" fill="url(#n)"/></g></svg>