<svg enable-background="new 0 0 100 100" height="100" viewBox="0 0 100 100" width="100" xmlns="http://www.w3.org/2000/svg"><path d="m88.7 23h-5.4v-4c0-.8-.6-1.4-1.4-1.5s-18.2-1.7-31.9 5.3c-13.9-7.4-31.2-5.4-32-5.3s-1.3.7-1.3 1.5v4h-5.4c-.8 0-1.5.7-1.5 1.5v56.8c0 .8.7 1.5 1.5 1.5h77.3c.8 0 1.5-.7 1.5-1.5v-56.8c.1-.9-.6-1.5-1.4-1.5zm-8.4 49.6c-14.6-.3-24.5 3.8-28.8 6.1v-53.3c10.8-5.4 24.5-5.2 28.8-5zm-31.8-47.2v53.5c-4.3-2.1-14.5-6.2-27.4-6.2-.5 0-.9 0-1.4 0v-52.4c4.3-.2 17.8-.7 28.8 5.1zm-35.7.6h3.9v48.2c0 .4.2.8.5 1.1s.7.4 1.1.4c10.4-.5 19.3 2 24.9 4.1h-30.4zm74.4 53.8h-31c5.1-2.1 13.8-4.7 25.5-4.1.4 0 .8-.1 1.1-.4s.5-.7.5-1.1v-48.2h3.9z"/><path d="m24.7 32.1c.1 0 11.5.3 18.1 3.6v-3.3c-7.2-3-17.6-3.3-18-3.3z"/><path d="m24.7 42.2c.1 0 11.5.3 18.1 3.6v-3.3c-7.2-3-17.6-3.3-18-3.3z"/><path d="m24.7 52.4c.1 0 11.5.3 18.1 3.6v-3.3c-7.2-3-17.6-3.3-18-3.3z"/><path d="m24.7 62.5c.1 0 11.5.3 18.1 3.6v-3.3c-7.2-3-17.6-3.3-18-3.3z"/><path d="m57.2 32.4v3.3c6.6-3.3 18-3.6 18.1-3.6l-.1-3c-.4 0-10.8.3-18 3.3z"/><path d="m57.2 42.5v3.3c6.6-3.3 18-3.6 18.1-3.6l-.1-3c-.4 0-10.8.3-18 3.3z"/><path d="m57.2 52.6v3.3c6.6-3.3 18-3.6 18.1-3.6l-.1-3c-.4.1-10.8.3-18 3.3z"/><path d="m57.2 62.8v3.3c6.6-3.3 18-3.6 18.1-3.6l-.1-3c-.4 0-10.8.2-18 3.3z"/></svg>