<svg height='100px' width='100px'  fill="#000000" xmlns="http://www.w3.org/2000/svg" xmlns:xlink="http://www.w3.org/1999/xlink" version="1.1" x="0px" y="0px" viewBox="0 0 100 100" style="enable-background:new 0 0 100 100;" xml:space="preserve"><g><path d="M28.057,42.056c-0.354,6.379,2.066,12.583,6.64,17.02c3.604,3.496,5.671,8.31,5.671,13.208v2.824   c0,2.999,2.439,5.438,5.438,5.438h8.387c2.999,0,5.438-2.439,5.438-5.438v-2.822c0-4.96,2.015-9.725,5.529-13.073   c4.396-4.189,6.817-9.839,6.817-15.909c0-12.119-9.859-21.978-21.978-21.978c-0.827,0-1.667,0.046-2.496,0.138   C37.004,22.625,28.644,31.478,28.057,42.056z M47.943,25.44c0.684-0.076,1.376-0.114,2.057-0.114   c9.913,0,17.978,8.064,17.978,17.978c0,4.965-1.98,9.586-5.576,13.013c-4.302,4.099-6.77,9.919-6.77,15.969v2.822   c0,0.793-0.646,1.438-1.438,1.438h-8.387c-0.793,0-1.438-0.646-1.438-1.438v-2.824c0-5.973-2.51-11.833-6.886-16.079   c-3.741-3.629-5.721-8.706-5.431-13.927C32.531,33.627,39.363,26.389,47.943,25.44z"></path><path d="M50,30.796c2.994,0,5.893,1.079,8.163,3.039c0.284,0.245,0.632,0.365,0.98,0.365c0.421,0,0.839-0.176,1.136-0.52   c0.542-0.627,0.472-1.574-0.155-2.116c-2.815-2.43-6.41-3.769-10.124-3.769c-0.829,0-1.5,0.671-1.5,1.5S49.171,30.796,50,30.796z"></path><path d="M62.508,43.304c0,0.829,0.671,1.5,1.5,1.5s1.5-0.671,1.5-1.5c0-1.917-0.348-3.79-1.034-5.568   c-0.298-0.772-1.165-1.156-1.939-0.859c-0.773,0.298-1.158,1.167-0.859,1.939C62.228,40.248,62.508,41.758,62.508,43.304z"></path><path d="M56.509,82.521H43.491c-0.829,0-1.5,0.671-1.5,1.5s0.671,1.5,1.5,1.5h13.019c0.829,0,1.5-0.671,1.5-1.5   S57.338,82.521,56.509,82.521z"></path><path d="M58.009,88.761c0-0.829-0.671-1.5-1.5-1.5H43.491c-0.829,0-1.5,0.671-1.5,1.5s0.671,1.5,1.5,1.5h13.019   C57.338,90.261,58.009,89.589,58.009,88.761z"></path><path d="M14.733,40.267c-0.829,0-1.5,0.671-1.5,1.5s0.671,1.5,1.5,1.5h8.643c0.829,0,1.5-0.671,1.5-1.5s-0.671-1.5-1.5-1.5H14.733z   "></path><path d="M85.267,43.267c0.829,0,1.5-0.671,1.5-1.5s-0.671-1.5-1.5-1.5h-8.643c-0.829,0-1.5,0.671-1.5,1.5s0.671,1.5,1.5,1.5H85.267   z"></path><path d="M48.5,6.5v8.643c0,0.829,0.671,1.5,1.5,1.5s1.5-0.671,1.5-1.5V6.5C51.5,5.671,50.829,5,50,5S48.5,5.671,48.5,6.5z"></path><path d="M69.887,24.001l6.111-6.111c0.586-0.585,0.586-1.536,0-2.121c-0.586-0.586-1.535-0.586-2.121,0l-6.111,6.111   c-0.586,0.585-0.586,1.536,0,2.121c0.293,0.293,0.677,0.439,1.061,0.439S69.594,24.294,69.887,24.001z"></path><path d="M30.113,59.533l-6.111,6.111c-0.586,0.585-0.586,1.535,0,2.121c0.293,0.293,0.677,0.439,1.061,0.439   s0.768-0.146,1.061-0.439l6.111-6.111c0.586-0.585,0.586-1.535,0-2.121S30.699,58.947,30.113,59.533z"></path><path d="M26.123,15.769c-0.586-0.586-1.535-0.586-2.121,0c-0.586,0.585-0.586,1.536,0,2.121l6.111,6.111   c0.293,0.293,0.677,0.439,1.061,0.439s0.768-0.146,1.061-0.439c0.586-0.585,0.586-1.536,0-2.121L26.123,15.769z"></path><path d="M67.766,59.533c-0.586,0.586-0.586,1.536,0,2.121l6.111,6.111c0.293,0.293,0.677,0.439,1.061,0.439   s0.768-0.146,1.061-0.439c0.586-0.586,0.586-1.536,0-2.121l-6.111-6.111C69.301,58.947,68.352,58.947,67.766,59.533z"></path><path d="M54.754,93.5c0-0.829-0.671-1.5-1.5-1.5h-6.509c-0.829,0-1.5,0.671-1.5,1.5s0.671,1.5,1.5,1.5h6.509   C54.083,95,54.754,94.329,54.754,93.5z"></path></g></svg>