<svg height="100" viewBox="0 0 512 512" width="100" xmlns="http://www.w3.org/2000/svg"><path d="m144 336h304a8 8 0 0 0 7.832-6.368l40-192a8 8 0 0 0 -7.832-9.632h-382.841l-17.372-73.833a8 8 0 0 0 -7.787-6.167h-56a8 8 0 0 0 0 16h49.664l60.593 257.522a32.053 32.053 0 0 0 -22.257 30.478v16a32.036 32.036 0 0 0 32 32h.022a40 40 0 1 0 63.956 0h160.044a40 40 0 1 0 63.956 0h32.022a8 8 0 0 0 0-16h-320a16.019 16.019 0 0 1 -16-16v-16a16.019 16.019 0 0 1 16-16zm6.336-16-7.529-32h44.131l4 32h-40.6zm173.324-80-1.334 32h-52.652l-1.334-32zm-55.986-16-1.334-32h59.32l-1.334 32zm-14.014 48h-52.6l-4-32h55.264zm.666 16 1.334 32h-48.6l-4-32zm16.014 0h51.32l-1.334 32h-48.652zm67.334 0h51.264l-4 32h-48.6zm.666-16 1.334-32h55.264l-4 32zm72.722-32h47.1l-6.662 32h-44.438zm2-16 4-32h51.1l-6.662 32zm-16.124 0h-56.6l1.334-32h59.264zm-54.6-48 1.334-32h63.264l-4 32zm-16.014 0h-60.65l-1.334-32h63.32zm-76.666 0h-60.6l-4-32h63.264zm.666 16 1.334 32h-56.6l-4-32zm-71.388 32h-51.19l-7.529-32h54.719zm2 16 4 32h-45.9l-7.529-32zm260.564 80h-40.438l4-32h43.1zm30-144h-52.438l4-32h55.1zm-302.562-32 4 32h-56.484l-7.529-32zm31.062 280a24 24 0 1 1 -24-24 24.028 24.028 0 0 1 24 24zm224 0a24 24 0 1 1 -24-24 24.028 24.028 0 0 1 24 24z"/><circle cx="176" cy="424" r="8"/><circle cx="400" cy="424" r="8"/></svg>