<svg fill="none" height="446" viewBox="0 0 544 446" width="544" xmlns="http://www.w3.org/2000/svg"><g fill="#222"><path d="m46.75 370c-3.8333 0-5.75-5.583-5.75-16.75v-287.5c0-2.5-.3333-4.3333-1-5.5s-1.5-1.5833-2.5-1.25c-14.3333 3.6667-21.5833 5.5-21.75 5.5-1.8333.3333-3.25-.1667-4.25-1.5-.8333-1.5-1.25-4.1667-1.25-8v-19.25c0-5.3333 1.9167-8.4167 5.75-9.25l57-15c1.6667-.3333 2.75-.5 3.25-.5 3.3333 0 5 3.5 5 10.5v331.75c0 11.167-2 16.75-6 16.75zm125 0c-3.833 0-5.75-5.583-5.75-16.75v-287.5c0-2.5-.333-4.3333-1-5.5s-1.5-1.5833-2.5-1.25c-14.333 3.6667-21.583 5.5-21.75 5.5-1.833.3333-3.25-.1667-4.25-1.5-.833-1.5-1.25-4.1667-1.25-8v-19.25c0-5.3333 1.917-8.4167 5.75-9.25l57-15c1.667-.3333 2.75-.5 3.25-.5 3.333 0 5 3.5 5 10.5v331.75c0 11.167-2 16.75-6 16.75zm166.5.5c-6.167 0-11.583-.5-16.25-1.5-4.667-1.167-9.333-3.417-14-6.75-4.5-3.333-8.25-7.833-11.25-13.5-2.833-5.833-5.167-13.5-7-23-1.667-9.667-2.5-21.083-2.5-34.25v-137c0-3-.917-4.5-2.75-4.5h-16c-4 0-6-3.667-6-11v-9.5c0-7.333 2-11 6-11h16c1.667 0 2.583-2.25 2.75-6.75l4.25-88.5c.167-8.5 2.25-12.75 6.25-12.75h17.5c2 0 3.5.9167 4.5 2.75 1 1.6667 1.5 5 1.5 10v88.5c0 4.5 1 6.75 3 6.75h32.25c2 0 3.5.75 4.5 2.25s1.5 4.417 1.5 8.75v9.5c0 4.333-.5 7.25-1.5 8.75s-2.5 2.25-4.5 2.25h-32.25c-1.167 0-2 .25-2.5.75-.333.5-.5 1.75-.5 3.75v137c0 14 1.167 24.833 3.5 32.5 2.5 7.667 5.25 12.5 8.25 14.5 3.167 1.833 7.167 2.75 12 2.75h17.25c4.5 0 6.75 2.5 6.75 7.5v13.25c0 5.667-2.417 8.5-7.25 8.5zm98 35c4.5 0 8.667-3.833 12.5-11.5 4-7.667 6-17 6-28 0-4.333-1.667-13.5-5-27.5l-52.5-205.25c-.333-2.333-.5-4.167-.5-5.5 0-6.167 1.25-9.25 3.75-9.25h23.75c4.5 0 7.417 4.167 8.75 12.5l37.75 171c.667 1.833 1.083 2.75 1.25 2.75.667 0 1-.917 1-2.75l31-170.25c1.167-8.833 3.917-13.25 8.25-13.25h17c2.833 0 4.25 3.333 4.25 10 0 .333-.25 2.25-.75 5.75l-45 232.25c-4.667 25.833-10.583 43.667-17.75 53.5-7 9.833-16.333 15-28 15.5h-3.25c-13.333 0-22-3.333-26-10-.833-1.5-1.25-4.5-1.25-9 0-10.333 1.833-15.5 5.5-15.5.5 0 3.333.75 8.5 2.25s8.75 2.25 10.75 2.25z"/><path d="m37.5 59 2.4783 9.688.3456-.0884.3384-.1128zm-21.75 5.5v-10h-.9017l-.8872.1613zm-4.25-1.5-8.74157 4.8564.33173.5971.40984.5465zm4.5-36.5 2.1243 9.7718.2114-.046.2092-.0551zm57-15-1.9612-9.80581-.2939.05879-.2898.07627zm-26.25 348.5c1.771 0 3.3972.756 4.4507 1.779.8155.792.8866 1.345.695.787-.4088-1.191-.8957-4.036-.8957-9.316h-20c0 5.886.4715 11.417 1.9793 15.809 1.4626 4.261 5.3839 10.941 13.7707 10.941zm4.25-6.75v-287.5h-20v287.5zm0-287.5c0-2.9767-.3243-6.9731-2.3176-10.4614l-17.3648 9.9228c-.2113-.3698-.3191-.6557-.3669-.7991-.0483-.1447-.0526-.1959-.0394-.1234.0128.0702.0361.2244.0557.4781.0193.252.033.5768.033.983zm-2.3176-10.4614c-.9002-1.5754-2.5324-3.7689-5.3353-5.1704-3.1081-1.554-6.3535-1.4903-9.0094-.605l6.3246 18.9736c-1.6559.552-3.9846.6574-6.2594-.48-1.9696-.9848-2.8518-2.3867-3.0853-2.7954zm-13.6607-5.9766c-7.1646 1.8328-12.5496 3.205-16.1608 4.1182-1.8082.4572-3.1571.7957-4.0575 1.0182-.4547.1124-.7686.1887-.9609.2342-.1029.0244-.1283.0298-.1066.025.0034-.0007.0842-.0185.2025-.0407.0547-.0103.1887-.0351.3639-.061.0068-.001.6453-.1059 1.4477-.1059v20c.8076 0 1.4548-.1058 1.4737-.1086.1873-.0277.3369-.0551.4106-.069.1565-.0294.2891-.0579.3583-.073.1532-.0334.3147-.071.454-.1039.292-.0691.6838-.1647 1.1562-.2814.9538-.2358 2.3445-.5849 4.1613-1.0443 3.6388-.9201 9.0455-2.2979 16.2142-4.1318zm-21.0606 5.3493c.3883-.0706 1.3963-.1691 2.6796.2838 1.3543.478 2.3094 1.3217 2.8593 2.0549l-16 12c1.54991 2.0665 3.71335 3.8269 6.4843 4.8049 2.7.9529 5.333.9377 7.5546.5338zm6.2805 3.4823c.1138.2049.1861.3672.2277.4697.042.103.0602.163.0621.1695.0012.004-.0389-.1323-.0888-.4516-.1031-.6599-.1926-1.7355-.1926-3.3312h-20c0 3.9196.31687 8.9116 2.50843 12.8564zm.0084-3.1436v-19.25h-20v19.25zm0-19.25c0-.7536.0695-1.181.1098-1.3577.0383-.1686.0262-.0063-.1794.3245-.2239.3602-.5827.7655-1.0664 1.0949-.4691.3196-.8532.4304-.9897.4601l-4.2486-19.5436c-4.32355.9399-8.17203 3.3937-10.68105 7.43-2.302211 3.7035-2.94465 7.8813-2.94465 11.5918zm-1.7051.4207 57-15-5.0898-19.34145-57 15.00005zm56.4163-14.8649c.757-.1514 1.2844-.2452 1.6219-.2971.1673-.0257.2361-.0331.2294-.0324-.0061.0006-.0534.0056-.1335.0108-.0751.0048-.2251.0129-.429.0129v-20c-1.6842 0-3.8003.41202-5.2112.69419zm1.2888-.3058c-1.0197 0-2.3355-.3033-3.5471-1.1514-1.1244-.7871-1.6022-1.6527-1.7315-1.9243-.1161-.2437-.0199-.1409.0897.5496.105.6613.1889 1.647.1889 3.0261h20c0-3.9755-.4226-8.3968-2.2214-12.17434-.9626-2.02157-2.4821-4.19966-4.8565-5.86173-2.4616-1.72311-5.2357-2.46393-7.9221-2.46393zm-5 .5v331.75h20v-331.75zm0 331.75c0 2.514-.1137 4.545-.3045 6.143-.195 1.633-.4444 2.586-.6097 3.047-.1852.517-.0991-.039.7269-.808 1.0503-.977 2.5917-1.632 4.1873-1.632v20c3.5956 0 6.887-1.353 9.4373-3.726 2.326-2.165 3.6621-4.815 4.4769-7.089 1.593-4.447 2.0858-10.031 2.0858-15.935zm4 6.75h-28.5v20h28.5zm87.25-301 2.478 9.688.346-.0884.338-.1128zm-21.75 5.5v-10h-.902l-.887.1613zm-4.25-1.5-8.742 4.8564.332.5971.41.5465zm4.5-36.5 2.124 9.7718.212-.046.209-.0551zm57-15-1.961-9.80581-.294.05879-.29.07627zm-26.25 348.5c1.771 0 3.397.756 4.451 1.779.815.792.886 1.345.695.787-.409-1.191-.896-4.036-.896-9.316h-20c0 5.886.471 11.417 1.979 15.809 1.463 4.261 5.384 10.941 13.771 10.941zm4.25-6.75v-287.5h-20v287.5zm0-287.5c0-2.9767-.324-6.9731-2.318-10.4614l-17.364 9.9228c-.212-.3698-.32-.6557-.367-.7991-.049-.1447-.053-.1959-.04-.1234.013.0702.036.2244.056.4781.019.252.033.5768.033.983zm-2.318-10.4614c-.9-1.5754-2.532-3.7689-5.335-5.1704-3.108-1.554-6.353-1.4903-9.009-.605l6.324 18.9736c-1.656.552-3.984.6574-6.259-.48-1.97-.9848-2.852-2.3867-3.085-2.7954zm-13.66-5.9766c-7.165 1.8328-12.55 3.205-16.161 4.1182-1.808.4572-3.157.7957-4.058 1.0182-.454.1124-.768.1887-.961.2342-.102.0244-.128.0298-.106.025.003-.0007.084-.0185.202-.0407.055-.0103.189-.0351.364-.061.007-.001.646-.1059 1.448-.1059v20c.808 0 1.455-.1058 1.474-.1086.187-.0277.337-.0551.41-.069.157-.0294.289-.0579.359-.073.153-.0334.314-.071.454-.1039.292-.0691.683-.1647 1.156-.2814.954-.2358 2.344-.5849 4.161-1.0443 3.639-.9201 9.046-2.2979 16.214-4.1318zm-21.061 5.3493c.388-.0706 1.396-.1691 2.68.2838 1.354.478 2.309 1.3217 2.859 2.0549l-16 12c1.55 2.0665 3.713 3.8269 6.484 4.8049 2.7.9529 5.333.9377 7.555.5338zm6.281 3.4823c.113.2049.186.3672.227.4697.042.103.06.163.062.1695.002.004-.038-.1323-.088-.4516-.103-.6599-.193-1.7355-.193-3.3312h-20c0 3.9196.317 8.9116 2.508 12.8564zm.008-3.1436v-19.25h-20v19.25zm0-19.25c0-.7536.07-1.181.11-1.3577.038-.1686.026-.0063-.18.3245-.224.3602-.582.7655-1.066 1.0949-.469.3196-.853.4304-.99.4601l-4.248-19.5436c-4.324.9399-8.172 3.3937-10.681 7.43-2.303 3.7035-2.945 7.8813-2.945 11.5918zm-1.705.4207 57-15-5.09-19.34145-57 15.00005zm56.416-14.8649c.757-.1514 1.285-.2452 1.622-.2971.167-.0257.236-.0331.229-.0324-.006.0006-.053.0056-.133.0108-.075.0048-.225.0129-.429.0129v-20c-1.684 0-3.8.41202-5.211.69419zm1.289-.3058c-1.02 0-2.336-.3033-3.547-1.1514-1.125-.7871-1.602-1.6527-1.732-1.9243-.116-.2437-.019-.1409.09.5496.105.6613.189 1.647.189 3.0261h20c0-3.9755-.423-8.3968-2.221-12.17434-.963-2.02157-2.482-4.19966-4.857-5.86173-2.461-1.72311-5.236-2.46393-7.922-2.46393zm-5 .5v331.75h20v-331.75zm0 331.75c0 2.514-.114 4.545-.304 6.143-.195 1.633-.445 2.586-.61 3.047-.185.517-.099-.039.727-.808 1.05-.977 2.591-1.632 4.187-1.632v20c3.596 0 6.887-1.353 9.437-3.726 2.326-2.165 3.662-4.815 4.477-7.089 1.593-4.447 2.086-10.031 2.086-15.935zm4 6.75h-28.5v20h28.5zm121.75 9-2.425 9.701.164.042.166.035zm-14-6.75-5.952 8.036.069.051.071.05zm-11.25-13.5-8.995 4.369.076.156.081.154zm-7-23-9.855 1.699.017.098.019.098zm-2.5-214-9.988-.48-.003.055-.002.055zm4.25-88.5 9.988.4797.007-.1418.003-.1419zm28.25-10-8.779 4.7885.098.1803.106.1762zm2 137.5-7.071-7.071-.7.7-.55.824zm3 173.25-9.567 2.912.029.094.031.094zm8.25 14.5-5.547 8.321.263.175.274.158zm5.25 22c-5.655 0-10.342-.461-14.155-1.278l-4.19 19.556c5.521 1.183 11.667 1.722 18.345 1.722zm-13.825-1.201c-3.24-.81-6.775-2.445-10.613-5.186l-11.624 16.274c5.495 3.926 11.293 6.791 17.387 8.314zm-10.473-5.085c-3.136-2.323-5.962-5.605-8.364-10.143l-17.676 9.358c3.598 6.795 8.272 12.513 14.136 16.857zm-8.207-9.833c-2.314-4.765-4.436-11.506-6.176-20.526l-19.638 3.79c1.926 9.98 4.472 18.573 7.824 25.474zm-6.14-20.33c-1.544-8.953-2.355-19.774-2.355-32.551h-20c0 13.557.856 25.568 2.645 35.949zm-2.355-32.551v-137h-20v137zm0-137c0-2.193-.277-5.516-2.155-8.59-2.367-3.874-6.377-5.91-10.595-5.91v20c-.928 0-2.228-.199-3.585-.94-1.377-.751-2.315-1.787-2.885-2.72-.962-1.574-.78-2.647-.78-1.84zm-12.75-14.5h-16v20h16zm-16 0c.581 0 1.562.152 2.59.78 1.004.614 1.508 1.35 1.689 1.681.151.277.054.22-.065-.437-.116-.636-.214-1.617-.214-3.024h-20c0 4.248.523 9.009 2.721 13.039 1.181 2.165 2.935 4.276 5.439 5.806 2.528 1.545 5.259 2.155 7.84 2.155zm4-1v-9.5h-20v9.5zm0-9.5c0-1.407.098-2.388.214-3.024.119-.657.216-.714.065-.437-.181.331-.685 1.067-1.689 1.681-1.028.628-2.009.78-2.59.78v-20c-2.581 0-5.312.61-7.84 2.155-2.504 1.53-4.258 3.641-5.439 5.806-2.198 4.03-2.721 8.791-2.721 13.039zm-4-1h16v-20h-16zm16 0c6.71 0 10.029-5.045 11.198-7.915 1.129-2.77 1.449-5.867 1.545-8.465l-19.986-.74c-.071 1.902-.293 2.18-.08 1.66.13-.32.619-1.418 1.865-2.503 1.442-1.256 3.388-2.037 5.458-2.037zm12.738-16.27 4.25-88.5003-19.976-.9594-4.25 88.4997zm4.26-88.784c.035-1.7581.166-3.081.334-4.0363.174-.9834.347-1.3459.335-1.3206-.024.0479-.372.7355-1.331 1.4054-1.051.7348-2.206 1.0055-3.086 1.0055v-20c-2.88 0-5.795.80196-8.368 2.59928-2.479 1.73241-4.109 4.01369-5.174 6.18665-2.009 4.09807-2.613 9.04077-2.706 13.76807zm-3.748-2.946h17.5v-20h-17.5zm17.5 0c-.581 0-1.562-.1518-2.59-.7797-1.004-.614-1.508-1.3499-1.689-1.6818l17.558-9.57702c-1.181-2.16521-2.935-4.27608-5.439-5.8068-2.528-1.5445-5.259-2.15468-7.84-2.15468zm-4.075-2.105c-.295-.4914-.372-.791-.347-.709.018.0607.084.3066.158.7974.15 1.0024.264 2.5502.264 4.7666h20c0-2.7836-.136-5.4024-.486-7.7334-.322-2.1508-.943-4.9189-2.439-7.41156zm.075 4.855v88.5h20v-88.5zm0 88.5c0 2.681.251 6.061 1.612 9.124.732 1.648 1.974 3.628 4.076 5.204 2.224 1.669 4.802 2.422 7.312 2.422v-20c1.51 0 3.213.472 4.688 1.578 1.351 1.014 1.968 2.15 2.2 2.673.229.514.231.752.192.487-.035-.234-.08-.709-.08-1.488zm13 16.75h32.25v-20h-32.25zm32.25 0c-.256 0-.966-.053-1.847-.493-.923-.462-1.583-1.124-1.974-1.71l16.642-11.094c-3.082-4.622-7.908-6.703-12.821-6.703zm-3.821-2.203c-.349-.524-.477-.896-.492-.941-.019-.057.023.054.082.396.121.709.231 1.913.231 3.748h20c0-2.498-.14-4.919-.519-7.127-.353-2.062-1.042-4.743-2.66-7.17zm-.179 3.203v9.5h20v-9.5zm0 9.5c0 1.835-.11 3.039-.231 3.748-.059.342-.101.453-.082.396.015-.045.143-.417.492-.941l16.642 11.094c1.618-2.427 2.307-5.108 2.66-7.17.379-2.208.519-4.629.519-7.127zm.179 3.203c.391-.586 1.051-1.248 1.974-1.71.881-.44 1.591-.493 1.847-.493v20c4.913 0 9.739-2.081 12.821-6.703zm3.821-2.203h-32.25v20h32.25zm-32.25 0c-2.182 0-6.29.398-9.571 3.679l14.142 14.142c-1.16 1.16-2.39 1.702-3.198 1.945-.771.231-1.292.234-1.373.234zm-10.821 5.203c-1.524 2.286-1.856 4.709-1.966 5.538-.166 1.24-.213 2.541-.213 3.759h20c0-.366.008-.645.018-.847.011-.209.022-.289.019-.269 0 0-.03.241-.141.629-.058.203-.154.503-.307.865-.151.356-.393.856-.768 1.419zm-2.179 9.297v137h20v-137zm0 137c0 14.368 1.176 26.351 3.933 35.412l19.134-5.824c-1.909-6.272-3.067-15.956-3.067-29.588zm3.993 35.6c1.374 4.215 2.932 8.021 4.753 11.22 1.767 3.106 4.146 6.293 7.457 8.501l11.094-16.642c.311.208-.185-.022-1.168-1.749-.929-1.634-1.996-4.079-3.122-7.53zm12.747 20.054c5.102 2.954 10.965 4.096 17.01 4.096v-20c-3.622 0-5.758-.691-6.99-1.404zm17.01 4.096h17.25v-20h-17.25zm17.25 0c.225 0-.013.034-.52-.154-.565-.209-1.255-.619-1.85-1.281-1.174-1.304-.88-2.268-.88-1.065h20c0-3.797-.831-8.511-4.255-12.315-3.603-4.003-8.415-5.185-12.495-5.185zm-3.25-2.5v13.25h20v-13.25zm0 13.25c0 .738-.082 1.021-.072.984.018-.065.166-.529.651-1.098.515-.604 1.145-1.013 1.703-1.231.497-.194.722-.155.468-.155v20c4.411 0 9.405-1.367 13.046-5.636 3.38-3.963 4.204-8.844 4.204-12.864zm2.75-1.5h-23.5v20h23.5zm87 33.5-8.866-4.626-.04.077-.038.077zm1-55.5 9.728-2.316-.019-.081-.021-.081zm-52.5-205.25-9.899 1.414.076.538.135.526zm35.75-2.25-9.874 1.58.046.289.063.287zm37.75 171-9.765 2.156.142.643.225.618zm2.25 0-9.838-1.791-.162.888v.903zm31-170.25 9.838 1.791.044-.24.032-.242zm28.75 2.5 9.817 1.902.047-.243.035-.245zm-45 232.25-9.817-1.902-.012.062-.012.062zm-17.75 53.5-8.081-5.89-.033.045-.033.046zm-28 15.5v10h.214l.214-.009zm-29.25-10-8.742 4.856.081.146.086.143zm23.5-10c10.793 0 17.447-9.033 21.444-17.028l-17.888-8.944c-1.625 3.248-2.973 4.953-3.827 5.738-.733.674-.588.234.271.234zm21.366-16.874c4.92-9.431 7.134-20.442 7.134-32.626h-20c0 9.816-1.786 17.472-4.866 23.374zm7.134-32.626c0-5.732-2.006-16.1-5.272-29.816l-19.456 4.632c3.401 14.284 4.728 22.249 4.728 25.184zm-5.312-29.978-52.5-205.25-19.376 4.956 52.5 205.25zm-52.289-204.186c-.308-2.162-.399-3.453-.399-4.086h-20c0 2.033.243 4.409.601 6.914zm-.399-4.086c0-1.227.064-2.11.144-2.708.086-.631.161-.719.061-.472-.093.228-.537 1.24-1.745 2.232-1.378 1.133-3.094 1.698-4.71 1.698v-20c-2.866 0-5.676.95-7.992 2.854-2.145 1.764-3.37 3.931-4.088 5.701-1.362 3.359-1.67 7.233-1.67 10.695zm-6.25.75h23.75v-20h-23.75zm23.75 0c-.488 0-1.164-.132-1.82-.5-.612-.344-.845-.691-.81-.64.054.077.303.472.615 1.39.308.906.623 2.158.891 3.83l19.748-3.16c-.767-4.797-2.152-9.648-4.869-13.53-3.047-4.352-7.778-7.39-13.755-7.39zm-1.015 4.656 37.75 171 19.53-4.312-37.75-171zm38.117 172.261c.356.98.733 1.962 1.107 2.784.164.361.481 1.036.933 1.746.203.319.688 1.057 1.463 1.831.345.345 2.875 2.972 7.145 2.972v-20c2.285 0 4.008.775 4.976 1.335.981.568 1.654 1.184 2.021 1.551.717.717 1.137 1.369 1.268 1.573.306.481.445.813.401.715-.043-.095-.208-.488-.518-1.341zm10.648 9.333c2.716 0 5.261-1.028 7.195-2.8 1.715-1.572 2.545-3.347 2.953-4.47.776-2.133.852-4.236.852-5.48h-20c0 .59-.09-.139.352-1.355.242-.664.863-2.096 2.328-3.438 1.684-1.544 3.937-2.457 6.32-2.457zm10.838-10.959 31-170.25-19.676-3.582-31 170.25zm31.076-170.732c.242-1.831.541-3.233.848-4.271.312-1.057.579-1.552.664-1.69.075-.119-.147.285-.838.716-.765.476-1.626.686-2.338.686v-20c-6.357 0-11.027 3.571-13.801 8.027-2.483 3.987-3.708 8.952-4.363 13.914zm-1.664-4.559h17v-20h-17zm17 0c-1.411 0-2.992-.471-4.312-1.506-1.174-.921-1.614-1.872-1.704-2.083-.091-.214 0-.082.099.617.095.665.167 1.636.167 2.972h20c0-3.738-.352-7.866-1.859-11.411-.798-1.878-2.124-4.079-4.36-5.833-2.383-1.868-5.203-2.756-8.031-2.756zm-5.75 0c0-.255.011-.444.014-.506.005-.082.01-.136.011-.149.002-.024 0 .001-.011.098-.021.189-.058.498-.118.951-.117.898-.297 2.205-.545 3.942l19.798 2.828c.252-1.763.447-3.164.58-4.183.073-.567.271-1.986.271-2.981zm-.567 3.848-45 232.25 19.634 3.804 45-232.25zm-45.024 232.374c-4.639 25.682-10.265 41.532-15.99 49.388l16.162 11.78c8.608-11.811 14.816-31.628 19.51-57.612zm-16.056 49.479c-5.281 7.419-11.815 10.945-20.281 11.308l.856 19.982c14.867-.637 27-7.444 35.719-19.692zm-19.853 11.299h-3.25v20h3.25zm-3.25 0c-12.376 0-16.243-3.174-17.425-5.145l-17.15 10.29c6.818 11.363 20.285 14.855 34.575 14.855zm-17.258-4.856c.283.51.362.829.346.773-.009-.031-.061-.235-.121-.668-.122-.883-.217-2.261-.217-4.249h-20c0 2.512.114 4.884.408 7.001.268 1.933.792 4.5 2.1 6.855zm.008-4.144c0-2.308.103-4.16.275-5.607.175-1.481.395-2.31.524-2.674.15-.422.021.212-.858 1.038-1.108 1.04-2.733 1.743-4.441 1.743v-20c-3.541 0-6.771 1.349-9.253 3.68-2.255 2.118-3.529 4.69-4.296 6.851-1.5 4.226-1.951 9.486-1.951 14.969zm-4.5-5.5c-.522 0-.914-.044-1.055-.061-.18-.021-.306-.042-.354-.05-.092-.016-.098-.02.026.008.239.054.664.158 1.324.333 1.302.344 3.212.881 5.771 1.623l5.576-19.206c-2.608-.758-4.697-1.346-6.229-1.752-.757-.2-1.457-.377-2.051-.51-.126-.029-1.553-.385-3.008-.385zm5.712 1.853c5.04 1.464 9.919 2.647 13.538 2.647v-20c.036 0-.564-.021-2.139-.35-1.457-.305-3.382-.795-5.823-1.503z"/></g></svg>