<svg height="64" viewBox="0 0 64 64" width="64" xmlns="http://www.w3.org/2000/svg"><path d="m64 0v64h-64v-64zm-19.1782526 23.0601483-1.0958239.0059792c-.5164624.0074765-.8258936.2561957-.9655975.7508942-.1484722.5259743-.1522691 1.0598165-.0186716 1.5857908.8540379 3.3620551 1.7172355 6.7218006 2.5735437 10.0832685.8017419 3.1470777 1.6017615 6.2945859 2.3958704 9.4435817.2177957.863863.3507278 1.7354764.1808049 2.6306935-.1108551.5841811-.307748 1.1274961-.6373774 1.6240343-.1125774.1695706-.2512245.2355278-.4469431.1842104-.1636991-.0429407-.3279462-.0838459-.4914104-.1278826-.2450006-.0659572-.4881223-.1395865-.7345321-.1998679-.6939792-.1698055-1.1881297.1065884-1.4046337.7928563-.1874984.5942801-.2068354 1.2071144-.1355547 1.8192049.0279486.2402251.0896.4949333.2071878.70263.2691522.4755572.6970715.7802128 1.2068795.9739743.7103021.2699351 1.4503535.2997235 2.1958458.2734581.5605383-.0197285 1.0958288-.1592759 1.5944025-.4157456.9339694-.4804893 1.5455511-1.2585884 1.9826691-2.1906789.5319242-1.1342287.8392024-2.338603 1.0821284-3.5595743.409052-2.0561419.8010373-4.1156501 1.2000294-6.1737884l1.4642887-7.5552098c.5042104-2.601414 1.0091254-5.2027107 1.5121223-7.8043987.114926-.5945542.2386202-1.1859377.1339107-1.8010031-.1219719-.7164477-.4786495-1.0400489-1.2033566-1.0401664-.521825-.0000782-1.0438067-.0027792-1.5653186.0109211-.2743193.0071633-.5133309.1159438-.7191878.3086092-.3589089.3359315-.493759.7758679-.580893 1.232597-.185463.9722519-.3544464 1.9475963-.5315327 2.921414l-1.1581064 6.3612869c-.2088318 1.1463633-.4183682 2.29257-.6371817 3.4914642-.027518-.0953933-.0445455-.1442055-.0556232-.1943095-.8110581-3.6739523-1.6204722-7.3482569-2.4332526-11.021896-.1503511-.6796917-.280778-1.3664294-.480411-2.0319119-.2031168-.67703-.6350679-1.0750435-1.3383633-1.0769615-.7305786-.0020355-1.4612746-.0080636-2.1917358.0025052zm-8.7282155-9.9068268-.1652353.0013902c-.4686679.0219988-.9392538-.0005871-1.4088612.0053627-.6088024.0077113-.9898275.2659425-1.1608073.8526288-.1006777.3455217-.1474153.7141773-.1659303 1.0750825-.1216195 2.3708184-.2285602 4.7423805-.3413333 7.1136685-.0134654.2835964-.0330373.5669187-.0508086.8683254-.3872098 0-.7521859-.0086116-1.116614.0024661-.3513542.0106862-.659063.1453015-.8413554.4530104-.1169223.1972844-.2291082.4272929-.2441003.6493553-.0429015.6358116-.0535486 1.2754593-.0398483 1.9127976.0071241.3314299.1082324.6565969.3238361.9265712.2604232.3261456.6270434.3996967 1.0153492.4077211.2922471.0060282.5847291.0011743.9069211.0011743v.2839487c0 3.7184195-.0060281 7.4368.0041101 11.1551804.0026226.9578471.0312367 1.9172208.0928489 2.8729541.0647046 1.0039584.2601493 1.9892453.6191364 2.9337052.68983 1.8148208 2.0097957 2.808367 3.9443964 2.9447046.3831388.0270092.7676574.0354251 1.1525578.0376785l1.1548477.0007033c.3124061.0014665.6268477-.0031133.9369443-.0364638.5228037-.0561321.9019107-.4088954.9952294-.9299767.128548-.7178569.1152782-1.4453823.0271657-2.1631609-.0808318-.6582018-.5149358-1.0058373-1.1780306-1.0194984-.5542752-.01143-1.1088636-.0067719-1.6633345-.0075156-.707249-.0010178-.8588135-.1114031-1.1013089-.7792734-.318904-.8783854-.3871706-1.7934875-.3884624-2.7146961-.0059498-4.1228134-.0036403-8.245666-.0037969-12.3685186-.0000392-.0632954.0058715-.1265908.0095119-.2000245.0698324-.0036403.1271388-.0091988.1844453-.0092379.7567266-.0006654 1.5134923.0039927 2.2701798-.0019963.6984416-.0054802 1.1916917-.4164893 1.2509162-1.1140698.0544098-.6407437.0690104-1.2901382.0329199-1.9319388-.0409835-.729874-.4095217-1.3627498-1.4519193-1.3190263-.6902997.0289272-1.3827914.0054801-2.0742654.0054801h-.2221799l.0002055-4.0470067-.0019669-3.7868673c-.000274-.2604232-.0099034-.5225688-.0405529-.7808783-.0867425-.7313223-.4545762-1.338011-1.4260453-1.2923694zm-9.3784796 1.0565565c-.13074-.7709358-.6996942-1.1448367-1.4661676-.9710777-.3173382.0719462-.6315058.1582972-.9463388.2409688-1.4857003.3901064-2.9712049.7809957-4.4566312 1.1721199-.5871951.1546177-.933578.534625-1.0011401 1.1356379-.040592.3612183-.040866.7283474-.0388697 1.0926972.0029749.540575-.0070067 1.0840074.0448196 1.6208245.0732771.7591927.6872856 1.2709969 1.4985394 1.0212599.4094435-.1260036.8312563-.2118067 1.2736196-.3223486l-.0002397 20.3614141.008499 5.9299033c.0011744.3927682.0632172.7946178.1611156 1.1757994.1725456.6717456.5619083.9422501 1.2506814.9422501h2.2701798c.748389 0 1.1406092-.2688996 1.3119413-.9934501.1038874-.4393492.1576318-.9010495.1580232-1.3528073.0085725-10.0853823.0071242-20.1708037.0036013-30.2562251-.0000783-.2658642-.0271267-.5346251-.0716331-.7969663zm-12.579621-1.0040268-.1382633.0089305c-.333622.0353859-.6607461.1415046-.9879877.2265639-1.5116526.3929248-3.02279635.7877676-4.53311807 1.1858593-.72447217.1909823-1.07915351.6235988-1.10126972 1.3713224-.01945444.6582018-.01663609 1.3172256-.01362202 1.9758189.00097859.2075009.01777125.4180159.05597553.621759.13481101.7189138.71605627 1.1536832 1.46679389.931386.415863-.1231462.84112049-.2147034 1.29624469-.3290422l.000548 25.8857101c.0000391.2412819-.0146398.4856954.0180452.723063.0477162.3464611.095041.7008293.2093798 1.0285406.1934875.5545493.5480123.7722276 1.1350117.773167.782718.0012135 1.5654752.0006697 2.3481932.0003131.7166826-.0001565 1.1036575-.2572917 1.2752636-.9596477.1131254-.4629529.1671046-.9517798.1675352-1.4291376.0091596-10.0580991.0073982-20.1161981.0044624-30.1742972-.0001174-.272597-.021255-.5475817-.0605945-.8173603-.102948-.7058006-.5735731-1.0890177-1.2808612-1.0140183z" fill="#222" fill-rule="evenodd"/></svg>