<svg xmlns="http://www.w3.org/2000/svg" xmlns:xlink="http://www.w3.org/1999/xlink" version="1.1" x="0px" y="0px" viewBox="0 0 100 100" style="enable-background:new 0 0 100 100;" xml:space="preserve"><g><path d="M99.98,28c0,0,0-0.01,0-0.01V13.2c0-0.91-0.73-1.64-1.64-1.64h-9.07l0-2.99c0-0.91-0.73-1.64-1.64-1.64h-5.36   c-0.43,0-0.85,0.17-1.16,0.48c-0.31,0.31-0.48,0.72-0.48,1.16l0,2.99H65.97l0-2.99c0-0.91-0.73-1.64-1.64-1.64h-5.36   c-0.43,0-0.85,0.17-1.16,0.48c-0.31,0.31-0.48,0.72-0.48,1.16l0,2.99H42.67l0-2.99c0-0.91-0.73-1.64-1.64-1.64h-5.36   c-0.43,0-0.85,0.17-1.16,0.48c-0.31,0.31-0.48,0.72-0.48,1.16l0,2.99H19.36l0-2.99c0-0.91-0.73-1.64-1.64-1.64h-5.36   c-0.43,0-0.85,0.17-1.16,0.48c-0.31,0.31-0.48,0.72-0.48,1.16l0,2.99H1.66c-0.91,0-1.64,0.73-1.64,1.64v14.78c0,0.01,0,0.01,0,0.02   s0,0.01,0,0.02v63.41c0,0.91,0.73,1.64,1.64,1.64h96.68c0.91,0,1.64-0.73,1.64-1.64V28.02C99.98,28.01,99.98,28.01,99.98,28z    M85.99,10.21l0,2.99c0,0,0,0,0,0.01s0,0,0,0.01l0,6.08h-2.08l0-9.08H85.99z M62.69,10.21l0,2.99c0,0,0,0,0,0.01s0,0,0,0.01l0,6.08   h-2.08l0-9.08H62.69z M39.39,10.21l0,2.99c0,0,0,0,0,0.01s0,0,0,0.01l0,6.08h-2.08l0-9.08H39.39z M16.08,10.21l0,2.99   c0,0,0,0,0,0.01c0,0,0,0,0,0.01l0,6.08h-2.08l0-9.08H16.08z M10.73,14.84l0,6.08c0,0.91,0.73,1.64,1.64,1.64h5.36   c0.43,0,0.85-0.17,1.16-0.48c0.31-0.31,0.48-0.72,0.48-1.16l0-6.08h14.67l0,6.08c0,0.91,0.73,1.64,1.64,1.64h5.36   c0.43,0,0.85-0.17,1.16-0.48c0.31-0.31,0.48-0.72,0.48-1.16l0-6.08h14.67l0,6.08c0,0.91,0.73,1.64,1.64,1.64h5.36   c0.43,0,0.85-0.17,1.16-0.48c0.31-0.31,0.48-0.72,0.48-1.16l0-6.08h14.67l0,6.08c0,0.91,0.73,1.64,1.64,1.64h5.36   c0.43,0,0.85-0.17,1.16-0.48c0.31-0.31,0.48-0.72,0.48-1.16l0-6.08h7.43v11.52H3.3V14.84H10.73z M3.3,89.79V29.64H96.7v60.15H3.3z"></path><path d="M38.27,33.95h-9.44c-0.91,0-1.64,0.73-1.64,1.64v9.44c0,0.91,0.73,1.64,1.64,1.64h9.44c0.91,0,1.64-0.73,1.64-1.64v-9.44   C39.91,34.68,39.17,33.95,38.27,33.95z M36.63,43.39h-6.16v-6.16h6.16V43.39z"></path><path d="M54.72,33.95h-9.44c-0.91,0-1.64,0.73-1.64,1.64v9.44c0,0.91,0.73,1.64,1.64,1.64h9.44c0.91,0,1.64-0.73,1.64-1.64v-9.44   C56.36,34.68,55.63,33.95,54.72,33.95z M53.08,43.39h-6.16v-6.16h6.16V43.39z"></path><path d="M71.18,33.95h-9.44c-0.91,0-1.64,0.73-1.64,1.64v9.44c0,0.91,0.73,1.64,1.64,1.64h9.44c0.91,0,1.64-0.73,1.64-1.64v-9.44   C72.82,34.68,72.08,33.95,71.18,33.95z M69.54,43.39h-6.16v-6.16h6.16V43.39z"></path><path d="M82.91,33.95c-3.51,0-6.36,2.85-6.36,6.36c0,3.51,2.85,6.36,6.36,6.36s6.36-2.85,6.36-6.36   C89.27,36.8,86.42,33.95,82.91,33.95z M82.91,43.39c-1.7,0-3.08-1.38-3.08-3.08c0-1.7,1.38-3.08,3.08-3.08s3.08,1.38,3.08,3.08   C85.99,42.01,84.61,43.39,82.91,43.39z"></path><path d="M21.81,49.87h-9.44c-0.91,0-1.64,0.73-1.64,1.64v9.44c0,0.91,0.73,1.64,1.64,1.64h9.44c0.91,0,1.64-0.73,1.64-1.64v-9.44   C23.45,50.61,22.72,49.87,21.81,49.87z M20.17,59.32h-6.16v-6.16h6.16V59.32z"></path><path d="M38.27,49.87h-9.44c-0.91,0-1.64,0.73-1.64,1.64v9.44c0,0.91,0.73,1.64,1.64,1.64h9.44c0.91,0,1.64-0.73,1.64-1.64v-9.44   C39.91,50.61,39.17,49.87,38.27,49.87z M36.63,59.32h-6.16v-6.16h6.16V59.32z"></path><path d="M54.72,49.87h-9.44c-0.91,0-1.64,0.73-1.64,1.64v9.44c0,0.91,0.73,1.64,1.64,1.64h9.44c0.91,0,1.64-0.73,1.64-1.64v-9.44   C56.36,50.61,55.63,49.87,54.72,49.87z M53.08,59.32h-6.16v-6.16h6.16V59.32z"></path><path d="M71.18,49.87h-9.44c-0.91,0-1.64,0.73-1.64,1.64v9.44c0,0.91,0.73,1.64,1.64,1.64h9.44c0.91,0,1.64-0.73,1.64-1.64v-9.44   C72.82,50.61,72.08,49.87,71.18,49.87z M69.54,59.32h-6.16v-6.16h6.16V59.32z"></path><path d="M82.91,49.87c-3.51,0-6.36,2.85-6.36,6.36c0,3.51,2.85,6.36,6.36,6.36s6.36-2.85,6.36-6.36   C89.27,52.73,86.42,49.87,82.91,49.87z M82.91,59.32c-1.7,0-3.08-1.38-3.08-3.08c0-1.7,1.38-3.08,3.08-3.08s3.08,1.38,3.08,3.08   C85.99,57.93,84.61,59.32,82.91,59.32z"></path><path d="M21.81,65.8h-9.44c-0.91,0-1.64,0.73-1.64,1.64v9.44c0,0.91,0.73,1.64,1.64,1.64h9.44c0.91,0,1.64-0.73,1.64-1.64v-9.44   C23.45,66.53,22.72,65.8,21.81,65.8z M20.17,75.24h-6.16v-6.16h6.16V75.24z"></path><path d="M38.27,65.8h-9.44c-0.91,0-1.64,0.73-1.64,1.64v9.44c0,0.91,0.73,1.64,1.64,1.64h9.44c0.91,0,1.64-0.73,1.64-1.64v-9.44   C39.91,66.53,39.17,65.8,38.27,65.8z M36.63,75.24h-6.16v-6.16h6.16V75.24z"></path><path d="M54.72,65.8h-9.44c-0.91,0-1.64,0.73-1.64,1.64v9.44c0,0.91,0.73,1.64,1.64,1.64h9.44c0.91,0,1.64-0.73,1.64-1.64v-9.44   C56.36,66.53,55.63,65.8,54.72,65.8z M53.08,75.24h-6.16v-6.16h6.16V75.24z"></path><path d="M71.18,65.8h-9.44c-0.91,0-1.64,0.73-1.64,1.64v9.44c0,0.91,0.73,1.64,1.64,1.64h9.44c0.91,0,1.64-0.73,1.64-1.64v-9.44   C72.82,66.53,72.08,65.8,71.18,65.8z M69.54,75.24h-6.16v-6.16h6.16V75.24z"></path></g></svg>