<svg id="Layer_1" data-name="Layer 1" xmlns="http://www.w3.org/2000/svg" viewBox="0 0 274.96 276"><defs><style>.cls-1{fill:#0083fc;fill-rule:evenodd;}</style></defs><path class="cls-1" d="M0,37.64A37.57,37.57,0,0,1,37.49,0H100a37.2,37.2,0,0,1,12.54,2.16c18.86,6.71,36.2,22.93,56.2,22.93s37.35-16.22,56.2-22.93a37.5,37.5,0,0,1,50,35.48,37.52,37.52,0,0,1-50,35.48c-18.85-6.72-36.19-22.94-56.2-22.94s-37.34,16.22-56.2,22.94A37.45,37.45,0,0,1,100,75.27H37.49A37.57,37.57,0,0,1,0,37.64ZM0,138a37.48,37.48,0,0,1,52.93-34.31c16.52,7.5,32.05,21.77,50.18,21.77s33.66-14.27,50.18-21.77a37.16,37.16,0,0,1,15.43-3.33,37.64,37.64,0,0,1,0,75.28,37.16,37.16,0,0,1-15.43-3.33c-16.52-7.5-32-21.77-50.18-21.77s-33.66,14.27-50.18,21.77A37.48,37.48,0,0,1,0,138Zm37.49,62.73A37.64,37.64,0,1,0,75,238.36,37.57,37.57,0,0,0,37.49,200.73Z"/></svg>