<svg enable-background="new -389.5 57.5 381 381" viewBox="-389.5 57.5 381 381" xmlns="http://www.w3.org/2000/svg"><path d="m-56 248h-91v26h62.4c-9.1 39-37.7 71.5-75.4 84.5l-149.5-149.5c15.6-45.5 59.8-78 110.5-78 39 0 74.1 19.5 96.2 49.4l19.5-16.9c-26-35.1-67.6-58.5-115.7-58.5-67.6 0-124.8 48.1-139.1 111.8l171.6 171.6c62.4-15.6 110.5-72.8 110.5-140.4zm-286 1.3c0 36.4 14.3 71.5 41.6 98.8s63.7 41.6 98.8 41.6z" fill="#fff"/><path d="m-199 66c-100.1 0-182 81.9-182 182s81.9 182 182 182 182-81.9 182-182-81.9-182-182-182zm-101.4 283.4c-27.3-27.3-41.6-63.7-41.6-98.8l141.7 140.4c-36.4-1.3-72.8-14.3-100.1-41.6zm132.6 37.7-170.3-170.3c14.3-63.7 71.5-111.8 139.1-111.8 48.1 0 89.7 23.4 115.7 58.5l-19.5 16.9c-22.1-29.9-57.2-49.4-96.2-49.4-50.7 0-93.6 32.5-110.5 78l149.5 149.5c37.7-13 66.3-45.5 75.4-84.5h-62.4v-26h91c0 67.6-48.1 124.8-111.8 139.1z" fill="#639"/></svg>