<svg xmlns="http://www.w3.org/2000/svg" viewBox="0 0 24 24"><defs><linearGradient id="ghost-gradient" x1="50%" x2="50%" y1="0%" y2="100%"><stop stop-color="#393F43" offset="0%"/><stop stop-color="#2D3335" offset="100%"/></linearGradient></defs><g fill="none" fill-rule="evenodd"><rect width="24" height="24" fill="url(#ghost-gradient)" rx="4.31"/><path fill="#FFFFFF" d="M17.43 15.67c.32 0 .58.25.58.57v1.3c0 .31-.26.57-.58.57h-3.68a.57.57 0 0 1-.58-.57v-1.3c0-.32.26-.57.58-.57h3.68zm-7.25 0c.32 0 .58.25.58.57v1.3c0 .31-.26.57-.58.57H6.5a.57.57 0 0 1-.58-.57v-1.3c0-.32.26-.57.58-.57h3.68zm7.25-4.9c.32 0 .58.26.58.58v1.3c0 .31-.26.57-.58.57H6.5a.57.57 0 0 1-.57-.57v-1.3c0-.32.26-.57.57-.57h10.94zm0-4.88c.32 0 .58.25.58.57v1.3c0 .31-.26.57-.58.57h-1.26a.57.57 0 0 1-.58-.57v-1.3c0-.32.26-.57.58-.57h1.26zm-4.83 0c.32 0 .58.25.58.57v1.3c0 .31-.26.57-.58.57H6.5a.57.57 0 0 1-.58-.57v-1.3c0-.32.26-.57.58-.57h6.1z"/></g></svg>
