<svg viewBox="0 0 24 24" xmlns="http://www.w3.org/2000/svg" xmlns:xlink="http://www.w3.org/1999/xlink"><linearGradient id="a" x1="50%" x2="50%" y1="0%" y2="100%"><stop offset="0" stop-color="#393f43"/><stop offset="1" stop-color="#2d3335"/></linearGradient><g fill="none" fill-rule="evenodd"><rect fill="url(#a)" height="24" rx="4.31" width="24"/><path d="m17.43 15.67c.32 0 .58.25.58.57v1.3c0 .31-.26.57-.58.57h-3.68a.57.57 0 0 1 -.58-.57v-1.3c0-.32.26-.57.58-.57zm-7.25 0c.32 0 .58.25.58.57v1.3c0 .31-.26.57-.58.57h-3.68a.57.57 0 0 1 -.58-.57v-1.3c0-.32.26-.57.58-.57zm7.25-4.9c.32 0 .58.26.58.58v1.3c0 .31-.26.57-.58.57h-10.93a.57.57 0 0 1 -.57-.57v-1.3c0-.32.26-.57.57-.57h10.94zm0-4.88c.32 0 .58.25.58.57v1.3c0 .31-.26.57-.58.57h-1.26a.57.57 0 0 1 -.58-.57v-1.3c0-.32.26-.57.58-.57zm-4.83 0c.32 0 .58.25.58.57v1.3c0 .31-.26.57-.58.57h-6.1a.57.57 0 0 1 -.58-.57v-1.3c0-.32.26-.57.58-.57z" fill="#fff"/></g></svg>