<svg enable-background="new 0 0 1000 1000" viewBox="0 0 1000 1000" xmlns="http://www.w3.org/2000/svg"><path d="m4553.4 4863.8c-619.6-51.6-1218.5-223.7-1769.3-499.1-805.5-406.2-1404.4-946.6-1903.6-1707.3-358-543.9-602.4-1160-722.9-1827.8-79.1-430.3-75.6-1277.1 3.5-1693.6 330.5-1724.5 1483.6-3122.1 3077.3-3721 261.6-99.8 364.9-103.3 454.4-13.8 62 62 68.8 113.6 68.8 526.7v454.4h-437.2c-378.6 0-464.7 10.3-602.4 75.7-271.9 123.9-454.4 323.5-626.5 681.6-151.5 316.7-344.2 554.2-581.7 722.9s-51.6 299.5 285.7 203.1c148-44.8 230.6-96.4 378.6-251.3 103.3-106.7 244.4-268.5 309.8-361.4 75.7-106.7 189.3-206.5 309.8-275.4 165.2-92.9 220.3-106.7 447.5-103.3 141.1 3.5 316.7 27.6 389 51.6 120.5 44.8 137.7 72.3 206.5 275.4 41.3 120.5 110.2 268.5 154.9 323.6l79.2 99.8-354.6 75.7c-636.8 134.3-998.2 320.1-1325.2 681.6-337.3 368.3-526.7 943.1-526.7 1604 0 516.3 99.8 846.8 368.3 1211.7l117 161.8-41.3 210c-72.3 375.2 27.5 1039.6 165.2 1091.2 144.6 55.1 729.7-158.3 1122.1-409.6l161.8-103.3 320.1 62c440.6 89.5 1394.1 92.9 1834.7 3.4l313.3-65.4 302.9 175.6c337.3 192.8 647.1 306.4 874.3 320.1l154.9 10.3 65.4-172.1c86.1-220.3 117.1-709.1 58.5-939.7l-41.3-175.6 154.9-234.1c275.4-419.9 316.7-571.4 316.7-1163.5-3.4-433.7-13.8-561.1-79.2-791.7-192.8-671.2-602.4-1108.4-1253-1345.9-82.6-31-306.4-89.5-502.5-130.8l-354.6-75.7 75.7-92.9c41.3-55.1 106.7-179 144.6-275.4 68.8-161.8 75.7-261.6 86.1-1074 6.9-599 24.1-908.8 51.6-939.7 117.1-144.6 278.8-117.1 836.5 148 671.2 313.2 1363.1 881.2 1820.9 1493.9 426.8 564.5 771.1 1363.1 898.4 2068.8 79.2 437.2 79.2 1215.1 0 1652.3-199.6 1105-815.8 2182.4-1655.7 2888-1022 867.3-2323.2 1287.2-3631.2 1170.2z" transform="matrix(.1 0 0 -.1 0 511)"/></svg>