<svg width="381" height="381" viewBox="0 0 381 381" fill="none" xmlns="http://www.w3.org/2000/svg">
<path d="M248.542 136.745C247.204 131.287 245.094 126.499 242.213 122.38C239.331 118.158 235.729 114.605 231.407 111.721C227.188 108.735 222.248 106.521 216.588 105.079C211.031 103.535 204.907 102.762 198.218 102.762C183.811 102.762 171.513 106.212 161.325 113.112C151.24 120.011 143.521 129.949 138.17 142.924C132.922 155.899 130.297 171.552 130.297 189.882C130.297 208.418 132.819 224.277 137.861 237.458C142.904 250.639 150.416 260.731 160.399 267.734C170.381 274.736 182.782 278.238 197.601 278.238C210.67 278.238 221.528 276.333 230.172 272.522C238.919 268.712 245.454 263.306 249.776 256.303C254.099 249.301 256.26 241.062 256.26 231.588L271.079 233.133H198.836V171.964H339V215.833C339 244.667 332.877 269.33 320.63 289.823C308.487 310.212 291.713 325.865 270.307 336.781C249.005 347.594 224.563 353 196.983 353C166.213 353 139.199 346.461 115.941 333.383C92.6835 320.304 74.5197 301.665 61.4501 277.465C48.4834 253.265 42 224.483 42 191.118C42 164.961 45.9621 141.791 53.8862 121.607C61.9132 101.424 73.0275 84.3807 87.2292 70.4786C101.431 56.4735 117.845 45.9183 136.472 38.8127C155.099 31.6042 175.063 28 196.366 28C215.096 28 232.488 30.6774 248.542 36.0323C264.699 41.2842 278.952 48.8016 291.301 58.5846C303.753 68.2646 313.787 79.7467 321.402 93.0309C329.018 106.315 333.649 120.887 335.295 136.745H248.542Z" fill="black"/>
</svg>
