<svg fill="none" height="245" viewBox="0 0 245 245" width="245" xmlns="http://www.w3.org/2000/svg" xmlns:xlink="http://www.w3.org/1999/xlink"><linearGradient id="a" gradientUnits="userSpaceOnUse" x1="122.359" x2="122.359" y1="244.718" y2="138.843"><stop offset="0" stop-color="#00a672"/><stop offset="1" stop-color="#006b4a"/></linearGradient><path d="m221.494 101.381c11.78-.566 22.207 8.572 23.224 20.362 4.406 57.037-47.793 120.931-121.352 122.974-61.9889 1.53-123.2976406-48.098-123.2976406-123.137 0-11.826 9.7722306-21.413 21.5654406-21.413 11.7932 0 21.3535 9.587 21.3535 21.413 0 49.359 39.6877 81.303 79.3287 80.325 48.799-1.356 80.523-43.61 78.873-78.11-.566-11.812 8.526-21.847 20.305-22.414z" fill="url(#a)"/><g fill="#00a672"><path d="m168.15 123.24c0-12.107 9.876-21.922 22.058-21.922h32.146c12.183 0 22.364 9.815 22.364 21.922 0 12.108-10.181 21.923-22.364 21.923h-32.146c-12.182 0-22.058-9.815-22.058-21.923z"/><path d="m100.7 123.272c0-12.125 9.813-21.954 21.904-21.954 12.092 0 21.905 9.829 21.905 21.954s-9.813 21.955-21.905 21.955c-12.091 0-21.904-9.83-21.904-21.955z"/><path clip-rule="evenodd" d="m143.902 20.6961c.49 11.8158-8.666 21.7922-20.449 22.2829-50.8655 2.1183-81.9184 42.0967-80.4069 80.057.4705 11.816-8.5094 21.778-20.2933 22.25-11.7838.472-22.146414-9.065-22.616927-20.881-2.463143-61.8602 49.044627-123.01376 121.545127-124.214743 11.783-.490703 21.732 8.690083 22.221 20.505843z" fill-rule="evenodd"/></g></svg>