<svg xmlns="http://www.w3.org/2000/svg" xmlns:xlink="http://www.w3.org/1999/xlink" aria-hidden="true" focusable="false" width="0.87em" height="1em" style="-ms-transform: rotate(360deg); -webkit-transform: rotate(360deg); transform: rotate(360deg);" preserveAspectRatio="xMidYMid meet" viewBox="0 0 256 295"><path d="M128.04 0L.574 73.768l.016 147.311 127.754 73.465 127.464-73.769.002-147.23L128.039 0z" fill="#0E83CD"/><path d="M68.242 211.051l.01-63.7.01-63.702 11.573-6.768 11.085 6.56.12 26.03.12 26.031H165.234l.12-26.013.12-26.014 11.257-6.505 11.412 6.68-.006 63.658-.005 63.659-11.298 6.31-11.361-6.392-.12-25.885-.12-25.886H91.16l-.12 25.878.034 26.008-11.36 6.663-11.47-6.612z" fill="#FFF"/></svg>