<svg xmlns="http://www.w3.org/2000/svg" width="64" height="64" viewBox="0 0 64 64">
  <g fill="none" fill-rule="evenodd">
    <path fill="#FF00B9" fill-rule="nonzero" d="M30.5,6.75277675 L10.8852633,18.0773503 C9.95706006,18.6132487 9.38526329,19.6036297 9.38526329,20.6754265 L9.38526329,43.3245735 C9.38526329,44.3963703 9.95706006,45.3867513 10.8852633,45.9226497 L30.5,57.2472233 C31.4282032,57.7831216 32.5717968,57.7831216 33.5,57.2472233 L53.1147367,45.9226497 C54.0429399,45.3867513 54.6147367,44.3963703 54.6147367,43.3245735 L54.6147367,20.6754265 C54.6147367,19.6036297 54.0429399,18.6132487 53.1147367,18.0773503 L33.5,6.75277675 C32.5717968,6.21687836 31.4282032,6.21687836 30.5,6.75277675 Z"/>
    <polygon fill="#FFF" points="25.8 33.818 25.8 48.371 19.627 48.371 19.627 15.586 25.8 15.586 25.8 27.77 37.775 27.77 37.775 15.586 43.948 15.586 43.948 48.371 37.775 48.371 37.775 33.818"/>
    <path fill="#E1007E" fill-rule="nonzero" d="M33.5,0.979274058 L58.1147367,15.1905989 C59.0429399,15.7264973 59.6147367,16.7168784 59.6147367,17.7886751 L59.6147367,46.2113249 C59.6147367,47.2831216 59.0429399,48.2735027 58.1147367,48.8094011 L33.5,63.0207259 C32.5717968,63.5566243 31.4282032,63.5566243 30.5,63.0207259 L5.88526329,48.8094011 C4.95706006,48.2735027 4.38526329,47.2831216 4.38526329,46.2113249 L4.38526329,17.7886751 C4.38526329,16.7168784 4.95706006,15.7264973 5.88526329,15.1905989 L30.5,0.979274058 C31.4282032,0.443375673 32.5717968,0.443375673 33.5,0.979274058 Z M30.5,6.75277675 L10.8852633,18.0773503 C9.95706006,18.6132487 9.38526329,19.6036297 9.38526329,20.6754265 L9.38526329,43.3245735 C9.38526329,44.3963703 9.95706006,45.3867513 10.8852633,45.9226497 L30.5,57.2472233 C31.4282032,57.7831216 32.5717968,57.7831216 33.5,57.2472233 L53.1147367,45.9226497 C54.0429399,45.3867513 54.6147367,44.3963703 54.6147367,43.3245735 L54.6147367,20.6754265 C54.6147367,19.6036297 54.0429399,18.6132487 53.1147367,18.0773503 L33.5,6.75277675 C32.5717968,6.21687836 31.4282032,6.21687836 30.5,6.75277675 Z"/>
  </g>
</svg>
