<svg height="64" viewBox="0 0 64 64" width="64" xmlns="http://www.w3.org/2000/svg"><g fill="none" fill-rule="evenodd"><path d="m30.5 6.75277675-19.6147367 11.32457355c-.92820324.5358984-1.50000001 1.5262794-1.50000001 2.5980762v22.649147c0 1.0717968.57179677 2.0621778 1.50000001 2.5980762l19.6147367 11.3245736c.9282032.5358983 2.0717968.5358983 3 0l19.6147367-11.3245736c.9282032-.5358984 1.5-1.5262794 1.5-2.5980762v-22.649147c0-1.0717968-.5717968-2.0621778-1.5-2.5980762l-19.6147367-11.32457355c-.9282032-.53589839-2.0717968-.53589839-3 0z" fill="#ff00b9" fill-rule="nonzero"/><path d="m25.8 33.818v14.553h-6.173v-32.785h6.173v12.184h11.975v-12.184h6.173v32.785h-6.173v-14.553z" fill="#fff"/><path d="m33.5.97927406 24.6147367 14.21132484c.9282032.5358984 1.5 1.5262795 1.5 2.5980762v28.4226498c0 1.0717967-.5717968 2.0621778-1.5 2.5980762l-24.6147367 14.2113248c-.9282032.5358984-2.0717968.5358984-3 0l-24.61473671-14.2113248c-.92820323-.5358984-1.5-1.5262795-1.5-2.5980762v-28.4226498c0-1.0717967.57179677-2.0621778 1.5-2.5980762l24.61473671-14.21132484c.9282032-.53589839 2.0717968-.53589839 3 0zm-3 5.77350269-19.6147367 11.32457355c-.92820324.5358984-1.50000001 1.5262794-1.50000001 2.5980762v22.649147c0 1.0717968.57179677 2.0621778 1.50000001 2.5980762l19.6147367 11.3245736c.9282032.5358983 2.0717968.5358983 3 0l19.6147367-11.3245736c.9282032-.5358984 1.5-1.5262794 1.5-2.5980762v-22.649147c0-1.0717968-.5717968-2.0621778-1.5-2.5980762l-19.6147367-11.32457355c-.9282032-.53589839-2.0717968-.53589839-3 0z" fill="#e1007e" fill-rule="nonzero"/></g></svg>