<svg height='100px' width='100px'  fill="#000000" xmlns:x="http://ns.adobe.com/Extensibility/1.0/" xmlns:i="http://ns.adobe.com/AdobeIllustrator/10.0/" xmlns:graph="http://ns.adobe.com/Graphs/1.0/" xmlns="http://www.w3.org/2000/svg" xmlns:xlink="http://www.w3.org/1999/xlink" version="1.1" x="0px" y="0px" viewBox="0 0 100 100" enable-background="new 0 0 100 100" xml:space="preserve"><g><g i:extraneous="self"><g><path d="M50,24c14.337,0,26,11.664,26,26c0,14.337-11.663,26-26,26c-14.336,0-26-11.663-26-26C24,35.664,35.664,24,50,24 M50,20     c-16.568,0-30,13.432-30,30s13.432,30,30,30s30-13.432,30-30S66.568,20,50,20L50,20z"></path></g><circle cx="50" cy="35.363" r="3.182"></circle><polygon points="57,67.817 43,67.817 43,65.272 46.819,64 46.819,46.181 43,44.909 43,42.364 46.819,42.364 53.183,42.364     53.183,64 57,65.272   "></polygon></g></g></svg>