<svg fill="#fff" fill-rule="evenodd" height="300" stroke="#000" stroke-linecap="round" stroke-linejoin="round" viewBox="0 0 37 65" width="300" xmlns="http://www.w3.org/2000/svg" xmlns:xlink="http://www.w3.org/1999/xlink"><defs><linearGradient id="a" x1="23.97%" x2="68.77%" y1="46.04%" y2="55.6%"><stop offset="0" stop-color="#919191"/><stop offset="1" stop-color="#fff"/></linearGradient><linearGradient id="b" x1="26.46%" x2="67.19%" y1="42.4%" y2="51.92%"><stop offset="0" stop-color="#900"/><stop offset="1" stop-color="#e80000"/></linearGradient><path id="c" d="m12.7 32.783c0-.302.243-.545.545-.545s.545.243.545.545-.243.545-.545.545-.545-.243-.545-.545z"/><symbol id="d" overflow="visible"><g fill="#fff" fill-rule="nonzero" stroke="none" stroke-linecap="round" stroke-linejoin="round"><path d="m19.863 1.268a.86.86 0 0 0 -.005.368s.4 2.588-.053 3.74l-18.815 48.929c-1.343 3.592.457 7.605 4.046 8.987s7.613-.392 9.024-3.96h.002l18.818-48.93c.368-.957 2.466-2.812 2.466-2.812a.86.86 0 0 0 .243-.276l.01-.02.03-.06c.485-1.262-2.645-3.64-6.99-5.31s-8.263-2.004-8.748-.742c-.008.02-.013.044-.02.066l-.006.02z" fill="#000" opacity=".3"/><path d="m19.32.852a.83.83 0 0 0 -.005.368s.4 2.588-.053 3.74l-18.817 48.93c-1.343 3.592.455 7.604 4.055 8.986s7.613-.393 9.024-3.96l18.82-48.93c.368-.957 2.466-2.812 2.466-2.812a.86.86 0 0 0 .243-.277l.01-.02.03-.06c.485-1.262-2.644-3.64-7-5.31s-8.263-2.003-8.749-.741c-.008.02-.013.044-.02.066l-.006.02z" fill="url(#a)"/><path d="m25.222 22.987-13.562 35.288c-1 2.53-3.914 3.845-6.497 2.85s-3.983-3.965-3.03-6.515l8.67-22.546s1.083-1.747 3.21-3 3.88-.98 6.24-2.03 4.968-4.058 4.968-4.058z" fill="url(#b)"/><path d="m22.282 2.043c.274-.712 2.672-.447 5.378.594s4.664 2.452 4.4 3.163-2.672.447-5.378-.594-4.664-2.45-4.4-3.163z" fill="#333"/><path d="m19.315 1.22s.384 2.603-.053 3.74l-18.817 48.93c-1.343 3.59.455 7.603 4.055 8.985.623.24 1.258.382 1.892.44-2.42-1.82-3.457-5.075-2.347-8.045h-.002l18.434-47.96s-2.51-2.356-3.162-6.1z" opacity=".3"/><use opacity=".5" xlink:href="#c"/><path d="m16.007 36.736a.822.822 0 1 1 1.644 0 .822.822 0 1 1 -1.644 0zm-6.177 4.702a1.542 1.542 0 1 1 3.084 0 1.542 1.542 0 1 1 -3.084 0zm-1.776 2.862a.822.822 0 1 1 1.644 0 .822.822 0 1 1 -1.644 0z" opacity=".5"/><use opacity=".5" x="-1.094" xlink:href="#c" y="17.604"/></g></symbol></defs><use x=".5" xlink:href="#d" y=".5"/></svg>