<svg xmlns="http://www.w3.org/2000/svg" xmlns:xlink="http://www.w3.org/1999/xlink" viewBox="0 0 37 65" fill="#fff" fill-rule="evenodd" stroke="#000" stroke-linecap="round" stroke-linejoin="round" width="300" height="300" font-family="Roboto" font-size="14px" text-anchor="middle"><use xlink:href="#D" x=".5" y=".5"></use><defs><style type="text/css"></style><linearGradient id="A" x1="23.97%" y1="46.04%" x2="68.77%" y2="55.60%"><stop offset="0%" stop-color="#919191"></stop><stop offset="100%" stop-color="#fff"></stop></linearGradient><linearGradient id="B" x1="26.46%" y1="42.40%" x2="67.19%" y2="51.92%"><stop offset="0%" stop-color="#900"></stop><stop offset="100%" stop-color="#e80000"></stop></linearGradient><path id="C" d="M12.7 32.783c0-.302.243-.545.545-.545s.545.243.545.545-.243.545-.545.545-.545-.243-.545-.545z"></path></defs><symbol id="D" overflow="visible"><g stroke="none" fill-rule="nonzero"><path d="M19.863 1.268a.86.86 0 0 0-.005.368s.4 2.588-.053 3.74L.99 54.305c-1.343 3.592.457 7.605 4.046 8.987s7.613-.392 9.024-3.96h.002l18.818-48.93c.368-.957 2.466-2.812 2.466-2.812a.86.86 0 0 0 .243-.276l.01-.02.03-.06c.485-1.262-2.645-3.64-6.99-5.31s-8.263-2.004-8.748-.742c-.008.02-.013.044-.02.066l-.006.02z" fill="#000" opacity=".3"></path><path d="M19.32.852a.83.83 0 0 0-.005.368s.4 2.588-.053 3.74L.445 53.89C-.898 57.482.9 61.494 4.5 62.876s7.613-.393 9.024-3.96l18.82-48.93c.368-.957 2.466-2.812 2.466-2.812a.86.86 0 0 0 .243-.277l.01-.02.03-.06c.485-1.262-2.644-3.64-7-5.31S19.83-.496 19.344.766c-.008.02-.013.044-.02.066l-.006.02z" fill="url(#A)"></path><path d="M25.222 22.987L11.66 58.275c-1 2.53-3.914 3.845-6.497 2.85S1.18 57.16 2.133 54.61l8.67-22.546s1.083-1.747 3.21-3 3.88-.98 6.24-2.03 4.968-4.058 4.968-4.058z" fill="url(#B)"></path><path d="M22.282 2.043c.274-.712 2.672-.447 5.378.594s4.664 2.452 4.4 3.163-2.672.447-5.378-.594-4.664-2.45-4.4-3.163z" fill="#333"></path><path d="M19.315 1.22s.384 2.603-.053 3.74L.445 53.89C-.898 57.48.9 61.493 4.5 62.875c.623.24 1.258.382 1.892.44-2.42-1.82-3.457-5.075-2.347-8.045h-.002L22.477 7.31s-2.51-2.356-3.162-6.1z" opacity=".3"></path><use xlink:href="#C" opacity=".5"></use><path d="M16.007 36.736a.822.822 0 1 1 1.644 0 .822.822 0 1 1-1.644 0zM9.83 41.438a1.542 1.542 0 1 1 3.084 0 1.542 1.542 0 1 1-3.084 0zM8.054 44.3a.822.822 0 1 1 1.644 0 .822.822 0 1 1-1.644 0z" opacity=".5"></path><use xlink:href="#C" x="-1.094" y="17.604" opacity=".5"></use></g></symbol></svg>