<svg height="30" viewBox="0 0 30 30" width="30" xmlns="http://www.w3.org/2000/svg" xmlns:xlink="http://www.w3.org/1999/xlink"><linearGradient id="a" x1="50%" x2="50%" y1="0%" y2="100%"><stop offset="0" stop-color="#fff"/><stop offset="1"/></linearGradient><g fill="none" fill-rule="evenodd"><path d="m4.5 0h21c2.4852814 0 4.5 2.01471863 4.5 4.5v21c0 2.4852814-2.0147186 4.5-4.5 4.5h-21c-2.48528137 0-4.5-2.0147186-4.5-4.5v-21c0-2.48528137 2.01471863-4.5 4.5-4.5z" fill="#309acd"/><path d="m4.5 0c-2.48528137 0-4.5 2.01471863-4.5 4.5v10.5h5.16147451c.51390382 0 .98370072.2903505 1.21352549.75.22394636.4478927.13616322.9888368-.21792706 1.3429271l-.46773311.4677331c-.28130457.2813045-.43933983.6628354-.43933983 1.0606601v.1286797c0 1.2426407 1.00735931 2.25 2.25 2.25s2.25-1.0073593 2.25-2.25v-.1286797c0-.3978247-.15803526-.7793556-.43933983-1.0606601l-.46773311-.4677331c-.35409028-.3540903-.44187342-.8950344-.21792706-1.3429271.22982477-.4596495.69962167-.75 1.21352549-.75h5.16147451v-5.16147451c0-.51390382-.2903505-.98370072-.75-1.21352549-.4478927-.22394636-.9888368-.13616322-1.3429271.21792706l-.4677331.46773311c-.2813045.28130457-.6628354.43933983-1.0606601.43933983h-.1286797c-1.2426407 0-2.25-1.00735931-2.25-2.25s1.0073593-2.25 2.25-2.25h.1286797c.3978247 0 .7793556.15803526 1.0606601.43933983l.4677331.46773311c.3540903.35409028.8950344.44187342 1.3429271.21792706.4596495-.22982477.75-.69962167.75-1.21352549v-5.16147451z" fill="#ffc24b"/><path d="m16.5-3c-2.4852814 0-4.5 2.01471863-4.5 4.5v10.5h5.1614745c.5139038 0 .9837007.2903505 1.2135255.75.2239464.4478927.1361632.9888368-.2179271 1.3429271l-.4677331.4677331c-.2813045.2813045-.4393398.6628354-.4393398 1.0606601v.1286797c0 1.2426407 1.0073593 2.25 2.25 2.25s2.25-1.0073593 2.25-2.25v-.1286797c0-.3978247-.1580353-.7793556-.4393398-1.0606601l-.4677331-.4677331c-.3540903-.3540903-.4418735-.8950344-.2179271-1.3429271.2298248-.4596495.6996217-.75 1.2135255-.75h5.1614745v-5.16147451c0-.51390382-.2903505-.98370072-.75-1.21352549-.4478927-.22394636-.9888368-.13616322-1.3429271.21792706l-.4677331.46773311c-.2813045.28130457-.6628354.43933983-1.0606601.43933983h-.1286797c-1.2426407 0-2.25-1.00735931-2.25-2.25s1.0073593-2.25 2.25-2.25h.1286797c.3978247 0 .7793556.15803526 1.0606601.43933983l.4677331.46773311c.3540903.35409028.8950344.44187342 1.3429271.21792706.4596495-.22982477.75-.69962167.75-1.21352549v-5.16147451z" fill="#96539f" transform="matrix(0 1 -1 0 27 -12)"/><path d="m19.5 9c-2.4852814 0-4.5 2.0147186-4.5 4.5v10.5h5.1614745c.5139038 0 .9837007.2903505 1.2135255.75.2239464.4478927.1361632.9888368-.2179271 1.3429271l-.4677331.4677331c-.2813045.2813045-.4393398.6628354-.4393398 1.0606601v.1286797c0 1.2426407 1.0073593 2.25 2.25 2.25s2.25-1.0073593 2.25-2.25v-.1286797c0-.3978247-.1580353-.7793556-.4393398-1.0606601l-.4677331-.4677331c-.3540903-.3540903-.4418735-.8950344-.2179271-1.3429271.2298248-.4596495.6996217-.75 1.2135255-.75h5.1614745v-5.1614745c0-.5139038-.2903505-.9837007-.75-1.2135255-.4478927-.2239464-.9888368-.1361632-1.3429271.2179271l-.4677331.4677331c-.2813045.2813045-.6628354.4393398-1.0606601.4393398h-.1286797c-1.2426407 0-2.25-1.0073593-2.25-2.25s1.0073593-2.25 2.25-2.25h.1286797c.3978247 0 .7793556.1580353 1.0606601.4393398l.4677331.4677331c.3540903.3540903.8950344.4418735 1.3429271.2179271.4596495-.2298248.75-.6996217.75-1.2135255v-5.1614745z" fill="#80b644" transform="matrix(-1 0 0 -1 45 39)"/><path d="m7.5 12c-2.48528137 0-4.5 2.0147186-4.5 4.5v10.5h5.16147451c.51390382 0 .98370072.2903505 1.21352549.75.22394636.4478927.13616322.9888368-.21792706 1.3429271l-.46773311.4677331c-.28130457.2813045-.43933983.6628354-.43933983 1.0606601v.1286797c0 1.2426407 1.00735931 2.25 2.25 2.25 1.2426407 0 2.25-1.0073593 2.25-2.25v-.1286797c0-.3978247-.1580353-.7793556-.4393398-1.0606601l-.4677331-.4677331c-.3540903-.3540903-.4418735-.8950344-.2179271-1.3429271.2298248-.4596495.6996217-.75 1.2135255-.75h5.1614745v-5.1614745c0-.5139038-.2903505-.9837007-.75-1.2135255-.4478927-.2239464-.9888368-.1361632-1.3429271.2179271l-.4677331.4677331c-.2813045.2813045-.6628354.4393398-1.0606601.4393398h-.1286797c-1.2426407 0-2.25-1.0073593-2.25-2.25s1.0073593-2.25 2.25-2.25h.1286797c.3978247 0 .7793556.1580353 1.0606601.4393398l.4677331.4677331c.3540903.3540903.8950344.4418735 1.3429271.2179271.4596495-.2298248.75-.6996217.75-1.2135255v-5.1614745z" fill="#2293ca" transform="matrix(0 -1 1 0 -12 33)"/><path d="m4.5 0h21c2.4852814 0 4.5 2.01471863 4.5 4.5v21c0 2.4852814-2.0147186 4.5-4.5 4.5h-21c-2.48528137 0-4.5-2.0147186-4.5-4.5v-21c0-2.48528137 2.01471863-4.5 4.5-4.5z" fill="url(#a)" fill-opacity=".3"/></g></svg>