<svg enable-background="new 0 0 56.7 56.7" viewBox="0 0 56.7 56.7" xmlns="http://www.w3.org/2000/svg"><path d="m51.1 35.8c-.3-.7-1-1.2-1.8-1.4-.3-1.3-.7-1.9-.7-2 .1-.2.3-.3.3-.4 1.2-1.4.4-3.5-1.6-4-1.1-1.1-2.1-1.6-3-2-.8-.4-.5-.2-1.2-.6-.2-1-.3-3.2-.6-4.8-.3-1.4-.9-2.5-1.7-3.1-.4-.8-.8-1.5-1.4-2.1 2.8-4.2 3.5-8.4 1.5-10.6-.9-1-2.2-1.4-3.8-1.4-2.3 0-5 .9-7.8 2.6 0 0-1.8-1.5-1.9-1.5-7.8-6.1-29.9 21-22.1 26.9l2 1.5c-1.3 3.5.5 7.7 4.2 9 .8.3 1.7.4 2.6.4 0 0 5.9 10.8 18.4 10.8 14.4 0 18.1-14.1 18.1-14.2-.1.1 1.1-1.7.5-3.1zm-45.3-6.2c-1.5-2.7 1.2-8.1 3.2-11.3 4.8-7.7 12.9-13.8 16.6-12.9l1-.4s2.7 2.3 2.8 2.3c1.9-1.1 4.3-2.3 6.5-2.5-1.4.3-3 1-5 2.2 0 0-4.7 3.2-7.5 6-1.5 1.5-7.7 9-7.7 8.9 1.1-2.1 1.9-3.2 3.7-5.4 1-1.3 2.1-2.5 3.2-3.7.5-.5 1-1 1.6-1.5.4-.3.7-.7 1.1-1 .2-.1.3-.3.5-.4l-3.6-3 .2 1.3 2.6 2.3s-2.3 1.6-3.5 2.6c-4.7 4-9.2 10.1-10.9 16h.1c-.8.5-1.7 1.2-2.4 2.2-.3.1-2.2-1.2-2.5-1.7zm7.7 11.1c-2.8 0-5-2.4-5-5.3s2.3-5.3 5-5.3c.7 0 1.4.2 2 .4 0 0 1.1.5 1.4 3.1.3-.8.5-1.5.5-1.5.4 1.1.5 2.3.5 3.4.3-.4.6-1.1.6-1.1.6 3.4-1.8 6.3-5 6.3zm6.2-18.7s2.2-4.1 6.9-6.9c-.4-.1-1.2.1-1.4.1.9-.7 2.5-1.2 3.6-1.5-.3-.2-1.1-.3-1.5-.3-.1 0-.1 0-.2 0 1-.6 3-.9 4.7-.6-.2-.3-.7-.5-1.1-.6h-.2s.1 0 .1 0c1.1-.2 2.3 0 3.3.4-.1-.3-.4-.6-.6-.8 0 0-.1-.1-.1-.1 1 .2 2 .7 2.8 1.2-.1-.2-.3-.5-.5-.7 1 .3 2.1 1 2.6 2v.1c-1.9-1.4-7.3-1-12.7 2.5-2.4 1.6-4.3 3.3-5.7 5.2zm29.4 16.3c-.1.1-.7 3.8-4.7 6.9-4.9 3.9-11.4 3.5-13.9 1.3-1.3-1.2-1.9-3-1.9-3s-.1 1-.2 1.4c-1-1.7-.9-3.7-.9-3.7s-.5 1-.8 1.5c-.7-1.9-.4-3.8-.4-3.8l-.6.9s-.3-2.1.4-3.8c.7-1.9 2.1-3.2 2.4-3.4-1-.3-2.2-1.3-2.2-1.3h.8s-2.1-1.5-2.5-3.8c.3.4.9.8.9.8-.2-.6-.3-1.9-.1-3.3.4-2.5 2.5-4.2 4.8-4.2 2.5 0 4.2.5 6.3-1.4.4-.4.8-.8 1.4-.9.1 0 .2-.1.6-.1.3 0 .7.1 1 .3 1.1.7 1.4 2.5 1.5 3.8.5 4.8.3 4 2.2 5 .9.5 2 .9 3.2 2.2s0 0 0 0c1 0 1.5.8 1.1 1.4-3.4 4-8.1 5.9-13.3 6.1-.2 0-.7 0-.7 0-2.1.1-2.8 2.8-1.5 4.4.8 1 2.5 1.4 3.8 1.4 5.7.1 11.5-3.9 12.5-6.2 0 0 .1-.2.1-.2-.2.3-5.8 5.5-12.6 5.3 0 0-.7 0-1.4-.2-.9-.2-1.6-.6-1.9-1.5.6.1 1.3.2 2.1.2 4.9 0 8.4-2.2 8.1-2.3 0 0 0 0-.1 0-.6.1-6.5 2.4-10.2 1.2 0-.1 0-.2.1-.3.3-1.1.9-1 1.9-1 3.4-.1 6.1-1 8.2-1.9 2.2-1 3.9-2.4 4.5-3.1.8 1.3.8 3 .8 3s.3-.1.7-.1c1.2.1 1.4 1.2.5 2.4z"/><path d="m25.4 7.2.7.2-.6-2-.3 1z"/><path d="m28.4 7.9-1.1-.9.4 1.4c.2-.2.4-.3.7-.5z"/><path d="m38.5 25.8c.6 0 1.1.1 1.6.3 0-1.4-.8-2.9-1.4-2.7-.4.1-.4.7-.4 1.1 0 .5 0 .9.2 1.3z"/><path d="m27.2 8.7-2.3-.7 1.5 1.3c.3-.2.5-.4.8-.6z"/><path d="m33.1 27.8c.5.2.8.3.8.2 0 0 0-.2-.1-.3-.3-.4-.8-.8-1.3-.9-1.1-.4-2.4-.2-3.3.6-.5.4-.7.8-.5.8.1 0 .4-.1.8-.2 1.6-.7 2.4-.7 3.6-.2z"/><path d="m33.2 29.1h.5c.1-.2-.6-.7-1.7-.6-.1 0-.2.1-.4.1h-.1c-.2.1-.5.2-.7.4s-.3.4-.2.5.2 0 .5-.1c.9-.3 1.5-.3 2.1-.3z"/><path d="m15.3 33.6c.3.4.2.6.3.7 0 0 .1.1.2 0 .2-.1.2-.3.2-.5 0-.4-.2-.9-.5-1.2-.4-.4-.9-.8-1.6-.9-.6-.1-1.2 0-1.3.1-.1 0-.2 0-.3.1-1.6.6-2.3 2.2-2 3.7.1.4.3.8.5 1.1.3.4.7.3.5 0 0-.1-.2-.5-.3-1.1 0-.7.1-1.4.6-2 .3-.4.7-.6.8-.6.1 0 .1-.1.2-.1h.1c.2-.1.1 0 .3-.1 1.2-.2 2 .3 2.3.8z"/><path d="m14.8 34.8c-.1-.1-.2-.2-.2-.3 0-.2 0-.3.2-.4.1-.1.2-.1.2-.2s-.4-.2-.8.1c-.3.3-.3.9.1 1.3.5.5 1.2.6 1.3 1.2v.3.3c-.1.6-.7 1.2-1.7 1-.2 0-.3 0-.3 0-.1.1.3.6 1.1.5 1.1 0 1.9-1.1 1.7-2.3-.1-1-1.2-1.2-1.6-1.5z"/><ellipse cx="40" cy="28" rx=".7" ry=".5" transform="matrix(.1541 -.9881 .9881 .1541 6.2187 63.2376)"/><ellipse cx="37.7" cy="28.8" rx=".6" ry=".8" transform="matrix(.4806 -.877 .877 .4806 -5.6797 48.0401)"/></svg>