<svg height="512pt" viewBox="-41 0 512 512" width="512pt" xmlns="http://www.w3.org/2000/svg"><path d="m430 117.261719v327.777343c0 36.921876-30.039062 66.960938-66.960938 66.960938h-296.078124c-36.921876 0-66.960938-30.039062-66.960938-66.960938v-378.078124c0-36.921876 30.039062-66.960938 66.960938-66.960938h245.769531c5.46875 0 10.609375 2.128906 14.480469 5.988281l96.800781 96.800781c3.859375 3.871094 5.988281 9.011719 5.988281 14.472657zm0 0" fill="#ddebf0"/><path d="m430 117.261719v327.777343c0 36.921876-30.039062 66.960938-66.960938 66.960938h-148.039062v-512h97.730469c5.46875 0 10.609375 2.128906 14.480469 5.988281l96.800781 96.800781c3.859375 3.871094 5.988281 9.011719 5.988281 14.472657zm0 0" fill="#c4e1e8"/><path d="m430 117.261719v12.738281h-115c-8.28125 0-15-6.71875-15-15v-115h12.730469c5.46875 0 10.609375 2.128906 14.480469 5.988281l96.800781 96.800781c3.859375 3.871094 5.988281 9.011719 5.988281 14.472657zm0 0" fill="#8fc1c9"/><path d="m356.359375 233.871094v185.539062c0 10.019532-8.148437 18.160156-18.160156 18.160156h-243.839844c-10.019531 0-18.167969-8.140624-18.167969-18.160156v-185.539062c0-10.011719 8.148438-18.160156 18.167969-18.160156h243.839844c10.011719 0 18.160156 8.148437 18.160156 18.160156zm0 0" fill="#a7eaf9"/><path d="m356.359375 233.871094v185.539062c0 10.019532-8.148437 18.160156-18.160156 18.160156h-123.199219v-221.859374h123.199219c10.011719 0 18.160156 8.148437 18.160156 18.160156zm0 0" fill="#76e1f7"/><path d="m356.359375 233.871094v60.640625h-280.167969v-60.640625c0-10.011719 8.148438-18.160156 18.167969-18.160156h243.839844c10.011719 0 18.160156 8.148437 18.160156 18.160156zm0 0" fill="#fff"/><path d="m356.359375 358.769531v60.640625c0 10.019532-8.148437 18.160156-18.160156 18.160156h-243.839844c-10.019531 0-18.167969-8.140624-18.167969-18.160156v-60.640625zm0 0" fill="#fff"/><path d="m157.320312 215.710938v221.859374h-62.960937c-10.019531 0-18.167969-8.140624-18.167969-18.160156v-185.539062c0-10.011719 8.148438-18.160156 18.167969-18.160156zm0 0" fill="#6ed945"/><g fill="#ddebf0"><path d="m356.359375 233.871094v60.640625h-141.359375v-78.800781h123.199219c10.011719 0 18.160156 8.148437 18.160156 18.160156zm0 0"/><path d="m215 358.769531h141.359375v60.640625c0 10.019532-8.148437 18.160156-18.160156 18.160156h-123.199219zm0 0"/></g></svg>