<svg fill="none" height="351" viewBox="0 0 350 351" width="350" xmlns="http://www.w3.org/2000/svg"><path d="m163.539.0942001c-.753.0684259-3.148.3079179-5.303.4789829-49.712 4.481917-96.2761 31.305017-125.7678 72.531817-16.4223 22.9227-26.92568 48.925-30.8944 76.466-1.402735 9.614-1.5738 12.454-1.5738 25.489s.171065 15.875 1.5738 25.489c9.5112 65.723 56.2806 120.943 119.7112 141.402 11.359 3.661 23.334 6.159 36.951 7.664 5.303.582 28.225.582 33.528 0 23.505-2.6 43.417-8.416 63.055-18.441 3.011-1.539 3.593-1.95 3.182-2.292-.274-.205-13.104-17.414-28.5-38.216l-27.986-37.805-35.068-51.902c-19.296-28.533-35.171-51.867-35.308-51.867-.137-.034-.274 23.026-.342 51.183-.103 49.301-.137 51.285-.753 52.449-.89 1.676-1.574 2.36-3.011 3.113-1.095.548-2.053.65-7.219.65h-5.919l-1.573-.992c-1.027-.65-1.779-1.505-2.293-2.498l-.718-1.539.068-68.597.103-68.632 1.061-1.334c.547-.719 1.71-1.642 2.531-2.087 1.403-.684 1.95-.753 7.869-.753 6.98 0 8.143.274 9.956 2.258.514.548 19.502 29.15 42.219 63.602 22.718 34.453 53.783 81.496 69.042 104.59l27.713 41.979 1.403-.924c12.419-8.074 25.557-19.569 35.958-31.544 22.136-25.42 36.402-56.417 41.192-89.467 1.403-9.614 1.574-12.454 1.574-25.489s-.171-15.875-1.574-25.489c-9.511-65.7231-56.28-120.9431-119.711-141.40251-11.188-3.62659-23.094-6.12414-36.437-7.62952-3.285-.342131-25.9-.718475-28.739-.4447699zm71.642 105.8557999c1.642.821 2.976 2.394 3.455 4.037.274.889.342 19.912.274 62.781l-.103 61.515-10.845-16.628-10.88-16.627v-44.717c0-28.91.137-45.161.342-45.948.548-1.916 1.745-3.421 3.387-4.311 1.403-.718 1.916-.787 7.288-.787 5.063 0 5.953.069 7.082.685z" fill="#000"/></svg>