<svg height='100px' width='100px'  fill="#000000" xmlns="http://www.w3.org/2000/svg" xmlns:xlink="http://www.w3.org/1999/xlink" version="1.1" x="0px" y="0px" viewBox="0 0 32 32" enable-background="new 0 0 32 32" xml:space="preserve"><g display="none"><rect x="-289.328" y="-186.667" display="inline" fill="#000000" width="473.333" height="236"></rect></g><g display="none"><g display="inline"><polygon points="21.789,14.314 32,32 11.578,32   "></polygon></g><g display="inline"><circle fill="#000000" cx="8.683" cy="8.683" r="8.683"></circle></g></g><g><g><polygon points="11.579,32 32,32 21.789,14.314   "></polygon><circle cx="8.683" cy="8.683" r="8.683"></circle></g></g><g display="none"><g display="inline"><path fill="#000000" d="M21.789,16.314L30.268,31H13.311L21.789,16.314 M21.789,14.314L11.578,32H32L21.789,14.314L21.789,14.314z    "></path></g><g display="inline"><path fill="#000000" d="M8.683,1c4.237,0,7.683,3.447,7.683,7.683s-3.447,7.683-7.683,7.683S1,12.92,1,8.683S4.447,1,8.683,1     M8.683,0C3.888,0,0,3.888,0,8.683s3.888,8.683,8.683,8.683c4.796,0,8.683-3.888,8.683-8.683S13.479,0,8.683,0L8.683,0z"></path></g></g><g display="none"><g display="inline"><circle fill="#000000" cx="8.683" cy="8.683" r="8.183"></circle><g><path d="M8.683,1c4.237,0,7.683,3.447,7.683,7.683s-3.447,7.683-7.683,7.683S1,12.92,1,8.683S4.447,1,8.683,1 M8.683,0     C3.888,0,0,3.888,0,8.683s3.888,8.683,8.683,8.683c4.796,0,8.683-3.888,8.683-8.683S13.479,0,8.683,0L8.683,0z"></path></g></g><g display="inline"><polygon fill="#000000" points="12.445,31.5 21.789,15.314 31.134,31.5   "></polygon><g><path d="M21.789,16.314L30.268,31H13.311L21.789,16.314 M21.789,14.314L11.578,32H32L21.789,14.314L21.789,14.314z"></path></g></g></g></svg>