<svg enable-background="new 0 0 32 32" height="100" viewBox="0 0 32 32" width="100" xmlns="http://www.w3.org/2000/svg"><path d="m0 32h32v-32h-32zm2.038-29.962h27.923v27.923h-27.923z"/><path d="m4.038 27.962h23.923v-23.924h-23.923zm17.011-19.712h3.402v3.402h-3.402zm0 6.049h3.402v3.402h-3.402zm0 6.049h3.402v3.402h-3.402zm-6.75-12.098h3.402v3.402h-3.402zm0 6.049h3.402v3.402h-3.402zm0 6.049h3.402v3.402h-3.402zm-6.75-12.098h3.402v3.402h-3.402zm0 6.049h3.402v3.402h-3.402zm0 6.049h3.402v3.402h-3.402z"/></svg>