<svg enable-background="new 0 0 32 32" height="100" viewBox="0 0 32 32" width="100" xmlns="http://www.w3.org/2000/svg"><path d="m22.734 7.174 6.199-3.587-6.199-3.587z"/><path d="m22.734 15.449 6.199-3.587-6.199-3.587z"/><path d="m22.734 23.725 6.199-3.587-6.199-3.587z"/><path d="m22.734 32 6.199-3.587-6.199-3.587z"/><path d="m12.901 7.174 6.198-3.587-6.198-3.587z"/><path d="m12.901 15.449 6.198-3.587-6.198-3.587z"/><path d="m12.901 23.725 6.198-3.587-6.198-3.587z"/><path d="m12.901 32 6.198-3.587-6.198-3.587z"/><path d="m3.067 7.174 6.199-3.587-6.199-3.587z"/><path d="m3.067 15.449 6.199-3.587-6.199-3.587z"/><path d="m3.067 23.725 6.199-3.587-6.199-3.587z"/><path d="m3.067 32 6.199-3.587-6.199-3.587z"/></svg>