<svg height='100px' width='100px'  fill="#000000" xmlns="http://www.w3.org/2000/svg" xmlns:xlink="http://www.w3.org/1999/xlink" version="1.1" x="0px" y="0px" viewBox="0 0 32 32" enable-background="new 0 0 32 32" xml:space="preserve"><g display="none"><rect x="-111.333" y="-102.667" display="inline" fill="#000000" width="473.333" height="236"></rect></g><g display="none"><g display="inline"><rect x="12.675" width="6.651" height="32"></rect></g><g display="inline"><g><rect x="0" y="0" width="32" height="6.651"></rect></g><g><rect y="12.675" width="32" height="6.651"></rect></g><g><rect x="0" y="25.349" width="32" height="6.651"></rect></g></g></g><g><g><polygon points="12.675,0 0,0 0,6.651 12.675,6.651 12.675,12.675 0,12.675 0,19.325 12.675,19.325 12.675,25.349 0,25.349 0,32     12.675,32 19.325,32 32,32 32,25.349 19.325,25.349 19.325,19.325 32,19.325 32,12.675 19.325,12.675 19.325,6.651 32,6.651 32,0     19.325,0   "></polygon></g></g><g display="none"><g display="inline"><path fill="#000000" d="M31,1v4.651H19.325h-1v1v6.024v1h1H31v4.651H19.325h-1v1v6.024v1h1H31V31H19.325h-6.651H1v-4.651h11.675h1    v-1v-6.024v-1h-1H1v-4.651h11.675h1v-1V6.651v-1h-1H1V1h11.675h6.651H31 M32,0H19.325h-6.651H0v6.651h12.675v6.024H0v6.651h12.675    v6.024H0V32h12.675h6.651H32v-6.651H19.325v-6.024H32v-6.651H19.325V6.651H32V0L32,0z"></path></g></g><g display="none"><g display="inline"><polygon fill="#000000" points="0.5,31.5 0.5,25.85 13.175,25.85 13.175,18.825 0.5,18.825 0.5,13.175 13.175,13.175 13.175,6.15     0.5,6.15 0.5,0.5 31.5,0.5 31.5,6.15 18.825,6.15 18.825,13.175 31.5,13.175 31.5,18.825 18.825,18.825 18.825,25.85 31.5,25.85     31.5,31.5   "></polygon><g><path d="M31,1v4.651H19.325h-1v1v6.024v1h1H31v4.651H19.325h-1v1v6.024v1h1H31V31H19.325h-6.651H1v-4.651h11.675h1v-1v-6.024v-1     h-1H1v-4.651h11.675h1v-1V6.651v-1h-1H1V1h11.675h6.651H31 M32,0H19.325h-6.651H0v6.651h12.675v6.024H0v6.651h12.675v6.024H0V32     h12.675h6.651H32v-6.651H19.325v-6.024H32v-6.651H19.325V6.651H32V0L32,0z"></path></g></g></g></svg>