<svg height='100px' width='100px'  fill="#000000" xmlns="http://www.w3.org/2000/svg" xmlns:xlink="http://www.w3.org/1999/xlink" version="1.1" x="0px" y="0px" viewBox="0 0 100 100" style="enable-background:new 0 0 100 100;" xml:space="preserve"><path d="M53,13.9l-3-5l-3,5c-2.3,3.9-22.8,38.5-22.8,51.4c0,14.2,11.6,25.8,25.8,25.8s25.8-11.6,25.8-25.8  C75.8,52.4,55.3,17.8,53,13.9z M50,84.1c-10.4,0-18.8-8.4-18.8-18.8c0-8,11.7-30.2,18.8-42.7c7.1,12.5,18.8,34.7,18.8,42.7  C68.8,75.7,60.4,84.1,50,84.1z M52,74.1v7c-9.7,0-17.5-7.9-17.5-17.5h7C41.5,69.4,46.2,74.1,52,74.1z"></path></svg>