<svg height='100px' width='100px'  fill="#000000" xmlns="http://www.w3.org/2000/svg" xmlns:xlink="http://www.w3.org/1999/xlink" version="1.1" x="0px" y="0px" viewBox="0 0 32 32" enable-background="new 0 0 32 32" xml:space="preserve"><g display="none"><rect x="-195.333" y="-60.646" display="inline" fill="#000000" width="473.333" height="236"></rect></g><g display="none"><g display="inline"><path d="M28.532,4.175L16,25.832L3.468,4.175H28.532 M32,2.175H0l16,27.651L32,2.175L32,2.175z"></path></g><g display="inline"><polygon fill="#000000" points="16,18.938 22.652,7.442 9.348,7.442   "></polygon></g></g><g><g><path d="M16,29.825L32,2.175H0L16,29.825z M16,25.832L3.468,4.175h25.064L16,25.832z"></path><polygon points="16,18.938 22.652,7.442 9.348,7.442   "></polygon></g></g><g display="none"><g display="inline"><path fill="#000000" d="M30.266,3.175L16,27.829L1.734,3.175H30.266 M32,2.175H0l16,27.651L32,2.175L32,2.175z"></path></g><g display="inline"><path fill="#000000" d="M20.918,8.442L16,16.941l-4.918-8.499H20.918 M22.652,7.442H9.348L16,18.938L22.652,7.442L22.652,7.442z"></path></g></g><g display="none"><g display="inline"><polygon fill="#000000" points="0.867,2.674 31.133,2.674 16,28.827   "></polygon><g><path d="M30.266,3.175L16,27.829L1.734,3.175H30.266 M32,2.175H0l16,27.651L32,2.175L32,2.175z"></path></g></g><g display="inline"><polygon fill="#000000" points="10.216,7.943 21.784,7.943 16,17.94   "></polygon><g><path fill="#000000" d="M20.918,8.442L16,16.941l-4.918-8.499H20.918 M22.652,7.442H9.348L16,18.938L22.652,7.442L22.652,7.442z"></path></g></g></g></svg>