<svg height='100px' width='100px' fill="#000000" xmlns:dc="http://purl.org/dc/elements/1.1/" xmlns:cc="http://creativecommons.org/ns#" xmlns:rdf="http://www.w3.org/1999/02/22-rdf-syntax-ns#" xmlns:svg="http://www.w3.org/2000/svg" xmlns="http://www.w3.org/2000/svg" xmlns:sodipodi="http://sodipodi.sourceforge.net/DTD/sodipodi-0.dtd" xmlns:inkscape="http://www.inkscape.org/namespaces/inkscape" version="1.1" x="0px" y="0px" viewBox="0 0 100 100"><g transform="translate(0,-952.36218)"><path style="text-indent:0;text-transform:none;direction:ltr;block-progression:tb;baseline-shift:baseline;color:#000000;enable-background:accumulate;" d="m 44.6875,973.37553 a 3.0003,3.0003 0 0 0 -2.59375,2.28125 L 34.6875,1006.9693 30.5,1000.6881 A 3.0003,3.0003 0 0 0 28,999.34427 l -20,0 a 3.0003,3.0003 0 1 0 0,6.00003 l 18.375,0 7.125,10.6875 a 3.0003,3.0003 0 0 0 5.40625,-0.9687 l 5.625,-23.75007 6.5,37.56257 a 3.0003,3.0003 0 0 0 5.875,0.1875 l 7.40625,-31.31253 4.1875,6.28123 a 3.0003,3.0003 0 0 0 2.5,1.3438 l 21,-0.031 a 3.0003,3.0003 0 1 0 0,-6.00003 l -19.375,0.031 -7.125,-10.68754 a 3.0003,3.0003 0 0 0 -5.40625,0.96875 l -5.625,23.75002 -6.5,-37.56252 a 3.0003,3.0003 0 0 0 -3.28125,-2.46875 z" fill="#000000" fill-opacity="1" stroke="none" marker="none" visibility="visible" display="inline" overflow="visible"></path></g></svg>