<svg height='100px' width='100px'  fill="#000000" xmlns="http://www.w3.org/2000/svg" xmlns:xlink="http://www.w3.org/1999/xlink" version="1.1" x="0px" y="0px" viewBox="0 0 32 32" enable-background="new 0 0 32 32" xml:space="preserve"><g display="none"><rect x="-247.333" y="-144.651" display="inline" fill="#000000" width="473.333" height="236"></rect></g><g display="none"><g display="inline"><polygon fill="#000000" points="16,2.325 27.578,22.379 4.422,22.379   "></polygon><g><g><polygon points="3.587,23.476 7.174,29.675 0,29.675     "></polygon></g><g><polygon points="11.862,23.476 15.449,29.675 8.275,29.675     "></polygon></g><g><polygon points="20.138,23.476 23.725,29.675 16.551,29.675     "></polygon></g><g><polygon points="28.413,23.476 32,29.675 24.826,29.675     "></polygon></g></g></g></g><g display="none"><g display="inline"><path fill="#000000" d="M16,4.325l9.846,17.054H6.154L16,4.325 M16,2.325L4.422,22.379h23.156L16,2.325L16,2.325z"></path></g><g display="inline"><path fill="#000000" d="M3.587,25.472l1.853,3.202H1.734L3.587,25.472 M3.587,23.476L0,29.675h7.174L3.587,23.476L3.587,23.476z"></path></g><g display="inline"><path fill="#000000" d="M11.862,25.472l1.853,3.202h-3.706L11.862,25.472 M11.862,23.476l-3.587,6.199h7.174L11.862,23.476    L11.862,23.476z"></path></g><g display="inline"><path fill="#000000" d="M20.138,25.472l1.853,3.202h-3.706L20.138,25.472 M20.138,23.476l-3.587,6.199h7.174L20.138,23.476    L20.138,23.476z"></path></g><g display="inline"><path fill="#000000" d="M28.413,25.472l1.853,3.202H26.56L28.413,25.472 M28.413,23.476l-3.587,6.199H32L28.413,23.476    L28.413,23.476z"></path></g></g><g display="none"><g display="inline"><circle fill="#000000" cx="16" cy="16" r="16"></circle></g><g display="inline"><g><polygon fill="#000000" points="5.288,21.879 16,3.325 26.712,21.879    "></polygon></g><g><g><path d="M16,4.325l9.846,17.054H6.154L16,4.325 M16,2.325L4.422,22.379h23.156L16,2.325L16,2.325z"></path></g></g></g><g display="inline"><g><polygon fill="#000000" points="0.867,29.175 3.587,24.474 6.307,29.175    "></polygon></g><g><path d="M3.587,25.472l1.853,3.202H1.734L3.587,25.472 M3.587,23.476L0,29.675h7.174L3.587,23.476L3.587,23.476z"></path></g></g><g display="inline"><g><polygon fill="#000000" points="9.143,29.175 11.862,24.474 14.582,29.175    "></polygon></g><g><g><path d="M11.862,25.472l1.853,3.202h-3.706L11.862,25.472 M11.862,23.476l-3.587,6.199h7.174L11.862,23.476L11.862,23.476z"></path></g></g></g><g display="inline"><g><polygon fill="#000000" points="17.418,29.175 20.138,24.474 22.857,29.175    "></polygon></g><g><path d="M20.138,25.472l1.853,3.202h-3.706L20.138,25.472 M20.138,23.476l-3.587,6.199h7.174L20.138,23.476L20.138,23.476z"></path></g></g><g display="inline"><g><polygon fill="#000000" points="25.693,29.175 28.413,24.474 31.133,29.175    "></polygon></g><g><g><path d="M28.413,25.472l1.853,3.202H26.56L28.413,25.472 M28.413,23.476l-3.587,6.199H32L28.413,23.476L28.413,23.476z"></path></g></g></g></g><g><g><polygon points="16,2.325 4.422,22.379 27.578,22.379   "></polygon><polygon points="0,29.675 7.174,29.675 3.587,23.476   "></polygon><polygon points="15.449,29.675 11.862,23.476 8.275,29.675   "></polygon><polygon points="23.725,29.675 20.138,23.476 16.551,29.675   "></polygon><polygon points="24.826,29.675 32,29.675 28.413,23.476   "></polygon></g></g></svg>