<svg height='100px' width='100px'  fill="#000000" xmlns="http://www.w3.org/2000/svg" xmlns:xlink="http://www.w3.org/1999/xlink" version="1.1" x="0px" y="0px" viewBox="0 0 32 32" enable-background="new 0 0 32 32" xml:space="preserve"><g display="none"><rect x="-331.365" y="-102.667" display="inline" fill="#000000" width="473.333" height="236"></rect></g><g display="none"><g display="inline"><path fill="#000000" d="M30,1.984v28H2v-28H30 M32-0.016H0v32h32V-0.016L32-0.016z"></path></g><g display="inline"><g><polygon fill="#000000" points="10.918,7.34 15.398,15.081 6.439,15.081    "></polygon></g></g><g display="inline"><g><polygon fill="#000000" points="21.082,7.34 25.561,15.081 16.602,15.081    "></polygon></g></g><g display="inline"><g><polygon points="10.918,16.919 15.398,24.66 6.439,24.66    "></polygon></g></g><g display="inline"><g><polygon fill="#000000" points="21.082,16.919 25.561,24.66 16.602,24.66    "></polygon></g></g></g><g><g><path d="M0,31.984h32v-32H0V31.984z M2,1.984h28v28H2V1.984z"></path><polygon points="6.439,15.081 15.398,15.081 10.918,7.34   "></polygon><polygon points="16.602,15.081 25.561,15.081 21.082,7.34   "></polygon><polygon points="6.439,24.66 15.398,24.66 10.918,16.919   "></polygon><polygon points="16.602,24.66 25.561,24.66 21.082,16.919   "></polygon></g></g><g display="none"><g display="inline"><path fill="#000000" d="M31,0.984v30H1v-30H31 M32-0.016H0v32h32V-0.016L32-0.016z"></path></g><g display="inline"><path fill="#000000" d="M10.918,9.337l2.745,4.744h-5.49L10.918,9.337 M10.918,7.34l-4.479,7.741h8.958L10.918,7.34L10.918,7.34z"></path></g><g display="inline"><path fill="#000000" d="M21.082,9.337l2.745,4.744h-5.49L21.082,9.337 M21.082,7.34l-4.479,7.741h8.958L21.082,7.34L21.082,7.34z"></path></g><g display="inline"><path fill="#000000" d="M10.918,18.916l2.745,4.744h-5.49L10.918,18.916 M10.918,16.919L6.439,24.66h8.958L10.918,16.919    L10.918,16.919z"></path></g><g display="inline"><path fill="#000000" d="M21.082,18.916l2.745,4.744h-5.49L21.082,18.916 M21.082,16.919l-4.479,7.741h8.958L21.082,16.919    L21.082,16.919z"></path></g></g><g display="none"><g display="inline"><rect x="0.5" y="0.484" fill="#000000" width="31" height="31"></rect><g><path d="M31,0.984v30H1v-30H31 M32-0.016H0v32h32V-0.016L32-0.016z"></path></g></g><g display="inline"><polygon fill="#000000" points="7.307,14.581 10.918,8.338 14.53,14.581   "></polygon><g><path fill="#000000" d="M10.918,9.337l2.745,4.744h-5.49L10.918,9.337 M10.918,7.34l-4.479,7.741h8.958L10.918,7.34L10.918,7.34z     "></path></g></g><g display="inline"><polygon fill="#000000" points="17.47,14.581 21.082,8.338 24.693,14.581   "></polygon><g><path fill="#000000" d="M21.082,9.337l2.745,4.744h-5.49L21.082,9.337 M21.082,7.34l-4.479,7.741h8.958L21.082,7.34L21.082,7.34z     "></path></g></g><g display="inline"><polygon fill="#000000" points="7.307,24.16 10.918,17.917 14.53,24.16   "></polygon><g><path fill="#000000" d="M10.918,18.916l2.745,4.744h-5.49L10.918,18.916 M10.918,16.919L6.439,24.66h8.958L10.918,16.919     L10.918,16.919z"></path></g></g><g display="inline"><polygon fill="#000000" points="17.47,24.16 21.082,17.917 24.693,24.16   "></polygon><g><path fill="#000000" d="M21.082,18.916l2.745,4.744h-5.49L21.082,18.916 M21.082,16.919l-4.479,7.741h8.958L21.082,16.919     L21.082,16.919z"></path></g></g></g></svg>