<svg height="64" viewBox="0 0 64 64" width="64" xmlns="http://www.w3.org/2000/svg" xmlns:xlink="http://www.w3.org/1999/xlink"><linearGradient id="a" x1="100%" x2="69.603%" y1="36.861%" y2="36.861%"><stop offset="0" stop-color="#1abad4"/><stop offset="1" stop-color="#53c4c6"/></linearGradient><g fill="none" fill-rule="evenodd"><path d="m3.06314776.3c18.31838034.1859778 29.34281154.2826749 33.07329374.29009129l1.0559605.00089306c7.7521741.00892771 23.9017546.53751061 24.1474483 16.97704555.2481755 16.6055908-25.910529 19.3514404-27.3608625 19.8863525-.4834446.178304-1.0889269 1.0381402-1.7396045 2.2955955l-.1142504.2239297-.762682.3849117c-2.8910639 1.43222-5.8463942 2.6035601-8.8659909 3.5140201-3.6995738 1.1154848-6.846629 1.9228688-9.4410321 2.4220966 2.0330446-6.7404604 4.214069-14.8441528 6.3120037-16.7748798 3.0386963-2.7965088 8.8656006-1.1695556 10.6125489-.829956 1.7469482.3395996 4.9101562 1.3602295 9.5511474-1.2922363 4.6409912-2.6524659 3.1814279-5.767212 3.1814279-6.1990479v-.806848c1.8995559.4233642 3.7883801.6923135 5.6664725.806848 2.8171387.1718018 5.404419 0 5.733208 0 .2191927 0 .5290112.0856533.9294555.25696.2019418-.099806-.1616055-.6957295-1.090642-1.7877705-1.3935547-1.6380616-4.2242432-1.5087891-7.1175537-3.109375-1.1197247-.6194343-2.4368897-1.9346924-3.2830811-2.5339905s-2.4591005-.6163522-3.6237793-.7086853c-1.3611653-.1079102-3.3437147.1283183-5.9476479.7086853.2818304 1.9543757 1.0653644 3.4560216 2.350602 4.5049377l.3632204.2969474c1.592027 1.3056431 1.7602822 1.5263518 1.271057 2.2004891-.5241699.7222901-1.6785889.774292-3.2926026-.2120361-1.1510754-.7034253-1.437324-1.998272-2.3437808-3.6948242-.7559103-1.4147846-1.6800874-2.7482395-2.654256-3.9764739-1.8588055-2.343587-2.8372283-2.8599317-9.7451465-3.8822174l-.0696373-.01040695c-3.5811314-1.34360588-7.0282809-2.56344746-9.3314054-3.66953701-2.27683776-1.09346517-4.76480137-2.85397138-7.46389084-5.28151864zm9.63954274 20.7081807c1.2109768.4293329 2.1750702.7093331 2.8922802.8400005 2.6070557.4749756 5.1875.3058667 7.1851807.7581787 1.3317871.3015414 2.3263165 1.4230321 2.9835884 3.3644721-.6188577-.2795919-1.2959729-.4551021-2.0313454-.5265307-2.9239952-.6882529-5.3377498-1.4611803-7.2426483-2.3172317-1.1925432-.5359226-2.4545607-1.2424836-3.7870556-2.1188889zm9.2884573-2.1351807-.481531-.1885548c-3.0296724-1.1870814-5.3548588-2.1007644-6.9755592-2.7410491-1.7460076-.6897894-4.0508111-1.9584421-6.91629445-3.8073007-.14916045-.2327783-.29467315-.4730448-.43594339-.7198714 3.09009614 1.3222317 5.39792544 2.1174625 6.92348804 2.3856926 3.426256.602417 5.7926135.7753731 7.8673484 1.3571777 3.6403262 1.0208334 5.8737433 3.0908259 6.7002516 6.2099777-.7485727-.6817332-2.0524244-1.3365646-3.9115553-1.9644943-1.0323539-.3486821-2.5301115-.5079874-2.7710716-.5310435l-.0121331-.0015342-.009-.001z" fill="url(#a)"/><path d="m32.1251329 39.9739076-.1220074.2458375-.3227985.2794764c-3.2693641 2.7889836-6.6270265 5.1439917-10.0729872 7.0650242-3.7850834 2.1100844-7.2390487 3.5428181-10.3621213 4.2980546.7678572-2.256262 1.3712603-4.1120501 1.8102094-5.5673643 2.5944031-.4992278 5.7414583-1.3066118 9.4410321-2.4220966 3.0195967-.91046 5.974927-2.0818001 8.8659909-3.5140201zm-21.0921131-19.8273956c.5217197.3273783 1.0782766.6146012 1.6696707.8616687 1.3324949.8764053 2.5945124 1.5829663 3.7870556 2.1188889 1.9055579.8563477 4.3203241 1.6295138 7.2442988 2.3194985-.3757611-.0388097-.7693037-.0482086-1.1782588-.0300721-1.8038938.08-6.4107666.7179401-9.0900879-1.6206829-1.8072621-1.5774536-2.4326784-2.8315053-2.4326784-3.6493011zm-3.41525665-8.0104166c2.86548335 1.8488586 5.17028685 3.1175113 6.91629445 3.8073007 1.7060004.6739838 4.1925948 1.6509022 7.459783 2.9307551-1.8550881-.168071-3.9490522-.1778753-7.1852468-1.1679377-3.0034508-.9188581-5.40039435-2.7755642-7.19083065-5.5701181zm-4.55461539-11.8360954c2.69908947 2.42754726 5.18705308 4.18805347 7.46389084 5.28151864 2.3031245 1.10608955 5.750274 2.32593113 9.3314054 3.66953701-1.0355171-.15276792-2.204994-.31729339-3.5297086-.50101895-6.72213325-.93229709-11.08819585-3.48486328-13.26558764-8.4500367z" fill="#8ec8cc"/><path d="m32.0031255 40.2197451c-1.2415342 2.5357375-2.6101756 6.3561724-3.5954107 9.5750914-1.5722656 5.1368408-2.6209716 8.4366455-6.3388671 11.3193359-3.7178956 2.8826905-19.5688477 2.8692627-19.5688477 2.1956788 0-.673584 2.97216595-1.7178595 4.18054199-3.0662842 1.53739913-1.7155811 2.74768574-4.2188399 3.75000001-6.3828125.2665853-.5755513.5383731-1.2491724.8146765-1.9984542 3.1230726-.7552365 6.5770379-2.1879702 10.3621213-4.2980546 3.4459607-1.9210325 6.8036231-4.2760406 10.0729872-7.0650242z" fill="#0ea0c4"/></g></svg>