<svg height='100px' width='100px'  fill="#000000" xmlns="http://www.w3.org/2000/svg" xmlns:xlink="http://www.w3.org/1999/xlink" version="1.1" x="0px" y="0px" viewBox="0 0 64 64" enable-background="new 0 0 64 64" xml:space="preserve"><g display="none"><g display="inline"><rect x="7" y="7" fill="#000000" stroke="#000000" stroke-linecap="round" stroke-linejoin="round" stroke-miterlimit="10" width="50" height="50"></rect></g></g><g><g><path fill="#000000" d="M28,25H12c-0.6,0-1,0.4-1,1v18c0,0.6,0.4,1,1,1h16c0.6,0,1-0.4,1-1V26C29,25.4,28.6,25,28,25z M13.1,43    c0.5-2.3,2.5-4,4.9-4h4c2.4,0,4.4,1.7,4.9,4H13.1z M20,37c-1.7,0-3-1.3-3-3s1.3-3,3-3s3,1.3,3,3S21.7,37,20,37z M23.8,37.2    c0.8-0.9,1.2-2,1.2-3.2c0-2.8-2.2-5-5-5s-5,2.2-5,5c0,1.2,0.5,2.4,1.2,3.2c-1.2,0.3-2.3,1-3.2,1.9V27h14v12.1    C26.1,38.2,25,37.6,23.8,37.2z"></path><path fill="#000000" d="M32,29c0,0.6,0.4,1,1,1h18c0.6,0,1-0.4,1-1s-0.4-1-1-1H33C32.4,28,32,28.4,32,29z"></path><path fill="#000000" d="M51,34H33c-0.6,0-1,0.4-1,1s0.4,1,1,1h18c0.6,0,1-0.4,1-1S51.6,34,51,34z"></path><path fill="#000000" d="M51,40H33c-0.6,0-1,0.4-1,1s0.4,1,1,1h18c0.6,0,1-0.4,1-1S51.6,40,51,40z"></path><path fill="#000000" d="M57,19H36v-5c0-0.6-0.4-1-1-1h-6c-0.6,0-1,0.4-1,1v5H7c-0.6,0-1,0.4-1,1v30c0,0.6,0.4,1,1,1h50    c0.6,0,1-0.4,1-1V20C58,19.4,57.6,19,57,19z M30,15h4v5v2h-4v-2V15z M56,49H8V21h20v2c0,0.6,0.4,1,1,1h6c0.6,0,1-0.4,1-1v-2h20V49    z"></path></g></g></svg>