<svg enable-background="new 0 0 64 64" height="100" viewBox="0 0 64 64" width="100" xmlns="http://www.w3.org/2000/svg"><path d="m28 25h-16c-.6 0-1 .4-1 1v18c0 .6.4 1 1 1h16c.6 0 1-.4 1-1v-18c0-.6-.4-1-1-1zm-14.9 18c.5-2.3 2.5-4 4.9-4h4c2.4 0 4.4 1.7 4.9 4zm6.9-6c-1.7 0-3-1.3-3-3s1.3-3 3-3 3 1.3 3 3-1.3 3-3 3zm3.8.2c.8-.9 1.2-2 1.2-3.2 0-2.8-2.2-5-5-5s-5 2.2-5 5c0 1.2.5 2.4 1.2 3.2-1.2.3-2.3 1-3.2 1.9v-12.1h14v12.1c-.9-.9-2-1.5-3.2-1.9z"/><path d="m32 29c0 .6.4 1 1 1h18c.6 0 1-.4 1-1s-.4-1-1-1h-18c-.6 0-1 .4-1 1z"/><path d="m51 34h-18c-.6 0-1 .4-1 1s.4 1 1 1h18c.6 0 1-.4 1-1s-.4-1-1-1z"/><path d="m51 40h-18c-.6 0-1 .4-1 1s.4 1 1 1h18c.6 0 1-.4 1-1s-.4-1-1-1z"/><path d="m57 19h-21v-5c0-.6-.4-1-1-1h-6c-.6 0-1 .4-1 1v5h-21c-.6 0-1 .4-1 1v30c0 .6.4 1 1 1h50c.6 0 1-.4 1-1v-30c0-.6-.4-1-1-1zm-27-4h4v5 2h-4v-2zm26 34h-48v-28h20v2c0 .6.4 1 1 1h6c.6 0 1-.4 1-1v-2h20z"/></svg>