<svg xmlns="http://www.w3.org/2000/svg" xmlns:xlink="http://www.w3.org/1999/xlink" version="1.1" x="0px" y="0px" viewBox="0 0 128 128" style="enable-background:new 0 0 128 128;" xml:space="preserve"><g><path d="M75.2929993,28.3827991c-3.7491226,0.9717007-6.5557175,3.7040997-7.7491226,7.0630016l2.1856003-0.0009995   c0.135704-0.3022003,0.2851028-0.6001015,0.455101-0.8901024c1.2383041-2.1044998,3.2334213-3.6039982,5.6211014-4.2226982   c0.7695007-0.1997013,1.5595016-0.3012009,2.3496017-0.3012009c3.6767197,0,6.9501953,2.1621017,8.4012985,5.4043007   l2.1817017-0.0009995c-1.592804-4.4961014-5.8964996-7.4180012-10.5839996-7.4170017   C77.2089996,28.0170994,76.2490005,28.1348,75.2929993,28.3827991z"></path><path d="M119.8974762,39.4453011c-0.0019989,0-0.0038986,0-0.0048981,0l-93.2548981,0.0531998   c-4.4629002,0.0024986-8.1161995,3.6314011-8.1190987,8.0625l-0.0362015,62.3852959   C18.4794807,114.376503,22.1259995,118,26.5858803,118c0.0020008,0,0.0039005,0,0.0049,0l93.2548981-0.0526962   c4.4618988-0.003006,8.1143188-3.6319046,8.1181946-8.0630035L128,47.4990005   C128.0028839,43.0688019,124.3573761,39.4453011,119.8974762,39.4453011z M26.5858803,113.971199   c-1.0732002,0-2.0878811-0.4208984-2.8563995-1.1846008c-0.7686005-0.7636948-1.1914005-1.7723999-1.1903992-2.8384018   l0.0184994-30.0018997c5.6952991-0.4779968,37.097702-1.8852997,50.5117035,22.9111023   c-2.4707031,4.8061981-3.7978058,8.857399-4.4188995,11.0894012L26.5858803,113.971199z M123.9071808,109.8813019   c-0.0018997,2.2250977-1.8251801,4.0346985-4.0634003,4.0366974l-49.0878983,0.0278015   c2.4598999-8.4307022,13.8583984-38.1298981,53.1737976-43.044899L123.9071808,109.8813019z M123.9306793,68.8740005   c-28.427803,3.466301-42.7783966,19.5025024-49.7276001,31.8784027   C60.0272789,76.3432999,28.9442806,77.4233017,22.5585804,77.9268036l0.017601-30.3628044   c0.0018997-2.2245979,1.8232002-4.0346985,4.0633984-4.0366974l93.2529984-0.0532036h0.0048981   c1.073204,0,2.0868988,0.4209023,2.8554001,1.1846008c0.7686005,0.7637024,1.1913986,1.7719994,1.1904984,2.8384018   L123.9306793,68.8740005z"></path><path d="M94.5478821,51.5278015c-0.0040054,0-0.0068817,0-0.0108032,0l0.0087967,2.014698   c2.4395065,0.0018997,4.7313995,0.9472008,6.453125,2.661602c1.7226791,1.713398,2.6698761,3.9902,2.6669998,6.4130974   c-0.004921,4.9927025-4.0976181,9.0552025-9.1347198,9.0552025c-2.4384995-0.0019989-4.7304993-0.9463043-6.4532013-2.6596985   c-1.7236023-1.7139053-2.669899-3.9916992-2.6669998-6.4136047c0.0029984-4.9945984,4.0967026-9.0565987,9.1259995-9.0565987   v-2.014698c-6.1552963,0-11.1503983,4.9545975-11.1542969,11.069397   c-0.0067825,6.1211014,4.9833984,11.084404,11.1464996,11.0893021c0.0038986,0,0.0067978,0,0.0107193,0   c6.1542816,0,11.1494751-4.9541016,11.154274-11.0683022C105.7011795,56.4990005,100.7108765,51.533699,94.5478821,51.5278015z"></path><path d="M4.1903811,42.7578011c-0.2743812-1.028801-0.1240001-2.1094017,0.4229002-3.0419998   c0.5478001-0.9326019,1.4198999-1.5957031,2.4579997-1.8656998l90.8475952-23.6895027   c0.3339996-0.0873995,0.677803-0.1313,1.0195999-0.1313c1.8525238,0,3.4775238,1.2368002,3.9492035,3.0082998l4.8955002,18.3857021   l4.1952972-0.002903l-5.1688995-19.413599C105.8485794,12.4022999,102.5360794,10,98.9374771,10   c-0.6776962,0-1.3661957,0.0853996-2.0487976,0.2631998L6.0409999,33.9525986   c-4.3144188,1.1254997-6.9131184,5.5513-5.7724185,9.8365021l14.165,53.1913986l0.0087996-15.7231979L12.54,74.1147003   c0.4648809-0.1625977,1.1044807-0.3778992,1.9072809-0.6268997l0.0009003-2.1035004   c-1.0205002,0.3037033-1.8348999,0.5731964-2.4277,0.7778015L4.1903811,42.7578011z"></path></g></svg>