<svg enable-background="new 0 0 32 32" height="100" viewBox="0 0 32 32" width="100" xmlns="http://www.w3.org/2000/svg"><path d="m.005 9.266h7.174l-3.587-6.199z"/><path d="m8.281 9.266h7.174l-3.587-6.199z"/><path d="m16.556 9.266h7.174l-3.587-6.199z"/><path d="m24.831 9.266h7.174l-3.587-6.199z"/><path d="m.005 19.099h7.174l-3.587-6.199z"/><path d="m8.281 19.099h7.174l-3.587-6.199z"/><path d="m16.556 19.099h7.174l-3.587-6.199z"/><path d="m24.831 19.099h7.174l-3.587-6.199z"/><path d="m.005 28.933h7.174l-3.587-6.199z"/><path d="m8.281 28.933h7.174l-3.587-6.199z"/><path d="m16.556 28.933h7.174l-3.587-6.199z"/><path d="m24.831 28.933h7.174l-3.587-6.199z"/></svg>