<svg viewBox="0 0 24 24" xmlns="http://www.w3.org/2000/svg"><path d="m7.83 3.866h-1.045a2.915 2.915 0 0 0 -2.92 2.92v8.553a7.912 7.912 0 0 0 3.13 1.043 1.965 1.965 0 0 1 -.21-.835v-6.884c-.104-.104-.104-2.607 1.044-4.797zm12.41 3.963v-1.043a2.915 2.915 0 0 0 -2.92-2.92h-8.448a7.912 7.912 0 0 0 -1.042 3.129c.21-.209.522-.209.835-.209h6.78c.104 0 2.607 0 4.797 1.043zm-4.067 12.412h1.043a2.915 2.915 0 0 0 2.92-2.92v-8.45a7.912 7.912 0 0 0 -3.13-1.043c.21.209.21.521.21.834v6.78c0 .104 0 2.607-1.043 4.798zm-12.412-4.068v1.043a2.915 2.915 0 0 0 2.92 2.92h8.448a7.912 7.912 0 0 0 1.043-3.129c-.208.209-.521.209-.834.209h-6.778c-.104 0-2.607 0-4.797-1.043zm9.492-16.166h-7.51c-3.129 0-5.736 2.607-5.736 5.736 0 0 .209 5.528 2.399 8.135.104.209.313.313.521.522v-7.718a3.85 3.85 0 0 1 3.86-3.86h1.668c.313-.417.626-.73.939-1.042.939-.73 2.399-1.356 3.86-1.773zm10.743 13.246v-7.51c0-3.129-2.607-5.736-5.736-5.736 0 0-5.528.208-8.136 2.398a1.257 1.257 0 0 0 -.521.522h7.718a3.85 3.85 0 0 1 3.859 3.859v1.669c.417.313.73.626 1.043.939.73.938 1.356 2.398 1.773 3.859zm-13.246 10.742h7.51c3.128 0 5.736-2.607 5.736-5.736 0 0-.209-5.528-2.399-8.135-.104-.209-.313-.313-.521-.522v7.718a3.85 3.85 0 0 1 -3.86 3.86h-1.668c-.313.417-.626.73-.939 1.042-.939.73-2.399 1.356-3.86 1.773zm-10.743-13.245v7.509c0 3.129 2.607 5.736 5.736 5.736 0 0 5.528-.208 8.136-2.398.208-.105.313-.313.521-.522h-7.614a3.85 3.85 0 0 1 -3.859-3.859v-1.669c-.417-.313-.73-.626-1.043-.939-.834-.938-1.46-2.398-1.877-3.858z"/></svg>