<svg height='100px' width='100px'  fill="#000000" xmlns="http://www.w3.org/2000/svg" xmlns:xlink="http://www.w3.org/1999/xlink" version="1.1" x="0px" y="0px" viewBox="0 0 100 100" enable-background="new 0 0 100 100" xml:space="preserve"><g><path d="M38.776,22.233c-0.984,0.056-1.884,0.787-2.166,1.715l-7.2,25.617H16.668c-1.266-0.028-2.419,1.125-2.419,2.39   c0,1.237,1.153,2.391,2.419,2.362H31.21c1.013,0.028,2.025-0.731,2.307-1.716l5.119-18.305l9.451,41.645   c0.254,1.012,1.238,1.8,2.278,1.827c1.041,0.028,2.054-0.73,2.335-1.743l9.676-34.98l5.035,11.837   c0.365,0.844,1.266,1.435,2.194,1.435H83.36c1.237,0.028,2.391-1.125,2.391-2.362c0-1.265-1.153-2.417-2.391-2.39h-12.18   L64.12,32.862c-0.394-0.9-1.378-1.49-2.362-1.434c-0.957,0.056-1.856,0.788-2.139,1.744l-8.973,32.478l-9.423-41.588   C40.971,22.993,39.874,22.177,38.776,22.233L38.776,22.233z"></path></g></svg>