<svg width="16" height="16" viewBox="0 0 16 16" xmlns="http://www.w3.org/2000/svg">
<path d="M11.1307 13.5C11.1307 12.7314 11.1307 12.0273 11.0168 10.5253C10.8759 9.01637 10.1108 8.25155 8.80222 7.98283C10.3524 7.77612 11.5 6.53588 11.5 4.63417C11.5 2.09166 9.86924 0.5 6.58763 0.5H0.5V3.14975H5.98365C7.43319 3.14975 8.15798 3.78859 8.15798 4.8428C8.15798 6.04171 7.43319 6.49454 5.98365 6.49454H0.5V9.20241H5.82258C6.97014 9.20241 7.59425 9.53313 7.69491 11.0215C7.77107 12.0379 7.76153 12.5413 7.75238 13.024L7.75234 13.0261C7.7494 13.1807 7.74651 13.3333 7.74651 13.5L11.1307 13.5Z" />
<path d="M0.5 11.4813V13.5H4.80574V12.208C4.80574 11.9366 4.67596 11.4813 4.07826 11.4813H0.5Z"/>
</svg>
