<svg xmlns="http://www.w3.org/2000/svg" width="64" height="64" viewBox="0 0 64 64">
  <g fill="none" fill-rule="evenodd">
    <path fill="#FC5C52" fill-rule="nonzero" d="M45.6,42.1333333 C50.3111111,45.1555556 52.4444444,49.4222222 52.4444444,55.5555556 C48.4444444,60.6222222 41.6,63.3777778 33.5111111,63.3777778 C19.9111111,63.3777778 10.2222222,56.6222222 8.17777778,44.9777778 L21.2444444,44.9777778 C22.9333333,50.3111111 27.3777778,52.8 33.4222222,52.8 C40.6222222,52.8888889 45.5111111,48.9777778 45.6,42.1333333 Z M31.6444444,0.355555556 C45.6,0.355555556 53.6,7.73333333 55.6444444,18.0444444 L43.0222222,18.0444444 C41.6,13.9555556 38.1333333,10.7555556 31.8222222,10.7555556 C24.9777778,10.8444444 20.3555556,14.7555556 20.0888889,20.9777778 C15.6444444,18.3111111 13.0666667,13.5111111 13.2444444,8.35555556 C17.0666667,3.37777778 23.6444444,0.355555556 31.6444444,0.355555556 Z"/>
    <path fill="#FA1607" fill-rule="nonzero" d="M13.2444444,8.44444444 C13.2444444,16.8888889 18.4888889,21.9555556 28.9777778,24.6222222 L40.0888889,27.2 C50.0444444,29.5111111 56.0888889,35.2 56.0888889,44.4444444 C56.1777778,48.4444444 54.8444444,52.3555556 52.4444444,55.5555556 C52.4444444,46.3111111 47.6444444,41.3333333 36.1777778,38.3111111 L25.2444444,35.8222222 C16.4444444,33.8666667 9.68888889,29.1555556 9.68888889,19.1111111 C9.68888889,15.2888889 10.9333333,11.4666667 13.2444444,8.44444444"/>
  </g>
</svg>
