<svg height="64" viewBox="0 0 64 64" width="64" xmlns="http://www.w3.org/2000/svg"><g fill="none" fill-rule="nonzero"><path d="m45.6 42.1333333c4.7111111 3.0222223 6.8444444 7.2888889 6.8444444 13.4222223-4 5.0666666-10.8444444 7.8222222-18.9333333 7.8222222-13.6 0-23.2888889-6.7555556-25.33333332-18.4h13.06666662c1.6888889 5.3333333 6.1333334 7.8222222 12.1777778 7.8222222 7.2.0888889 12.0888889-3.8222222 12.1777778-10.6666667zm-13.9555556-41.77777774c13.9555556 0 21.9555556 7.37777777 24 17.68888884h-12.6222222c-1.4222222-4.0888888-4.8888889-7.2888888-11.2-7.2888888-6.8444444.0888888-11.4666666 4-11.7333333 10.2222222-4.4444445-2.6666667-7.0222222-7.4666667-6.8444445-12.62222224 3.8222223-4.97777778 10.4-8 18.4-8z" fill="#fc5c52"/><path d="m13.2444444 8.44444444c0 8.44444446 5.2444445 13.51111116 15.7333334 16.17777776l11.1111111 2.5777778c9.9555555 2.3111111 16 8 16 17.2444444.0888889 4-1.2444445 7.9111112-3.6444445 11.1111112 0-9.2444445-4.8-14.2222223-16.2666666-17.2444445l-10.9333334-2.4888889c-8.8-1.9555555-15.55555551-6.6666666-15.55555551-16.7111111 0-3.8222222 1.24444441-7.6444444 3.55555551-10.66666666" fill="#fa1607"/></g></svg>