<svg viewBox="0 0 4960.5977 4960.5664" xmlns="http://www.w3.org/2000/svg" xmlns:xlink="http://www.w3.org/1999/xlink"><linearGradient id="a" gradientTransform="matrix(20.4786 0 0 -20.4786 7547.1726 341611.63)" gradientUnits="userSpaceOnUse" x1="-368.53949" x2="-126.3063" y1="16560.281" y2="16560.281"><stop offset="0" stop-color="#007c42"/><stop offset="1" stop-color="#6cce7a"/></linearGradient><path d="m3851.8587 4933.0433c-57.46 23.9-120.146 32.45-181.906 24.806-773.88-103.355-1509.856-397.746-2141.531-856.612-648.51302-472.885-1164.00002-1105.141-1496.591021-1835.601-53.005-116.381-39.0960004-252.307 36.381-355.543 985.096021-1343.06099 2610.360021-2060.56999 4266.526021-1883.554995 130.382 13.449 242.513 98.186005 291.05 219.941005 305.933 762.76399 404.635 1592.88699 286.089 2406.12099-115.519 789.172-430.253 1535.885-914.492 2169.643-38.334 48.673-88.41 86.799-145.526 110.8z" fill="url(#a)"/><g fill="#fff"><path d="m3851.8587 3295.8903c-12.972-1.172-25.749-3.947-38.035-8.271-99.967-35.081-152.569-144.558-117.49-244.526.027-.072.052-.146.078-.221 61.186-168.676 4.961-246.4-13.229-272.86-148.833-206.71-649.902-226.554-858.267-224.899-510.99 4.959-854.958-120.721-1018.674-372.082-163.716-251.359-100.875-519.26-42.996-649.9 48.825-94.025 164.625-130.664 258.647-81.836 85.419 44.355 124.743 145.145 91.936 235.629-1.654 6.613-66.149 168.678 13.229 287.742 79.377 119.066 334.045 200.096 694.55 198.441 593.677-4.961 987.254 125.682 1174.123 385.311 122.373 171.985 145.524 388.618 62.84 621.789-29.943 85.966-116.609 138.661-206.712 125.683z"/><path d="m2323.8467 1291.6133c169.636-57.977 348.342-84.867 527.528-79.377 396.886 11.574 631.71 145.525 879.765 469.648 25.541 33.195 61.756 56.559 102.528 66.146 97.105 21.93 193.602-39.016 215.528-136.121 11.682-51.734-.012-105.986-31.968-148.314-395.232-515.95099-805.349-600.28699-1155.931-610.21099-227.275-7.727-453.959 27.621-668.091 104.184-91.777 36.086-136.935 139.72899-100.875 231.51399 36.136 91.751 139.291 137.435 231.516 102.531z" opacity=".7"/><path d="m3489.6997 3409.9923c-169.855 56.932-348.471 83.246-527.528 77.725-396.886-11.578-722.663-181.908-970.718-506.03-65.025-75.38-178.845-83.772-254.224-18.746-69.057 59.572-82.738 161.341-31.864 237.034 284.436 372.081 625.096 539.102 922.76 606.903 106.371 24.442 214.998 37.741 324.124 39.688 227.085 6.832 453.505-27.917 668.092-102.529 92.244-36.075 137.778-140.098 101.702-232.342-36.075-92.246-140.098-137.78-232.344-101.703z" opacity=".7"/></g></svg>