<svg xmlns="http://www.w3.org/2000/svg" xmlns:xlink="http://www.w3.org/1999/xlink" version="1.1" x="0px" y="0px" viewBox="0 0 32 32" enable-background="new 0 0 32 32" xml:space="preserve"><g><g><path d="M25.427,17.25c-0.597,0-1.133,0.263-1.5,0.679c-0.367-0.416-0.903-0.679-1.5-0.679c-0.412,0-0.794,0.125-1.112,0.339    c-0.274-0.779-1.017-1.339-1.888-1.339c-0.364,0-0.706,0.098-1,0.269V10.75c0-1.103-0.897-2-2-2s-2,0.897-2,2v8.495l-2.586-1.956    c-0.756-0.756-2.074-0.757-2.828,0c-0.78,0.779-0.78,2.049-0.01,2.818l7.208,7.643h9.106l2.094-8.379l0.015-0.121    C27.427,18.147,26.53,17.25,25.427,17.25z M24.536,26.75h-7.894L9.72,19.411c-0.39-0.391-0.39-1.025,0-1.415    c0.379-0.377,0.986-0.421,1.465,0.045l4.242,3.216V10.75c0-0.552,0.449-1,1-1s1,0.448,1,1v7.5h1c0-0.552,0.449-1,1-1s1,0.448,1,1    v1h1c0-0.552,0.449-1,1-1s1,0.448,1,1h1c0-0.552,0.449-1,1-1c0.533,0,0.97,0.419,0.999,0.944L24.536,26.75z"></path><polygon points="10.573,9.896 8.427,12.043 8.427,4.25 7.427,4.25 7.427,12.043 5.28,9.896 4.573,10.604 7.927,13.957     11.28,10.604   "></polygon></g></g></svg>