<svg height="31" viewBox="0 0 27 31" width="27" xmlns="http://www.w3.org/2000/svg"><path d="m24.7 7.1-10-5.8c-.9-.5-2.3-.5-3.2 0l-10 5.8c-.8.6-1.5 1.8-1.5 2.8v11.5c0 1 .7 2.2 1.6 2.7l10 5.8c.9.5 2.3.5 3.2 0l10-5.8c.9-.5 1.6-1.7 1.6-2.7v-11.5c-.1-1-.8-2.2-1.7-2.8zm-2.7 6.3h-1v-1.8c0-1.3-1-1.8-3-1.8h-.1c-4.8 0-4.4-1.8-4.5-2.5h-.1c-.1.7.3 2.5-4.5 2.5h-.1c-2 0-3 .4-3 1.8v1.4l16.3 4.7v2c0 1.9-.9 3-4.1 3h-.2c-2.4 0-4 .5-4 2.5h-1c0-1.9-1.5-2.5-4-2.5-3.1 0-4.1-1.1-4.1-3v-1.7h1v1.8c0 1.3 1 1.8 3 1.8h.1c4.8 0 4.4 1.8 4.5 2.5h.1c.1-.7-.3-2.5 4.5-2.5h.2c2 0 3-.4 3-1.8v-1l-16.4-4.8v-2.3c0-1.9.9-3 4.1-3h.2c2.5 0 4-.5 4-2.5h1c0 1.9 1.5 2.5 4 2.5h.1c3.1 0 4.1 1.1 4.1 3z" fill="#f6e767"/></svg>