<svg viewBox="0 0 130 106" xmlns="http://www.w3.org/2000/svg" xmlns:xlink="http://www.w3.org/1999/xlink"><clipPath id="a"><path clip-rule="evenodd" d="m115.55 61-50.07 27.93-51.06-27.93a4 4 0 1 0 -3.84 7l53 29a4 4 0 0 0 3.87 0l52-29a4 4 0 1 0 -3.9-7zm-94.93-18.5 44.86-25.39 50.02 28.89a4 4 0 1 0 4-6.93l-52-30.07a4 4 0 0 0 -4 0l-53 30a4 4 0 0 0 0 7l53 30a4 4 0 1 0 3.94-7zm-20.62 21v-20a12.41 12.41 0 0 1 6.3-11.88l53-30a12.5 12.5 0 0 1 12.4.05l52 30a12.5 12.5 0 0 1 6.3 11.83v20a12.5 12.5 0 0 1 -6.37 11.92l-52 29a12.5 12.5 0 0 1 -12.09 0l-53-29a12.5 12.5 0 0 1 -6.54-11.92z"/></clipPath><clipPath id="b"><path d="m-53.5-294.5h720v512h-720z"/></clipPath><g clip-path="url(#a)"><g clip-path="url(#b)"><path d="m-2.5-2.5h135v111h-135z" fill="#3eb0fd"/></g></g></svg>