<svg height="606" viewBox="0 0 605.99999 606" width="606" xmlns="http://www.w3.org/2000/svg" xmlns:xlink="http://www.w3.org/1999/xlink"><linearGradient id="a" gradientUnits="userSpaceOnUse" x1="320.9115" x2="320.9115" y1="107.7329" y2="543.90698"><stop offset="0" stop-color="#8fd7fd"/><stop offset="1" stop-color="#48bdfe"/></linearGradient><linearGradient id="b" gradientUnits="userSpaceOnUse" x1="499.07101" x2="499.07101" y1="198.06799" y2="712.91803"><stop offset="0" stop-color="#d792fd"/><stop offset="1" stop-color="#bf4bff"/></linearGradient><linearGradient id="c" gradientUnits="userSpaceOnUse" x1="410.04541" x2="410.04541" y1="198.06799" y2="543.89838"><stop offset="0" stop-color="#ac83ff"/><stop offset="1" stop-color="#7849d8"/></linearGradient><linearGradient id="d" gradientUnits="userSpaceOnUse" x1="486.59949" x2="518.72467" y1="581.44818" y2="521.02948"><stop offset="0" stop-color="#a632e6"/><stop offset=".1817" stop-color="#a939e9" stop-opacity=".7515"/><stop offset=".4481" stop-color="#b14df0" stop-opacity=".3873"/><stop offset=".7314" stop-color="#bd69fa" stop-opacity="0"/></linearGradient><g transform="translate(-107.8 -107.7)"><path d="m409.9 107.7c-101.4 20.3-178.1 110.6-178.1 218.4 0 100.6 66.8 185.9 158.2 213.3 4.8 1.6 9.7 2.9 14.8 3.9l5.2.6" fill="url(#a)"/><path d="m409.9 634.7 97.8 78.3 69.7-61.7-75.1-59c52.2-40.8 85.9-104.5 85.9-175.9 0-103.8-71-191.2-166.9-215.8-3.6-1.1-8.6-1.8-11.4-2.6" fill="url(#b)"/><path d="m409.9 198.1c-31.9 11.3-58.1 34.1-73.7 63.5-10 18.8-15.6 40.1-15.6 62.8 0 11 1.3 21.6 3.7 31.7 10.6 44.2 43 79.5 85.5 94.5v93.2c52.3-18.3 89.5-68.2 89.5-126.3 0-58.6-37.1-107.8-89.5-126.3" fill="url(#c)"/><path d="m502.3 592.3c12-9.4 23-20 32.9-31.6l-69.6-54.2c-10 11.3-21.9 20.9-35.3 28.2l113.7 90.9c.1-.1.3-.2.4-.3z" fill="url(#d)"/></g></svg>