<svg height="103" viewBox="0 0 103 103" width="103" xmlns="http://www.w3.org/2000/svg"><g fill="#09b3af" transform="translate(8)"><path d="m51.8 49h-20.8v10h20.3c1.2 0 2.3-.5 3.2-1.3.8-.8 1.3-2 1.3-3.5.0290035-1.2869292-.3566499-2.5490677-1.1-3.6-.8-1-1.7-1.6-2.9-1.6zm.7-12.1c.9-.6 1.3-1.9 1.3-3.6 0-1.5-.4-2.6-1.1-3.3-.7-.6-1.6-1-2.6-1h-19.1v9h18.7c1 0 2-.5 2.8-1.1z"/><path d="m83 0h-78.5c-2.5 0-4.5 2-4.5 4.4v78.6c0 2.4 2 3.9 4.4 3.9h11.6v15.7l14.4-15.6h52.6c2.4 0 3.9-1.5 3.9-4v-78.5c0-2.4-1.5-4.4-4-4.4zm-13.2 63.7c-1 1.8-2.5 3.3-4.3 4.4-1.9 1.2-4 2.3-6.4 2.8-2.4.6-5 1.1-7.7 1.1h-35.4v-56h40.2c2 0 3.7.4 5.3 1.3 1.5.8 2.9 1.9 4 3.2 2.2403434 2.7320077 3.4444137 6.1671496 3.4 9.7 0 2.6-.7 5.1-2 7.5-1.3477735 2.4140117-3.4578464 4.3130773-6 5.4 3.2.9 5.7 2.5 7.6 4.8 1.8 2.4 2.7 5.5 2.7 9.4 0 2.5-.5 4.6-1.5 6.4z"/></g></svg>