<svg width="30" height="30" viewBox="0 0 30 30" fill="none" xmlns="http://www.w3.org/2000/svg">
<g clip-path="url(#clip0_29_1262)">
<g clip-path="url(#clip1_29_1262)">
<g clip-path="url(#clip2_29_1262)">
<path d="M14.9994 29.4076C22.9565 29.4076 29.407 22.9571 29.407 15C29.407 7.0429 22.9565 0.592407 14.9994 0.592407C7.04229 0.592407 0.591797 7.0429 0.591797 15C0.591797 22.9571 7.04229 29.4076 14.9994 29.4076Z" fill="url(#paint0_linear_29_1262)"/>
<path fill-rule="evenodd" clip-rule="evenodd" d="M9.73912 21.4154C8.13028 20.5776 6.25025 20.0963 4.24167 20.0963C-1.69997 20.0963 1.04263 25.6872 5.3791 26.6588" fill="#015064"/>
<path fill-rule="evenodd" clip-rule="evenodd" d="M20.7296 21.4154C22.3385 20.5776 24.2185 20.0963 26.2271 20.0963C32.1687 20.0963 29.4261 25.6872 25.0896 26.6588" fill="#015064"/>
<path d="M9.73817 21.4154C8.12933 20.5776 6.2493 20.0963 4.24072 20.0963C-1.70093 20.0963 -6.51758 24.3076 -6.51758 29.5024" stroke="#00CFE2" stroke-width="1.18483"/>
<path d="M8.18379 22.5491C6.96282 22.1283 5.63264 21.8972 4.24072 21.8972C-1.70093 21.8972 -6.51758 26.1085 -6.51758 31.3033" stroke="#00A8B8" stroke-width="1.18483"/>
<path d="M6.92879 23.8994C6.0696 23.7062 5.16888 23.6034 4.24072 23.6034C-1.70093 23.6034 -6.51758 27.8146 -6.51758 33.0095" stroke="#007782" stroke-width="1.18483"/>
<path d="M36.5151 29.5024C36.5151 24.3076 31.6984 20.0963 25.7568 20.0963C23.7776 20.0963 21.9232 20.5636 20.3301 21.3789" stroke="#00CFE2" stroke-width="1.18483"/>
<path d="M36.516 31.3033C36.516 26.1085 31.6993 21.8972 25.7577 21.8972C24.3456 21.8972 22.9971 22.1351 21.7617 22.5674" stroke="#00A8B8" stroke-width="1.18483"/>
<path d="M36.5164 33.0095C36.5164 27.8146 31.6998 23.6034 25.7582 23.6034C24.8722 23.6034 24.0112 23.697 23.1875 23.8736" stroke="#007782" stroke-width="1.18483"/>
<path d="M19.6387 19.3983L18.6166 20.1532" stroke="#830305" stroke-width="0.327279" stroke-linecap="square" stroke-linejoin="bevel"/>
<path d="M15.873 18.2631L14.7501 19.7156" stroke="#830305" stroke-width="0.327279" stroke-linecap="square" stroke-linejoin="bevel"/>
<path d="M16.8947 18.9933L17.7633 19.9547" stroke="#830305" stroke-width="0.327279" stroke-linecap="square" stroke-linejoin="bevel"/>
<path fill-rule="evenodd" clip-rule="evenodd" d="M17.0039 18.3076L19.8891 18.7646C20.0605 18.8243 20.1324 18.9418 20.1046 19.1171C20.0769 19.2923 19.9708 19.3911 19.7863 19.4133L16.6558 18.9174L14.9328 17.2019C14.8363 17.0608 14.8417 16.9349 14.9488 16.8239C15.0559 16.713 15.1898 16.6898 15.3504 16.7543L17.0039 18.3076Z" fill="url(#paint1_linear_29_1262)"/>
<path fill-rule="evenodd" clip-rule="evenodd" d="M16.5202 17.7613L16.6693 17.9013L16.4872 18.091C16.448 18.1318 16.3833 18.1331 16.3425 18.094C16.3018 18.0549 16.3005 17.9901 16.3396 17.9494L16.5202 17.7613ZM15.8912 17.1703L16.0403 17.3104L15.8607 17.51C15.8229 17.552 15.7583 17.5554 15.7163 17.5176C15.6743 17.4798 15.6709 17.4151 15.7087 17.3732L15.8912 17.1703ZM19.4464 18.6396L19.6486 18.6717L19.5942 18.9629C19.5838 19.0185 19.5304 19.0551 19.4749 19.0447C19.4193 19.0343 19.3827 18.9809 19.3931 18.9254L19.4464 18.6396ZM18.4765 18.486L18.6786 18.518L18.6198 18.8327C18.6094 18.8882 18.556 18.9248 18.5005 18.9144C18.4449 18.904 18.4083 18.8506 18.4187 18.7951L18.4765 18.486ZM17.5265 18.3356L17.7298 18.3678L17.6427 18.6832C17.6277 18.7376 17.5713 18.7696 17.5169 18.7545C17.4624 18.7395 17.4305 18.6832 17.4455 18.6287L17.5265 18.3356Z" fill="white"/>
<path d="M11.5941 10.161C11.5659 10.0929 11.4993 9.99377 11.4013 9.87576C11.3021 9.75628 11.18 9.62841 11.058 9.5109C10.9359 9.39338 10.8161 9.28837 10.7222 9.21433C10.6988 9.19591 10.6777 9.17986 10.6589 9.16626C10.6544 9.17831 10.6496 9.19169 10.6447 9.20645C10.6116 9.30558 10.5775 9.44423 10.5481 9.59665C10.5188 9.74837 10.4948 9.90967 10.4809 10.0529C10.4673 10.1935 10.4644 10.3071 10.4721 10.3763C11.2978 13.5641 11.7258 16.8965 11.4972 20.1399L11.7819 20.4602L13.6941 20.0646L13.924 19.5858C13.1711 17.1292 12.5968 14.5866 12.0239 12.0503C11.8815 11.4197 11.7391 10.7894 11.5941 10.161ZM10.584 9.11817C10.5802 9.11651 10.5808 9.11718 10.5847 9.11848L10.584 9.11817Z" fill="url(#paint2_linear_29_1262)" stroke="#6E3A00" stroke-width="0.28436"/>
<path d="M6.04377 7.9384C7.01533 8.98106 8.53192 9.4076 10.3329 8.673C9.12434 6.89575 7.41818 6.99053 6.04377 7.9384Z" fill="url(#paint3_linear_29_1262)"/>
<path d="M5.21416 14.2892C7.48904 12.0617 8.62648 10.7584 10.3326 8.67305C6.84923 8.29391 4.55065 10.3555 5.21416 14.2892Z" fill="url(#paint4_linear_29_1262)"/>
<path d="M8.29345 16.4455C10.5209 13.2227 10.7105 11.5639 10.3551 8.72034C7.55885 9.76299 6.80056 13.0094 8.29345 16.4455Z" fill="url(#paint5_linear_29_1262)"/>
<path d="M17.3467 9.85787C14.8585 9.52611 13.0102 9.36024 10.3324 8.67303C12.1571 6.32706 16.7542 6.16119 17.3467 9.85787Z" fill="url(#paint6_linear_29_1262)"/>
<path d="M10.3407 8.68566C11.8526 10.9063 12.8984 12.4423 16.6354 13.2702C16.1378 10.0948 13.1994 7.70143 10.3321 8.673L10.3407 8.68566Z" fill="url(#paint7_linear_29_1262)"/>
<path d="M13.4354 5.52129C13.1036 7.29854 11.9899 7.6066 10.3311 8.67295C10.1415 6.27959 12.8667 5.30802 13.4354 5.52129Z" fill="url(#paint8_linear_29_1262)"/>
<path d="M13.6713 5.33166L13.5949 5.6442C13.4876 6.08324 13.3577 6.46644 13.2045 6.79388L13.1906 6.82305L13.1934 6.82264C13.7445 6.73874 14.3021 6.77619 14.8638 6.93476L14.9021 6.94576C16.5162 7.41709 17.4626 8.38055 17.7029 9.81558L17.7568 10.1373L17.433 10.0976C16.5559 9.99023 15.8107 9.89819 15.1974 9.8215L15.1671 9.8177L15.1952 9.84708C16.0856 10.7863 16.6518 11.8997 16.8906 13.1827L16.8989 13.228L16.9628 13.5835L16.6092 13.5095C14.7062 13.1112 13.3193 12.4777 12.4509 11.5992C11.8259 10.9669 11.2492 10.295 10.7209 9.58356L10.6927 9.54534L10.6938 9.56809C10.7467 10.7012 10.7079 11.6227 10.576 12.3349L10.5701 12.3662C10.3973 13.2723 9.70152 14.6923 8.48075 16.647L8.21881 17.0664L8.04587 16.6031C7.4983 15.1362 7.27645 13.7651 7.38297 12.4912L7.38499 12.4676C6.86736 13.0026 6.22835 13.6478 5.46736 14.4037L5.42496 14.4459L5.05663 14.8116L5.01064 14.2946C4.79576 11.8793 5.25339 10.2307 6.41409 9.3742C6.6246 9.21886 6.84979 9.08375 7.08797 8.9677L7.11452 8.9549L7.10546 8.95003C6.75815 8.76041 6.38175 8.49524 5.97473 8.15487L5.94074 8.12633L5.68974 7.91474L5.96497 7.73581C6.978 7.07721 7.89996 6.8573 8.72286 7.09615C9.17207 7.22654 9.57564 7.46447 9.93284 7.77742C10.004 7.83976 10.0716 7.90363 10.1358 7.96845L10.158 7.99122L10.1604 7.96851C10.2409 7.22257 10.5553 6.62927 11.1047 6.20202L11.1265 6.18524C11.8261 5.65262 12.5689 5.3701 13.3497 5.34287L13.6713 5.33166ZM8.58703 7.56409C7.99112 7.39111 7.30541 7.52004 6.52425 7.96503L6.51829 7.96844L6.53473 7.98135C7.01116 8.35367 7.43051 8.6017 7.78942 8.72621L7.81225 8.73399L8.49648 8.96298L7.81349 9.19563C7.40535 9.33466 7.03271 9.52326 6.70338 9.76627C5.78694 10.4425 5.36435 11.7548 5.45941 13.723L5.45944 13.724L5.49301 13.6906C6.34381 12.8413 7.02328 12.1478 7.53158 11.6099L7.55528 11.5848L8.14602 10.9588L7.97101 11.8016C7.96342 11.8381 7.9563 11.8749 7.94964 11.912C7.72962 13.1376 7.85399 14.4755 8.32586 15.9275L8.3349 15.9553L8.34329 15.9416C9.35156 14.284 9.93318 13.0648 10.0865 12.2999L10.0914 12.2749C10.2447 11.4713 10.2707 10.3543 10.1672 8.92817L10.1664 8.91705L9.99423 8.5374L9.96859 8.50675C9.87244 8.39334 9.76428 8.2807 9.64466 8.17312L9.61175 8.14391C9.30484 7.87501 8.96211 7.67296 8.58703 7.56409ZM13.0326 5.85988L13.031 5.86018C12.4755 5.94173 11.94 6.17831 11.4216 6.57293C10.9079 6.96401 10.6426 7.53134 10.6274 8.295L10.6271 8.31315L10.7126 8.7229C11.588 9.88662 12.2614 10.7094 12.733 11.1911L12.7974 11.2567C13.5332 12.001 14.7117 12.5679 16.335 12.9496L16.3438 12.9516L16.3411 12.9401C16.0462 11.7114 15.4133 10.6636 14.4387 9.79125L14.4061 9.76224C14.3699 9.73024 14.334 9.69951 14.2983 9.66997L13.6509 9.13456L14.4843 9.24056C15.1297 9.32265 16.0047 9.43149 17.1094 9.56706L17.152 9.57224L17.1517 9.57129C16.8675 8.52266 16.0958 7.81264 14.8086 7.42624L14.7655 7.41347C14.0897 7.21614 13.428 7.21743 12.7744 7.41681L12.1007 7.62233L12.5034 7.04448C12.7075 6.75171 12.882 6.36524 13.0252 5.88526L13.0326 5.85988Z" fill="#2F8A00"/>
<path d="M10.461 8.59239C9.80856 9.62835 9.36385 10.572 9.12691 11.4233C8.88996 12.2746 8.7418 12.9846 8.68242 13.5534" stroke="#2F8A00" stroke-width="0.278401" stroke-linecap="round"/>
<path d="M10.4612 8.59239C8.79243 9.33653 7.79717 10.7346 7.62607 11.9515" stroke="#2F8A00" stroke-width="0.42654" stroke-linecap="round"/>
<path d="M10.4598 8.59241C8.95687 8.59241 7.34549 8.69673 6.01848 10.1422" stroke="#2F8A00" stroke-width="0.42654" stroke-linecap="round"/>
<path d="M10.3922 8.75285C8.34242 8.86256 7.20498 10.1185 6.29512 11.6919" stroke="#2F8A00" stroke-width="0.278401" stroke-linecap="round"/>
<path d="M10.582 8.54349C11.943 7.77258 14.2653 7.6067 15.6155 8.63856" stroke="#2F8A00" stroke-width="0.278401" stroke-linecap="round"/>
<path d="M10.5823 8.54339C11.2087 7.79618 12.8201 6.65874 14.9765 7.18007" stroke="#2F8A00" stroke-width="0.379147" stroke-linecap="round"/>
<path d="M10.4609 8.59924C12.061 9.26541 13.4828 10.1422 14.6927 11.3998" stroke="#2F8A00" stroke-width="0.278401" stroke-linecap="round"/>
<path d="M10.4651 8.59887C12.915 8.31757 13.9103 8.83889 15.2172 10.1946" stroke="#2F8A00" stroke-width="0.420379" stroke-linecap="round"/>
<path d="M15.0471 48.2939C21.8656 48.2939 27.3931 41.854 27.3931 33.91C27.3931 25.966 21.8656 19.5261 15.0471 19.5261C8.22865 19.5261 2.70117 25.966 2.70117 33.91C2.70117 41.854 8.22865 48.2939 15.0471 48.2939Z" fill="url(#paint9_linear_29_1262)"/>
<path d="M15.0475 47.0616C21.2901 47.0616 26.3508 41.1734 26.3508 33.91C26.3508 26.6465 21.2901 20.7583 15.0475 20.7583C8.80481 20.7583 3.74414 26.6465 3.74414 33.91C3.74414 41.1734 8.80481 47.0616 15.0475 47.0616Z" fill="url(#paint10_linear_29_1262)"/>
<path fill-rule="evenodd" clip-rule="evenodd" d="M19.252 2.0912C19.0982 2.05928 18.9477 2.15806 18.9158 2.31184C18.8839 2.46561 18.9826 2.61613 19.1364 2.64805L20.3923 2.90871C20.5461 2.94063 20.6966 2.84184 20.7286 2.68807C20.7605 2.5343 20.6617 2.38377 20.5079 2.35186L19.252 2.0912ZM20.5686 4.21798C20.5686 4.06093 20.4413 3.93362 20.2843 3.93362H18.8625C18.7054 3.93362 18.5781 4.06093 18.5781 4.21798C18.5781 4.37503 18.7054 4.50234 18.8625 4.50234H20.2843C20.4413 4.50234 20.5686 4.37503 20.5686 4.21798ZM20.3982 5.50783C20.5496 5.46607 20.7062 5.55494 20.748 5.70633C20.7897 5.85773 20.7009 6.01431 20.5495 6.05607L19.1751 6.43522C19.0237 6.47699 18.8671 6.38811 18.8253 6.23672C18.7835 6.08533 18.8724 5.92874 19.0238 5.88698L20.3982 5.50783ZM21.2452 7.1157C21.1704 6.97761 20.9978 6.9263 20.8597 7.0011L19.7223 7.61722C19.5842 7.69202 19.5329 7.8646 19.6077 8.00269C19.6825 8.14078 19.8551 8.19209 19.9931 8.11729L21.1306 7.50117C21.2687 7.42638 21.32 7.25379 21.2452 7.1157ZM21.842 8.32461C21.9558 8.21644 22.1358 8.22106 22.244 8.33492C22.3522 8.44878 22.3476 8.62877 22.2337 8.73693L21.2858 9.63741C21.172 9.74557 20.992 9.74096 20.8838 9.6271C20.7756 9.51324 20.7803 9.33325 20.8941 9.22508L21.842 8.32461ZM23.4825 9.37758C23.3481 9.29623 23.1733 9.3392 23.0919 9.47353L22.4363 10.5563C22.355 10.6907 22.3979 10.8655 22.5323 10.9468C22.6666 11.0282 22.8414 10.9852 22.9228 10.8509L23.5784 9.76811C23.6598 9.63377 23.6168 9.45892 23.4825 9.37758ZM24.6333 10.296C24.6793 10.1458 24.8383 10.0613 24.9885 10.1073C25.1386 10.1533 25.2231 10.3123 25.1771 10.4624L24.8217 11.6236C24.7757 11.7737 24.6167 11.8582 24.4665 11.8122C24.3164 11.7663 24.2319 11.6073 24.2779 11.4571L24.6333 10.296ZM27.0615 10.8472C27.0583 10.6902 26.9284 10.5655 26.7714 10.5687C26.6144 10.5719 26.4897 10.7018 26.4929 10.8588L26.5166 12.02C26.5198 12.177 26.6497 12.3017 26.8067 12.2985C26.9637 12.2953 27.0884 12.1654 27.0852 12.0084L27.0615 10.8472Z" fill="url(#paint11_radial_29_1262)"/>
<path d="M26.8479 9.62084C29.8187 9.62084 32.227 7.21252 32.227 4.2417C32.227 1.27087 29.8187 -1.13745 26.8479 -1.13745C23.8771 -1.13745 21.4688 1.27087 21.4688 4.2417C21.4688 7.21252 23.8771 9.62084 26.8479 9.62084Z" fill="url(#paint12_linear_29_1262)"/>
<path d="M26.8479 8.90998C29.4261 8.90998 31.5162 6.81993 31.5162 4.24173C31.5162 1.66353 29.4261 -0.426514 26.8479 -0.426514C24.2697 -0.426514 22.1797 1.66353 22.1797 4.24173C22.1797 6.81993 24.2697 8.90998 26.8479 8.90998Z" fill="#D9D9D9"/>
<path d="M26.8479 8.90998C29.4261 8.90998 31.5162 6.81993 31.5162 4.24173C31.5162 1.66353 29.4261 -0.426514 26.8479 -0.426514C24.2697 -0.426514 22.1797 1.66353 22.1797 4.24173C22.1797 6.81993 24.2697 8.90998 26.8479 8.90998Z" fill="url(#paint13_linear_29_1262)"/>
</g>
<path d="M14.9994 29.4076C22.9565 29.4076 29.407 22.9571 29.407 15C29.407 7.0429 22.9565 0.592407 14.9994 0.592407C7.04229 0.592407 0.591797 7.0429 0.591797 15C0.591797 22.9571 7.04229 29.4076 14.9994 29.4076Z" stroke="black" stroke-width="1.18483"/>
</g>
</g>
<defs>
<linearGradient id="paint0_linear_29_1262" x1="14.9994" y1="0.592407" x2="14.9994" y2="29.4076" gradientUnits="userSpaceOnUse">
<stop stop-color="#7DDEF5"/>
<stop offset="0.24" stop-color="#F9FEB4"/>
<stop offset="0.5" stop-color="#FFA972"/>
<stop offset="0.665" stop-color="#FF7873"/>
</linearGradient>
<linearGradient id="paint1_linear_29_1262" x1="15.0169" y1="18.7227" x2="19.9555" y2="19.1888" gradientUnits="userSpaceOnUse">
<stop stop-color="#EF2702"/>
<stop offset="1" stop-color="#FF008E"/>
</linearGradient>
<linearGradient id="paint2_linear_29_1262" x1="12.7209" y1="19.8029" x2="10.6345" y2="9.80875" gradientUnits="userSpaceOnUse">
<stop stop-color="#B65E00"/>
<stop offset="1" stop-color="#683900"/>
</linearGradient>
<linearGradient id="paint3_linear_29_1262" x1="8.24756" y1="7.15641" x2="8.10538" y2="8.79148" gradientUnits="userSpaceOnUse">
<stop offset="0.126156" stop-color="#369206"/>
<stop offset="1" stop-color="#82EF4B"/>
</linearGradient>
<linearGradient id="paint4_linear_29_1262" x1="7.67861" y1="9.17068" x2="5.97245" y2="14.0759" gradientUnits="userSpaceOnUse">
<stop stop-color="#369206"/>
<stop offset="0.912685" stop-color="#82EF4B"/>
</linearGradient>
<linearGradient id="paint5_linear_29_1262" x1="10.047" y1="9.14688" x2="8.29345" y2="16.4455" gradientUnits="userSpaceOnUse">
<stop stop-color="#369206"/>
<stop offset="0.96319" stop-color="#82EF4B"/>
</linearGradient>
<linearGradient id="paint6_linear_29_1262" x1="15.4509" y1="9.47872" x2="15.4035" y2="7.01427" gradientUnits="userSpaceOnUse">
<stop stop-color="#82EF4B"/>
<stop offset="1" stop-color="#369206"/>
</linearGradient>
<linearGradient id="paint7_linear_29_1262" x1="14.2657" y1="12.6777" x2="13.7444" y2="8.90997" gradientUnits="userSpaceOnUse">
<stop stop-color="#82EF4B"/>
<stop offset="0.978252" stop-color="#369206"/>
</linearGradient>
<linearGradient id="paint8_linear_29_1262" x1="11.7529" y1="5.80565" x2="11.9425" y2="8.17532" gradientUnits="userSpaceOnUse">
<stop stop-color="#369206"/>
<stop offset="1" stop-color="#82EF4B"/>
</linearGradient>
<linearGradient id="paint9_linear_29_1262" x1="18.4358" y1="20.8531" x2="5.16563" y2="25.8768" gradientUnits="userSpaceOnUse">
<stop offset="0.0646934" stop-color="#B6CC00"/>
<stop offset="1" stop-color="#6EA300"/>
</linearGradient>
<linearGradient id="paint10_linear_29_1262" x1="13.6967" y1="31.2796" x2="19.0996" y2="21.7062" gradientUnits="userSpaceOnUse">
<stop offset="0.110186" stop-color="#69A000"/>
<stop offset="1" stop-color="#F0EC00"/>
</linearGradient>
<radialGradient id="paint11_radial_29_1262" cx="0" cy="0" r="1" gradientUnits="userSpaceOnUse" gradientTransform="translate(27.0615 3.93361) rotate(148.194) scale(9.39686 8.11428)">
<stop offset="0.580133" stop-color="#FFA400"/>
<stop offset="0.749189" stop-color="#FFA400"/>
<stop offset="0.916909" stop-color="#FF5E00"/>
</radialGradient>
<linearGradient id="paint12_linear_29_1262" x1="22.2744" y1="3.69667" x2="26.8479" y2="9.62084" gradientUnits="userSpaceOnUse">
<stop stop-color="#FFC600"/>
<stop offset="1" stop-color="#FFB500"/>
</linearGradient>
<linearGradient id="paint13_linear_29_1262" x1="22.7289" y1="3.41792" x2="24.5494" y2="8.0569" gradientUnits="userSpaceOnUse">
<stop stop-color="#FFC200"/>
<stop offset="1" stop-color="#FFA400"/>
</linearGradient>
<clipPath id="clip0_29_1262">
<rect width="30" height="30" fill="white"/>
</clipPath>
<clipPath id="clip1_29_1262">
<rect width="30" height="30" fill="white"/>
</clipPath>
<clipPath id="clip2_29_1262">
<rect x="0.591797" y="0.592407" width="28.8152" height="28.8152" rx="14.4076" fill="white"/>
</clipPath>
</defs>
</svg>
