<svg height="42" viewBox="0 0 62 42" width="62" xmlns="http://www.w3.org/2000/svg"><g fill="none"><path d="m3.02403171 15.3447289c-2.02511562 1.1554283-3.1994825 3.4099936-3.0026426 5.7650099v.2768325c-.17157957 2.385103 1.04901847 4.6503443 3.11702899 5.7844207l25.2603266 14.0723504c1.7930066 1.0088768 3.9696842 1.0088768 5.7622142 0l24.7837167-14.0723504c2.0365542-1.1568841 3.223313-3.4172727 3.0360052-5.7844207v-.2768325c.1763457-2.3443403-.9937317-4.5814359-3.0026425-5.7407464l-24.7837167-14.5581059c-.9203338-.540591-1.9483815-.8108865-2.9759525-.8108865-1.0118429 0-2.0236858.26204591-2.9340108.78662299z" fill="#3eb0fd"/><path d="m16.9858068 19.7485124c-.3142613-.1813918-.573121-.4514862-.7464901-.7793868-.5110329-.9632702-.1767123-2.1757051.7464901-2.7089173l13.3128443-7.99335303c.5912698-.35580703 1.3191335-.35580703 1.9104033 0l12.8352434 8.02823613c.9136504.5506537 1.2269565 1.7695668.6996852 2.7233688s-1.6959606 1.280706-2.6100886.7300522l-11.8895937-7.4402076-9.4251734 5.6960556 10.361271 6.249201c.9232025.5421821 1.250359 1.7625902.7307293 2.7253622-.3524694.6538078-1.0029617 1.0210764-1.6730357 1.0210764-.3185598 0-.6418955-.0837193-.9394408-.2581345z" fill="#fff" transform="matrix(-1 0 0 -1 62 36)"/></g></svg>