<svg width="48" height="48" viewBox="0 0 48 48" fill="none" xmlns="http://www.w3.org/2000/svg">
<g clip-path="url(#clip0)">
<path fill-rule="evenodd" clip-rule="evenodd" d="M4.10381 11.8634L29.0976 8.15311C29.7659 8.05406 30.4673 8.45839 30.6665 9.05896L41.0067 40.2178C41.2602 40.9825 40.8663 41.7356 40.1228 41.8969L12.1334 47.965C11.3051 48.1447 10.485 47.615 10.3051 46.7857L3.02388 13.222C2.88456 12.5796 3.36908 11.9724 4.10381 11.8634Z" fill="url(#paint0_linear)"/>
<path fill-rule="evenodd" clip-rule="evenodd" d="M4.26015 11.5282L29.254 7.8179C29.9221 7.71886 30.6237 8.12318 30.8229 8.72375L41.163 39.8826C41.4169 40.6473 41.0226 41.4005 40.279 41.5616L12.2897 47.6298C11.4615 47.8094 10.6414 47.2799 10.4614 46.4505L3.17986 12.8871C3.04053 12.2444 3.52504 11.6375 4.26015 11.5282Z" fill="url(#paint1_linear)"/>
<path fill-rule="evenodd" clip-rule="evenodd" d="M6.6303 7.79909L31.4422 4.16091C32.1075 4.06334 32.8123 4.47099 33.0186 5.07305L43.5048 35.6857C43.7568 36.4215 43.3758 37.1437 42.651 37.2955L15.4843 43.0023C14.6839 43.1704 13.8745 42.6634 13.6794 41.8729L5.59768 9.14991C5.43949 8.5098 5.90296 7.9059 6.6303 7.79909Z" fill="url(#paint2_linear)"/>
<path fill-rule="evenodd" clip-rule="evenodd" d="M6.78626 7.46414L31.5982 3.82595C32.2635 3.72839 32.9683 4.13603 33.1744 4.73808L43.6606 35.3508C43.9128 36.0865 43.5318 36.8088 42.807 36.9606L15.6403 42.6673C14.8399 42.8355 14.0305 42.3285 13.8353 41.538L5.75401 8.81496C5.59583 8.17448 6.05891 7.57058 6.78626 7.46414Z" fill="url(#paint3_linear)"/>
<path fill-rule="evenodd" clip-rule="evenodd" d="M9.29613 3.87058L33.8952 0.348448C34.5557 0.253834 35.2593 0.658159 35.4693 1.25319L46.0704 31.301C46.3236 32.0188 45.9518 32.7206 45.237 32.8666L18.4943 38.3317C17.7075 38.4925 16.904 37.9976 16.7022 37.2289L8.29048 5.19813C8.12418 4.56724 8.5758 3.97369 9.29613 3.87058Z" fill="url(#paint4_linear)"/>
<path fill-rule="evenodd" clip-rule="evenodd" d="M9.45208 3.53549L34.0512 0.0137311C34.7116 -0.0808823 35.4153 0.323442 35.6253 0.918473L46.2264 30.9663C46.4796 31.6841 46.1077 32.3859 45.393 32.5319L18.6502 37.997C17.8635 38.1578 17.0599 37.6629 16.8582 36.8942L8.44644 4.86378C8.28049 4.23252 8.73175 3.63861 9.45208 3.53549Z" fill="url(#paint5_linear)"/>
<path fill-rule="evenodd" clip-rule="evenodd" d="M22.7349 23.3181L33.5721 21.3098C33.7263 21.2813 33.8775 21.3722 33.9245 21.5216L35.7435 27.3026C35.7989 27.4788 35.6888 27.6644 35.507 27.6999L24.5144 29.8401C24.3558 29.8707 24.2007 29.775 24.1566 29.6198L22.4928 23.7065C22.4436 23.5313 22.5557 23.3513 22.7349 23.3181ZM21.7991 23.8325L23.4363 29.7939C23.5635 30.2562 24.0251 30.5427 24.4956 30.4514L35.6204 28.2887C36.1596 28.1837 36.4863 27.6318 36.3189 27.1089L34.4825 21.3678C34.3424 20.9301 33.9008 20.6637 33.4484 20.7443L22.5224 22.6868C21.9917 22.7814 21.6561 23.3121 21.7991 23.8325ZM23.9609 24.3182L25.1061 28.3389L26.3369 28.0587L25.679 25.7436L27.3591 27.0594L28.1766 25.2074L28.8467 27.5591L30.0408 27.3033L28.8833 23.4168L27.6159 23.636L26.8484 25.3415L25.1912 24.0864L23.9609 24.3182ZM32.8778 24.8589L32.2643 22.7966L30.9891 23.0147L31.6359 25.0955L30.4902 25.3172L32.8445 26.8878L34.0382 24.6335L32.8778 24.8589Z" fill="#BCC0CF"/>
<path d="M35.716 27.5495L35.5867 27.8192L35.5461 27.9043C35.5017 27.9709 35.4315 28.0189 35.3502 28.0337L24.3588 30.1772C24.1999 30.2068 24.0447 30.1108 24.0003 29.9555L22.3372 24.0422C22.3186 23.9719 22.3224 23.8981 22.3519 23.8352C22.3557 23.8277 22.3593 23.8204 22.363 23.813L22.3741 23.7908L22.4998 23.521C22.4776 23.5765 22.4739 23.6431 22.4923 23.7058L22.5367 23.8648L24.1555 29.6192C24.1999 29.7743 24.355 29.8705 24.514 29.8409L35.5017 27.701H35.5054C35.6016 27.6826 35.6754 27.6235 35.716 27.5495ZM36.178 27.9338C36.2187 27.7786 36.2151 27.6086 36.1633 27.4423L34.3264 21.7027C34.186 21.2666 33.7462 21.0005 33.2916 21.0781L22.3668 23.0221C22.1265 23.0627 21.9232 23.1958 21.7939 23.3806C21.8677 23.0369 22.1449 22.7524 22.5219 22.6858L33.4506 20.7455C33.9015 20.6642 34.3449 20.9303 34.4817 21.3664L36.3186 27.1097C36.4146 27.4016 36.3517 27.7084 36.178 27.9338ZM34.0381 24.6335L33.8571 24.9736L32.7225 25.1953L32.109 23.1329L31.0815 23.3104L30.9891 23.0147L32.2642 22.7966L32.8777 24.859L34.0381 24.6335ZM31.392 25.1435L31.6359 25.0955L31.4806 25.4318L30.8449 25.5538L30.4902 25.3172L31.392 25.1435ZM26.8423 25.3394L26.6908 25.6757L25.0351 24.4228L24.0409 24.6076L23.9596 24.3193L25.1904 24.0865L26.8423 25.3394ZM30.0393 27.3019L29.799 27.3536L28.7272 23.7502L27.4633 23.9719L27.6148 23.6356L28.8825 23.4176L30.0393 27.3019ZM25.8445 26.3299L25.6782 25.7422L25.5229 26.0786L26.1033 28.1113L26.3361 28.0595L25.8445 26.3299Z" fill="#A2A6B3"/>
<path d="M19.34 8.06516L16.1468 8.50867L27.5003 19.064L31.5806 6.11377L28.5647 6.64597L26.1698 14.2742L19.34 8.06516Z" fill="url(#paint6_linear)"/>
<path d="M19.3398 8.06521L22.267 7.6217L24.8392 9.92791L25.815 7.0895L28.5646 6.646L26.1697 14.2742L19.3398 8.06521Z" fill="url(#paint7_linear)"/>
</g>
<defs>
<linearGradient id="paint0_linear" x1="22.0418" y1="47.9996" x2="22.0418" y2="8.13788" gradientUnits="userSpaceOnUse">
<stop stop-color="#1D2130"/>
<stop offset="1" stop-color="#3E445A"/>
</linearGradient>
<linearGradient id="paint1_linear" x1="22.1979" y1="47.6646" x2="22.1979" y2="7.80295" gradientUnits="userSpaceOnUse">
<stop stop-color="#262B3F"/>
<stop offset="1" stop-color="#656E91"/>
</linearGradient>
<linearGradient id="paint2_linear" x1="24.5745" y1="43.0348" x2="24.5745" y2="4.14632" gradientUnits="userSpaceOnUse">
<stop stop-color="#267550"/>
<stop offset="1" stop-color="#79B881"/>
</linearGradient>
<linearGradient id="paint3_linear" x1="24.7306" y1="42.6997" x2="24.7306" y2="3.81125" gradientUnits="userSpaceOnUse">
<stop stop-color="#279264"/>
<stop offset="1" stop-color="#A4F3AA"/>
</linearGradient>
<linearGradient id="paint4_linear" x1="27.2027" y1="38.3624" x2="27.2027" y2="0.334812" gradientUnits="userSpaceOnUse">
<stop offset="0.59" stop-color="#CECFD0"/>
<stop offset="1" stop-color="#DFDFDF"/>
</linearGradient>
<linearGradient id="paint5_linear" x1="27.3588" y1="38.0276" x2="27.3588" y2="-1.8133e-05" gradientUnits="userSpaceOnUse">
<stop stop-color="#EAEEF0"/>
<stop offset="0.41" stop-color="white"/>
</linearGradient>
<linearGradient id="paint6_linear" x1="19.8992" y1="-5.65582" x2="35.9456" y2="46.8296" gradientUnits="userSpaceOnUse">
<stop offset="0.22" stop-color="#73CB8D"/>
<stop offset="0.4" stop-color="#2F9869"/>
</linearGradient>
<linearGradient id="paint7_linear" x1="17.8468" y1="-10.3759" x2="42.9694" y2="62.5854" gradientUnits="userSpaceOnUse">
<stop offset="0.25" stop-color="#586080"/>
<stop offset="0.35" stop-color="#2C3247"/>
</linearGradient>
<clipPath id="clip0">
<rect width="48" height="48" fill="white"/>
</clipPath>
</defs>
</svg>
