<svg height="64" viewBox="0 0 64 64" width="64" xmlns="http://www.w3.org/2000/svg" xmlns:xlink="http://www.w3.org/1999/xlink"><defs><linearGradient id="a" x1="9.686%" x2="14.765%" y1="0%" y2="100%"><stop offset="0" stop-color="#5f6a8f"/><stop offset="1" stop-color="#293046"/></linearGradient><path id="b" d="m1.45830606 15.1711793 32.51581194-4.6308041c.7400099-.10539 1.4502389.3308814 1.6907844 1.0385957l13.7081663 40.331103c.27625.8127613-.1586784 1.6955793-.9714397 1.9718293-.0567421.0192862-.1145522.0352744-.1731406.0478847l-36.6621163 7.8909842c-.8368752.1801251-1.6618619-.3503328-1.84527589-1.1864933l-9.56186182-43.591283c-.18392511-.8384907.34670509-1.6673224 1.18519572-1.8512475.03769018-.0082674.07567514-.0151285.11387595-.020569z"/><filter id="c" height="117.5%" width="118.2%" x="-9.1%" y="-8.8%"><feOffset in="SourceAlpha" result="shadowOffsetOuter1"/><feGaussianBlur in="shadowOffsetOuter1" result="shadowBlurOuter1" stdDeviation="1.5"/><feColorMatrix in="shadowBlurOuter1" values="0 0 0 0 0   0 0 0 0 0   0 0 0 0 0  0 0 0 0.397863855 0"/></filter><filter id="d" height="113.6%" width="114.2%" x="-7.1%" y="-6.8%"><feOffset dx="1" dy="-1" in="SourceAlpha" result="shadowOffsetInner1"/><feComposite in="shadowOffsetInner1" in2="SourceAlpha" k2="-1" k3="1" operator="arithmetic" result="shadowInnerInner1"/><feColorMatrix in="shadowInnerInner1" values="0 0 0 0 0   0 0 0 0 0   0 0 0 0 0  0 0 0 0.0956348339 0"/></filter><linearGradient id="e" x1="7.586%" x2="15.39%" y1="0%" y2="100%"><stop offset="0" stop-color="#81f19e"/><stop offset="1" stop-color="#009863"/></linearGradient><path id="f" d="m4.67136094 9.79822894 32.47082786-4.62439767c.7382311-.10513665 1.4471089.32880762 1.6892421 1.03408085l13.6603493 39.78915708c.2787435.8119095-.153473 1.6960585-.9653825 1.9748019-.0642469.0220572-.1298707.039879-.1964491.0533508l-35.5444131 7.1922231c-.8145632.1648226-1.614671-.3402799-1.8161909-1.1465487l-10.58676404-42.3569826c-.20815293-.8328069.29822916-1.6766716 1.13103607-1.88482451.052014-.01300045.10466582-.02330097.15774431-.03086025z"/><filter id="g" height="118%" width="118.3%" x="-9.1%" y="-9%"><feOffset in="SourceAlpha" result="shadowOffsetOuter1"/><feGaussianBlur in="shadowOffsetOuter1" result="shadowBlurOuter1" stdDeviation="1.5"/><feColorMatrix in="shadowBlurOuter1" values="0 0 0 0 0   0 0 0 0 0   0 0 0 0 0  0 0 0 0.397863855 0"/></filter><filter id="h" height="114%" width="114.2%" x="-7.1%" y="-7%"><feOffset dx="1" dy="-1" in="SourceAlpha" result="shadowOffsetInner1"/><feComposite in="shadowOffsetInner1" in2="SourceAlpha" k2="-1" k3="1" operator="arithmetic" result="shadowInnerInner1"/><feColorMatrix in="shadowInnerInner1" values="0 0 0 0 0   0 0 0 0 0   0 0 0 0 0  0 0 0 0.0956348339 0"/></filter><linearGradient id="i" x1="42.583%" x2="52.418%" y1="1.571%" y2="98.771%"><stop offset="0" stop-color="#fff"/><stop offset="1" stop-color="#ecf0f2"/></linearGradient><path id="j" d="m8.32688556 4.67696032 32.44805114-4.62115388c.7387914-.10521644 1.4480951.32946016 1.6897295 1.0355026l13.5303837 39.53503396c.2779582.8121787-.155113 1.6959092-.9672917 1.9738675-.0685214.0234506-.1385981.0420835-.2097178.0557623l-35.0157685 6.7347833c-.8030957.1544639-1.5885161-.3398178-1.7966889-1.1306945l-10.96266631-41.64866323c-.21851008-.83014958.2773217-1.68025621 1.10747128-1.89876629.05809376-.01529131.11702515-.02720187.17649759-.03567176z"/><filter id="k" height="118.2%" width="118.3%" x="-9.2%" y="-9.1%"><feOffset in="SourceAlpha" result="shadowOffsetOuter1"/><feGaussianBlur in="shadowOffsetOuter1" result="shadowBlurOuter1" stdDeviation="1.5"/><feColorMatrix in="shadowBlurOuter1" values="0 0 0 0 0   0 0 0 0 0   0 0 0 0 0  0 0 0 0.397863855 0"/></filter><filter id="l" height="114.2%" width="114.3%" x="-7.1%" y="-7.1%"><feOffset dx="1" dy="-1" in="SourceAlpha" result="shadowOffsetInner1"/><feComposite in="shadowOffsetInner1" in2="SourceAlpha" k2="-1" k3="1" operator="arithmetic" result="shadowInnerInner1"/><feColorMatrix in="shadowInnerInner1" values="0 0 0 0 0   0 0 0 0 0   0 0 0 0 0  0 0 0 0.0956348339 0"/></filter><linearGradient id="m" x1="51.705%" x2="74.165%" y1="21.284%" y2="85.607%"><stop offset="0" stop-color="#47cc85"/><stop offset="1" stop-color="#009f68"/></linearGradient><linearGradient id="n" x1="50%" x2="75.076%" y1="20.792%" y2="80.413%"><stop offset="0" stop-color="#535c7f"/><stop offset="1" stop-color="#2f354e"/></linearGradient><path id="o" d="m40.8030236 27.8743351 2.3562965 7.3106526c.219449.6808632-.1546011 1.4107105-.8354643 1.6301595-.0496906.0160158-.100304.0290126-.1515633.0389194l-14.1732295 2.7392256c-.6528177.1261685-1.2951369-.2624448-1.4863384-.8992584l-2.2548621-7.5100171c-.2057111-.6851391.182942-1.4073159.8680811-1.613027.0467868-.0140476.0943308-.0254371.1424042-.0341141l14.0717951-2.539861c.6385397-.1152519 1.263831.2597485 1.4628807.8773205zm-1.3095015-.0275417-14.0717951 2.539861c-.0160245.0028923-.0318725.0066888-.0474681.0113713-.2283797.0685704-.3579307.309296-.2893604.5376757l2.2548621 7.5100171c.0637338.2122712.2778402.341809.4954461.2997528l14.1732296-2.7392256c.0170864-.0033022.0339575-.0076345.050521-.0129731.2269545-.0731497.3516378-.3164321.2784881-.5433865l-2.3562964-7.3106525c-.0663499-.2058574-.2747804-.3308575-.4876269-.2924402zm-6.0889126 2.768417 1.5241923 5.0345801-1.5241923.3275873-.8342937-2.8033816-1.0285855 2.0596148-2.1479014-1.4838167.7321581 2.8118844-1.5741909.3226994-1.4010798-5.1333552 1.5330515-.2942889 2.1174543 1.5528342 1.0590327-2.088053zm4.4000769-.8170275.7482473 2.6038171 1.4726124-.2957162-1.4726124 2.8995334-3.0062448-1.996249 1.4354143-.3058232-.7666785-2.5984996z"/><filter id="p" height="115.8%" width="110.5%" x="-5.3%" y="-7.9%"><feGaussianBlur in="SourceAlpha" result="shadowBlurInner1" stdDeviation=".5"/><feOffset dy="1" in="shadowBlurInner1" result="shadowOffsetInner1"/><feComposite in="shadowOffsetInner1" in2="SourceAlpha" k2="-1" k3="1" operator="arithmetic" result="shadowInnerInner1"/><feColorMatrix in="shadowInnerInner1" values="0 0 0 0 0   0 0 0 0 0   0 0 0 0 0  0 0 0 0.210691652 0"/></filter></defs><g fill="none" fill-rule="evenodd" transform="translate(3 1)"><use fill="#000" filter="url(#c)" xlink:href="#b"/><use fill="url(#a)" xlink:href="#b"/><use fill="#000" filter="url(#d)" xlink:href="#b"/><use fill="#000" filter="url(#g)" xlink:href="#f"/><use fill="url(#e)" xlink:href="#f"/><use fill="#000" filter="url(#h)" xlink:href="#f"/><use fill="#000" filter="url(#k)" xlink:href="#j"/><use fill="url(#i)" xlink:href="#j"/><use fill="#000" filter="url(#l)" xlink:href="#j"/><g transform="translate(16.865 8.074)"><path d="m0 3.082 14.826 13.794 5.172-16.876-7.474 1.18-1.25 3.718-3.259-2.973z" fill="url(#m)"/><path d="m16.184.602-3.157 9.924-8.865-8.045 3.853-.556 3.259 2.973 1.25-3.718z" fill="url(#n)"/></g><g fill-rule="nonzero"><use fill="#bbc0d0" xlink:href="#o"/><use fill="#000" filter="url(#p)" xlink:href="#o"/></g></g></svg>