<svg width="297" height="300" viewBox="0 0 297 300" fill="none" xmlns="http://www.w3.org/2000/svg">
<path fill-rule="evenodd" clip-rule="evenodd" d="M148.641 292.803C226.408 292.803 289.45 228.86 289.45 149.982C289.45 71.1036 226.408 7.16023 148.641 7.16023C70.8745 7.16023 7.83218 71.1036 7.83218 149.982C7.83218 228.86 70.8745 292.803 148.641 292.803ZM148.641 295.648C227.956 295.648 292.255 230.43 292.255 149.982C292.255 69.5323 227.956 4.31519 148.641 4.31519C69.3254 4.31519 5.02722 69.5323 5.02722 149.982C5.02722 230.43 69.3254 295.648 148.641 295.648Z" fill="#AEDDFF"/>
<path d="M215.647 31.2974C220.201 31.2974 223.893 27.5525 223.893 22.9329C223.893 18.3133 220.201 14.5684 215.647 14.5684C211.092 14.5684 207.4 18.3133 207.4 22.9329C207.4 27.5525 211.092 31.2974 215.647 31.2974Z" fill="#1697F6"/>
<path d="M81.6354 285.4C86.1899 285.4 89.882 281.655 89.882 277.036C89.882 272.416 86.1899 268.671 81.6354 268.671C77.0808 268.671 73.3887 272.416 73.3887 277.036C73.3887 281.655 77.0808 285.4 81.6354 285.4Z" fill="#1697F6"/>
<path d="M150.942 129.52L107.963 205.042L148.659 276.58L202.561 181.885L256.438 87.1897H175.021L150.942 129.52Z" fill="#1697F6"/>
<path d="M94.7821 181.885L97.6048 186.865L137.81 116.198L154.329 87.1897H148.659H40.8806L94.7821 181.885Z" fill="#AEDDFF"/>
<path d="M175.021 87.1897C195.394 155.192 148.659 276.58 148.659 276.58L107.963 205.042L175.021 87.1897Z" fill="#1867C0"/>
<path d="M154.329 87.1897C68.4944 87.1897 97.6051 186.865 97.6051 186.865L154.329 87.1897Z" fill="#7BC6FF"/>
</svg>