<svg height="26.479919mm" viewBox="0 0 26.507952 26.479919" width="26.507952mm" xmlns="http://www.w3.org/2000/svg"><path d="m61.906876 203.33977-.988302-.9052-.08067-5.86808-.08067-5.86808 1.006713 1.05548c1.008872 1.05774 2.377108 1.63874 3.866113 1.6417 1.464028.003 3.093652-.58351 3.732977-1.3433l.631867-.75093.953902.89964c1.149091 1.08374 2.813191 1.43262 4.482042.93968 2.067506-.61069 3.342178-2.03408 3.779442-4.22041l.162975-.81487h-1.35599c-1.201124 0-1.35599.0635-1.35599.55563 0 .30559-.404812.96043-.899583 1.4552-1.906113 1.90612-4.656667.57755-4.656667-2.24925 0-.79174-.03972-.81991-1.156215-.81991h-1.156215l-.140689 1.24818c-.36962 3.27926-4.835843 3.75596-5.776433.61655-.294064-.98149-.396827-1.07098-1.229845-1.07098h-.90897l.10399-3.77032c.115148-4.17485.352849-4.99682 1.650783-5.70838.711442-.39003 2.094714-.45243 11.534735-.5203l10.72635-.0771.911463.61423c1.322264.89108 1.57231 1.59009 1.57673 4.4078l.0039 2.48652-.601609-.89273c-1.276872-1.89475-3.561138-2.70761-5.93151-2.11075-2.120805.53403-3.347818 1.81292-3.885419 4.0497-.17274.71871-.158999.72761 1.124397.72761 1.176771 0 1.315467-.0645 1.471009-.68425.50597-2.01594 3.164182-2.69249 4.668484-1.18819.622665.62267.773398 1.00246.773398 1.94869 0 1.55253-.734431 2.4804-2.269168 2.86685-1.132508.28517-1.170415.32798-1.170415 1.32164 0 .92433.06739 1.02692.674597 1.02692.883428 0 2.098959.6412 2.616633 1.38028.481023.68676.542728 2.36947.117386 3.20118-.539936 1.05579-1.347603 1.49186-2.774669 1.49808-1.516701.007-2.589941-.71703-2.900888-1.95594-.152027-.60573-.304657-.68401-1.333618-.68401-1.067876 0-1.161942.0544-1.161942.672 0 .96123.921979 2.63638 1.779948 3.234 2.387299 1.66285 5.757648 1.45452 7.793056-.48171l1.01033-.96111-.0017 1.87726c-.0019 2.03632-.473836 3.1234-1.635963 3.76828-.468998.26025-3.182932.34137-11.661492.34857l-11.050237.009zm5.560135-4.92386c-.400394-.16094-.595312-.46145-.595312-.9178 0-.45216.198592-.76305.595312-.93193.586634-.24973.58567-.2525-.06615-.18991-.510764.049-.681022.23436-.747335.81346-.122443 1.06928.112337 1.50148.805177 1.48223l.603617-.0168zm2.50205-.17107c.111718-.29113-.02772-.5754-.405179-.82602-.736052-.48872-.729811-.78023.0198-.92461.521405-.10043.506919-.11914-.116676-.15069-1.05627-.0535-1.20906.4883-.334405 1.18572.560773.44715.658207.63737.373408.729-.211941.0682-.563942.18355-.782223.25635s-.06572.14177.339033.15326c.458701.013.800073-.14633.906246-.42301zm1.852084 0c.111717-.29113-.02772-.5754-.405179-.82602-.695827-.46201-.733732-.77217-.112496-.9205.355525-.0849.340796-.10452-.06344-.0846-.720585.0356-.835445.86202-.150042 1.07956.725989.23042.693832.8652-.0511 1.00868l-.595312.11466.603616.036c.345723.0206.676393-.15362.773955-.40786z" fill="#4caf50" stroke-width=".264583" transform="translate(-60.736668 -177.76472)"/></svg>