<?xml version="1.0" encoding="UTF-8" standalone="no"?>
<!-- Created with Inkscape (http://www.inkscape.org/) -->

<svg
   xmlns:dc="http://purl.org/dc/elements/1.1/"
   xmlns:cc="http://creativecommons.org/ns#"
   xmlns:rdf="http://www.w3.org/1999/02/22-rdf-syntax-ns#"
   xmlns:svg="http://www.w3.org/2000/svg"
   xmlns="http://www.w3.org/2000/svg"
   xmlns:sodipodi="http://sodipodi.sourceforge.net/DTD/sodipodi-0.dtd"
   xmlns:inkscape="http://www.inkscape.org/namespaces/inkscape"
   width="26.507952mm"
   height="26.479919mm"
   viewBox="0 0 26.507952 26.479919"
   version="1.1"
   id="svg8"
   inkscape:version="0.92.2 (5c3e80d, 2017-08-06)"
   sodipodi:docname="w3css.svg">
  <title
     id="title839">W3 CSS logo</title>
  <defs
     id="defs2" />
  <sodipodi:namedview
     id="base"
     pagecolor="#ffffff"
     bordercolor="#666666"
     borderopacity="1.0"
     inkscape:pageopacity="0.0"
     inkscape:pageshadow="2"
     inkscape:zoom="0.7"
     inkscape:cx="133.67303"
     inkscape:cy="-71.104612"
     inkscape:document-units="mm"
     inkscape:current-layer="layer1"
     showgrid="false"
     fit-margin-top="0"
     fit-margin-left="0"
     fit-margin-right="0"
     fit-margin-bottom="0"
     inkscape:window-width="1920"
     inkscape:window-height="1017"
     inkscape:window-x="1912"
     inkscape:window-y="-8"
     inkscape:window-maximized="1" />
  <metadata
     id="metadata5">
    <rdf:RDF>
      <cc:Work
         rdf:about="">
        <dc:format>image/svg+xml</dc:format>
        <dc:type
           rdf:resource="http://purl.org/dc/dcmitype/StillImage" />
        <dc:title>W3 CSS logo</dc:title>
      </cc:Work>
    </rdf:RDF>
  </metadata>
  <g
     inkscape:label="Layer 1"
     inkscape:groupmode="layer"
     id="layer1"
     transform="translate(-60.736668,-177.76472)">
    <path
       style="fill:#4caf50;fill-opacity:1;stroke-width:0.26458335"
       d="m 61.906876,203.33977 -0.988302,-0.9052 -0.08067,-5.86808 -0.08067,-5.86808 1.006713,1.05548 c 1.008872,1.05774 2.377108,1.63874 3.866113,1.6417 1.464028,0.003 3.093652,-0.58351 3.732977,-1.3433 l 0.631867,-0.75093 0.953902,0.89964 c 1.149091,1.08374 2.813191,1.43262 4.482042,0.93968 2.067506,-0.61069 3.342178,-2.03408 3.779442,-4.22041 l 0.162975,-0.81487 h -1.35599 c -1.201124,0 -1.35599,0.0635 -1.35599,0.55563 0,0.30559 -0.404812,0.96043 -0.899583,1.4552 -1.906113,1.90612 -4.656667,0.57755 -4.656667,-2.24925 0,-0.79174 -0.03972,-0.81991 -1.156215,-0.81991 h -1.156215 l -0.140689,1.24818 c -0.36962,3.27926 -4.835843,3.75596 -5.776433,0.61655 -0.294064,-0.98149 -0.396827,-1.07098 -1.229845,-1.07098 h -0.90897 l 0.10399,-3.77032 c 0.115148,-4.17485 0.352849,-4.99682 1.650783,-5.70838 0.711442,-0.39003 2.094714,-0.45243 11.534735,-0.5203 l 10.72635,-0.0771 0.911463,0.61423 c 1.322264,0.89108 1.57231,1.59009 1.57673,4.4078 l 0.0039,2.48652 -0.601609,-0.89273 c -1.276872,-1.89475 -3.561138,-2.70761 -5.93151,-2.11075 -2.120805,0.53403 -3.347818,1.81292 -3.885419,4.0497 -0.17274,0.71871 -0.158999,0.72761 1.124397,0.72761 1.176771,0 1.315467,-0.0645 1.471009,-0.68425 0.50597,-2.01594 3.164182,-2.69249 4.668484,-1.18819 0.622665,0.62267 0.773398,1.00246 0.773398,1.94869 0,1.55253 -0.734431,2.4804 -2.269168,2.86685 -1.132508,0.28517 -1.170415,0.32798 -1.170415,1.32164 0,0.92433 0.06739,1.02692 0.674597,1.02692 0.883428,0 2.098959,0.6412 2.616633,1.38028 0.481023,0.68676 0.542728,2.36947 0.117386,3.20118 -0.539936,1.05579 -1.347603,1.49186 -2.774669,1.49808 -1.516701,0.007 -2.589941,-0.71703 -2.900888,-1.95594 -0.152027,-0.60573 -0.304657,-0.68401 -1.333618,-0.68401 -1.067876,0 -1.161942,0.0544 -1.161942,0.672 0,0.96123 0.921979,2.63638 1.779948,3.234 2.387299,1.66285 5.757648,1.45452 7.793056,-0.48171 l 1.01033,-0.96111 -0.0017,1.87726 c -0.0019,2.03632 -0.473836,3.1234 -1.635963,3.76828 -0.468998,0.26025 -3.182932,0.34137 -11.661492,0.34857 l -11.050237,0.009 z m 5.560135,-4.92386 c -0.400394,-0.16094 -0.595312,-0.46145 -0.595312,-0.9178 0,-0.45216 0.198592,-0.76305 0.595312,-0.93193 0.586634,-0.24973 0.58567,-0.2525 -0.06615,-0.18991 -0.510764,0.049 -0.681022,0.23436 -0.747335,0.81346 -0.122443,1.06928 0.112337,1.50148 0.805177,1.48223 l 0.603617,-0.0168 z m 2.50205,-0.17107 c 0.111718,-0.29113 -0.02772,-0.5754 -0.405179,-0.82602 -0.736052,-0.48872 -0.729811,-0.78023 0.0198,-0.92461 0.521405,-0.10043 0.506919,-0.11914 -0.116676,-0.15069 -1.05627,-0.0535 -1.20906,0.4883 -0.334405,1.18572 0.560773,0.44715 0.658207,0.63737 0.373408,0.729 -0.211941,0.0682 -0.563942,0.18355 -0.782223,0.25635 -0.218281,0.0728 -0.06572,0.14177 0.339033,0.15326 0.458701,0.013 0.800073,-0.14633 0.906246,-0.42301 z m 1.852084,0 c 0.111717,-0.29113 -0.02772,-0.5754 -0.405179,-0.82602 -0.695827,-0.46201 -0.733732,-0.77217 -0.112496,-0.9205 0.355525,-0.0849 0.340796,-0.10452 -0.06344,-0.0846 -0.720585,0.0356 -0.835445,0.86202 -0.150042,1.07956 0.725989,0.23042 0.693832,0.8652 -0.0511,1.00868 l -0.595312,0.11466 0.603616,0.036 c 0.345723,0.0206 0.676393,-0.15362 0.773955,-0.40786 z"
       id="path837"
       inkscape:connector-curvature="0" />
  </g>
</svg>
