<svg width="128" height="128" viewBox="0 0 128 128" fill="none" xmlns="http://www.w3.org/2000/svg">
<rect width="128" height="128" fill="white"/>
<path d="M81.8091 83.9816C84.3411 75.6288 82.7814 67.978 77.6467 60.1667C72.131 51.7501 62.1038 48.6377 55.4782 41.5853C49.0591 34.7483 51.0156 22.6369 56.3498 19C48.5914 21.4253 41.0942 33.9694 46.1651 48.3385C48.9035 56.088 55.6897 60.5078 61.1196 67.4425C65.9193 73.5615 69.8753 79.9508 69.6708 87.6763C69.4754 95.1396 65.4685 102.731 61.1694 108.659C65.0766 105.559 67.8469 103.762 71.1428 100.47C75.017 96.5866 79.3849 91.9814 81.8091 83.9816Z" fill="#7AA2E3"/>
<path d="M65.8085 92.9476C66.3989 87.046 62.6493 81.5103 57.9593 77.7179C54.6994 75.0822 50.1261 73.1845 48.4597 69.0499C46.7883 64.8965 48.345 59.9781 50.2916 57.3115C47.8624 58.7645 46.0085 61.2935 44.8427 64.6561C42.0864 72.5751 46.4084 78.6463 53.1986 85.1971C55.9898 87.8866 58.2485 89.8502 59.5559 93.6367C62.032 98.9968 59.5021 104.59 57.5634 109.443C62.8916 104.133 65.0746 100.224 65.8085 92.9476Z" fill="#7AA2E3"/>
</svg>
