<svg xmlns="http://www.w3.org/2000/svg" width="355" height="238" fill="none"><path fill="#04a29f" stroke="#04a29f" stroke-width="1.271" d="m217.006 47.87 10.82-3.896c.287-.103.599-.117.893-.038l84.735 22.705c.254.068.405.329.337.583l-17.503 65.32a1.492 1.492 0 0 1-.946 1.022l-11.113 3.922a1.49 1.49 0 0 1-.884.035l-83.485-22.37a1.494 1.494 0 0 1-1.056-1.83l17.265-64.434c.126-.473.476-.853.937-1.019Z"/><g clip-path="url(#a)"><path fill="#04a29f" d="m285.508 105.918-9.751-2.612-.746 2.786 6.686 1.791c-2.095 3.918-6.093 6.579-10.506 6.89l-11.727-20.312c2.978-4.428 8.648-6.641 14.08-5.185 4.179 1.12 7.381 4.217 8.89 8.055l2.575-1.25c-1.778-4.508-5.564-8.21-10.718-9.591-7.244-1.941-14.754 1.57-18.115 7.986l13.46 23.314c7.135.12 13.931-4.628 15.872-11.872Zm-30.683-8.072c-1.045 3.901-.521 8.072 1.621 11.781 2.141 3.71 5.631 6.287 9.392 7.295l-11.013-19.076Z"/><path fill="#02001D" d="M275.411 82.31c-10.726-2.874-21.853 3.55-24.727 14.277-2.874 10.726 3.55 21.854 14.276 24.728 10.726 2.874 21.854-3.551 24.728-14.277 2.874-10.726-3.551-21.853-14.277-24.727Zm-19.002 27.457c-2.142-3.709-2.629-8.02-1.621-11.782l11.153 19.113c-3.863-1.184-7.391-3.622-9.532-7.331Zm13.126 7.847-13.359-23.138c3.362-6.416 10.872-9.927 18.116-7.986 5.154 1.38 8.939 5.082 10.718 9.59l-2.575 1.251c-1.51-3.838-4.711-6.936-8.89-8.055-5.433-1.456-10.963.795-14.08 5.185l11.727 20.312c4.413-.311 8.411-2.972 10.506-6.89l-6.687-1.791.747-2.786 9.751 2.612c-1.941 7.244-8.738 11.992-15.974 11.696Z"/></g><path fill="#02001D" stroke="#04a29f" stroke-width="1.271" d="m110.221 19.304 10.818-3.876c.286-.103.597-.116.891-.037l84.766 22.713c.254.068.405.33.337.583l-17.449 65.12c-.128.477-.483.86-.949 1.023l-11.11 3.902c-.284.1-.591.111-.882.033L93.127 86.388a1.495 1.495 0 0 1-1.056-1.83l17.211-64.234c.127-.474.478-.855.939-1.02Z"/><g clip-path="url(#b)"><path fill="#04a29f" d="M161.583 55.732c-7.239-1.94-12.733.467-16.483 7.222 3.685-2.893 7.216-3.401 10.593-1.527 1.926 1.07 3.001 2.964 4.19 5.06 1.938 3.415 4.181 7.367 10.909 9.17 7.239 1.94 12.733-.468 16.483-7.222-3.685 2.892-7.216 3.4-10.593 1.526-1.926-1.07-3.001-2.963-4.19-5.06-1.938-3.414-4.181-7.366-10.909-9.17Zm-17.938 12.65c-7.239-1.939-12.733.468-16.482 7.222 3.684-2.892 7.215-3.4 10.592-1.526 1.927 1.07 3.001 2.964 4.191 5.06 1.938 3.415 4.18 7.367 10.908 9.17 7.239 1.94 12.734-.468 16.483-7.222-3.684 2.892-7.215 3.4-10.592 1.526-1.927-1.07-3.002-2.963-4.191-5.06-1.938-3.414-4.18-7.366-10.909-9.17Z"/></g><path fill="#02001D" stroke="#04a29f" stroke-width="1.271" d="m324.862 76.817 10.821-3.896c.287-.103.598-.116.893-.037l84.735 22.704c.254.068.404.33.336.583l-17.502 65.32a1.497 1.497 0 0 1-.947 1.023l-11.112 3.922c-.285.1-.593.112-.885.034l-83.484-22.37a1.494 1.494 0 0 1-1.057-1.83l17.265-64.433c.127-.473.477-.854.937-1.02Z"/><path fill="#24232D" stroke="#04a29f" stroke-width="1.271" d="m347.522-7.716 10.821-3.896c.287-.103.598-.117.893-.038l84.735 22.705c.254.068.404.329.336.583l-17.502 65.32a1.497 1.497 0 0 1-.946 1.022l-11.113 3.922c-.285.1-.593.113-.884.035l-83.485-22.37a1.495 1.495 0 0 1-1.057-1.83l17.265-64.434c.127-.472.477-.853.937-1.019Z"/><path fill="#02001D" stroke="#04a29f" stroke-width="1.271" d="m194.33 132.494 10.82-3.896a1.5 1.5 0 0 1 .894-.038l84.734 22.705a.476.476 0 0 1 .337.583l-17.503 65.32a1.492 1.492 0 0 1-.946 1.022l-11.113 3.922a1.49 1.49 0 0 1-.884.035l-83.484-22.37a1.494 1.494 0 0 1-1.057-1.83l17.265-64.434c.127-.472.477-.853.937-1.019Z"/><g clip-path="url(#c)"><path fill="#02001D" d="m250.558 169.459-14.448 3.872a1.98 1.98 0 0 0-1.401 1.4l-3.872 14.448a1.983 1.983 0 0 0 .513 1.914l10.577 10.577c.5.5 1.23.696 1.914.513l14.448-3.872a1.983 1.983 0 0 0 1.401-1.401l3.871-14.448a1.98 1.98 0 0 0-.513-1.913l-10.577-10.577a1.98 1.98 0 0 0-1.913-.513Z"/><path fill="#04a29f" fill-rule="evenodd" d="m242.933 185.922-2.488 9.283-3.937-1.055 5.603-20.914 3.938 1.055-2.082 7.773 7.638 2.047 2.083-7.773 3.938 1.055-5.604 20.914-3.938-1.055 2.488-9.283-7.639-2.047Z" clip-rule="evenodd"/><path fill="#04a29f" d="m253.458 166.289 13.273 13.273c.5.501.696 1.23.512 1.914l-4.858 18.131a1.98 1.98 0 0 1-1.401 1.401l-18.131 4.858a1.98 1.98 0 0 1-1.913-.513l-13.273-13.273a1.98 1.98 0 0 1-.513-1.913l4.858-18.131a1.98 1.98 0 0 1 1.401-1.401l18.131-4.858a1.983 1.983 0 0 1 1.914.512Zm-2.901 3.171-14.448 3.871a1.983 1.983 0 0 0-1.401 1.401l-3.871 14.448a1.981 1.981 0 0 0 .513 1.914l10.576 10.576c.501.501 1.23.696 1.914.513l14.448-3.871a1.983 1.983 0 0 0 1.401-1.401l3.871-14.448a1.98 1.98 0 0 0-.512-1.914l-10.577-10.577a1.98 1.98 0 0 0-1.914-.512Z"/></g><path fill="#04a29f" stroke="#04a29f" stroke-width="1.271" d="m87.586 103.864 10.817-3.876c.286-.102.597-.115.891-.036l84.766 22.712c.254.069.405.33.337.584l-17.449 65.12a1.497 1.497 0 0 1-.949 1.023l-11.11 3.901a1.49 1.49 0 0 1-.882.034l-83.516-22.378a1.494 1.494 0 0 1-1.056-1.83l17.211-64.234c.127-.473.478-.854.94-1.02Z"/><path fill="#02001D" stroke="#02001D" stroke-width=".486" d="m117.166 141.422 12.611 3.379-.27 1.008-11.455-3.069-2.033 7.589 10.771 2.886-.27 1.008-10.772-2.886-2.232 8.331 11.586 3.105-.27 1.008-12.742-3.414 5.076-18.945Zm13.741 3.682 1.34.359 3.705 9.922 8.301-6.705 11.091-8.371-18.865 16.156 4.379 11.61-1.392-.373-3.983-10.566-8.759 7.152-1.366-.366 9.65-7.851-4.101-10.967Zm15.257 5.168.27-1.008 14.371 3.851-.27 1.008-6.621-1.774-4.806 17.937-1.156-.31 4.806-17.937-6.594-1.767ZM101.396 137.212l1.445.387 11.889 35.333-5.274-13.255-7.235-20.708-4.745 17.498-1.156-.31 5.076-18.945ZM155.997 170.713a.423.423 0 0 0 .526-.311.422.422 0 0 0-.3-.533.425.425 0 0 0-.527.311.425.425 0 0 0 .301.533Zm1.433-.806c-.188.702.192 1.296.926 1.493.782.209 1.381-.137 1.601-.959l.775-2.891-.63-.169-.774 2.889c-.122.456-.415.638-.818.531-.359-.097-.543-.389-.461-.728l-.619-.166Zm3.325.851c-.151.743.328 1.372 1.228 1.613.962.258 1.695-.071 1.904-.852.165-.615-.087-1.047-.867-1.465l-.418-.23c-.495-.266-.664-.491-.586-.782.099-.369.495-.52.993-.387.472.126.736.449.694.841l.613.165c.147-.698-.325-1.344-1.148-1.565-.886-.237-1.606.089-1.801.817-.161.6.078 1.047.765 1.416l.489.268c.503.271.689.521.606.833-.097.362-.539.526-1.045.391-.543-.146-.854-.493-.803-.895l-.624-.168Z"/><path fill="#02001D" stroke="#04a29f" stroke-width="1.271" d="m302.175 161.349 10.82-3.896c.287-.103.599-.116.893-.037l84.735 22.704a.476.476 0 0 1 .337.583l-17.503 65.32a1.493 1.493 0 0 1-.946 1.023l-11.113 3.922c-.284.1-.593.112-.884.034l-83.485-22.369a1.495 1.495 0 0 1-1.056-1.831l17.265-64.433c.126-.473.476-.854.937-1.02Z"/><path fill="#04a29f" d="M336.964 202.052c.493-.033.993-.054 1.48-.067.009-.338.024-.664.041-.999.312-5.315 2.079-9.179 4.744-9.897 2.563-.684 5.832 1.614 8.646 5.799.281.415.549.837.798 1.254.29-.159.58-.319.877-.466 4.759-2.382 8.998-2.781 10.947-.827 1.866 1.881 1.509 5.865-.701 10.383-.222.446-.445.891-.696 1.328.497.298.992.606 1.433.92 4.098 2.778 6.676 6.116 5.993 8.664-.705 2.634-4.865 4.353-9.977 4.703-.418.022-.826.047-1.251.057a30.58 30.58 0 0 1-.07 1.609c-.373 4.928-2.062 8.463-4.613 9.139-2.631.707-6.104-1.677-8.967-5.947a17.486 17.486 0 0 1-.666-1.054c-.473.265-.95.508-1.434.739-4.447 2.136-8.36 2.437-10.222.578-1.925-1.927-1.603-6.127.671-10.731.177-.354.364-.706.557-1.077-.249-.149-.485-.305-.734-.454-4.441-2.921-7.281-6.474-6.562-9.156.695-2.554 4.685-4.143 9.706-4.498Zm13.361-4.106c-2.41-3.582-5.056-5.435-6.598-5.024-1.651.433-3.088 3.603-3.349 8.19-.019.304-.036.598-.034.898 1.988.079 3.974.281 5.93.63a44.996 44.996 0 0 1 4.799-3.525c-.254-.398-.492-.781-.748-1.169Zm4.896 20.795a79.783 79.783 0 0 1-1.924 1.834c1.356.208 2.72.347 4.092.416a41.659 41.659 0 0 0-.367-4.127 51.4 51.4 0 0 1-1.801 1.877Zm5.289-9.473a45.538 45.538 0 0 0-3.677-1.697c.264.823.503 1.66.723 2.492.22.832.428 1.67.612 2.523a40.775 40.775 0 0 0 2.342-3.318Zm-3.878 5.204a55.58 55.58 0 0 0-.887-3.916 57.216 57.216 0 0 0-1.177-3.839 53.105 53.105 0 0 0-3.835-1.182 53.14 53.14 0 0 0-3.913-.894 62.616 62.616 0 0 0-2.933 2.717 60.639 60.639 0 0 0-2.75 2.921c.255 1.315.552 2.631.901 3.941a60.825 60.825 0 0 0 1.165 3.845 52.64 52.64 0 0 0 3.857 1.178c1.326.356 2.625.662 3.886.918a52.99 52.99 0 0 0 2.959-2.741 60.25 60.25 0 0 0 2.727-2.948Zm-16.415.238a53.817 53.817 0 0 1-.625-2.588 44.434 44.434 0 0 0-2.434 3.355 37.927 37.927 0 0 0 3.79 1.737c-.274-.825-.501-1.669-.731-2.504Zm.513-6.796a62.085 62.085 0 0 1 1.813-1.884c.607-.61 1.23-1.206 1.858-1.78a41.197 41.197 0 0 0-4.055-.365c.059 1.356.187 2.688.384 4.029Zm11.254-7.164a39.021 39.021 0 0 0-3.311 2.358c1.694.371 3.376.822 5.028 1.347a40.836 40.836 0 0 0-1.717-3.705Zm11.194-2.554c-1.201-1.208-4.662-.868-8.776 1.182-.26.126-.526.271-.804.424a44.333 44.333 0 0 1 2.422 5.46 46.878 46.878 0 0 1 5.446 2.397c.222-.404.437-.821.649-1.228 1.885-3.883 2.193-7.108 1.063-8.235Zm-3.901 22.827a38.15 38.15 0 0 0 1.135-.046c1.95-.086 4.237-.431 6.031-1.207a3.887 3.887 0 0 0 2.264-2.104c.415-1.547-1.727-4.244-5.224-6.613-.434-.302-.886-.577-1.337-.853a47.524 47.524 0 0 1-3.507 4.82c.348 1.969.551 3.981.638 6.003Zm-12.072 5.636a15.943 15.943 0 0 0 3.97 4.258 3.831 3.831 0 0 0 2.952.904c1.554-.418 2.91-3.248 3.227-7.47.031-.497.061-.994.062-1.498a44.416 44.416 0 0 1-5.961-.711 44.76 44.76 0 0 1-4.861 3.529c.204.354.407.676.611.988Zm-1.515-2.611c1.115-.7 2.246-1.5 3.379-2.381a54.256 54.256 0 0 1-2.503-.619 56.148 56.148 0 0 1-2.551-.746 37.781 37.781 0 0 0 1.675 3.746Zm-11.726-.421a3.918 3.918 0 0 0 .686 3.017c1.137 1.139 4.275.888 8.072-.939.438-.212.881-.444 1.336-.682a45.228 45.228 0 0 1-2.353-5.484 43.142 43.142 0 0 1-5.521-2.427c-.179.323-.349.648-.506.967a16.021 16.021 0 0 0-1.714 5.548Zm.896-9.497c.22.141.43.28.662.414a44.897 44.897 0 0 1 3.599-4.815 43.294 43.294 0 0 1-.643-5.87c-.476.006-.935.027-1.374.054-4.305.299-7.602 1.569-8.014 3.107-.446 1.663 1.933 4.588 5.77 7.11Zm12.991 2.121a4.012 4.012 0 1 1 2.079-7.75 4.012 4.012 0 0 1-2.079 7.75Z"/><defs><clipPath id="a"><path fill="#fff" d="m255.243 75.93 40.826 10.94-10.94 40.826-40.825-10.94z"/></clipPath><clipPath id="b"><path fill="#fff" d="m134.437 48.458 54.293 14.548-8.752 32.66-54.292-14.547z"/></clipPath><clipPath id="c"><path fill="#fff" d="m232.256 159.939 40.826 10.94-10.94 40.825-40.825-10.94z"/></clipPath></defs></svg>