<?xml version="1.0" encoding="UTF-8"?>
<svg width="376px" height="264px" viewBox="0 0 376 264" version="1.1" xmlns="http://www.w3.org/2000/svg" xmlns:xlink="http://www.w3.org/1999/xlink">
    <title>Group 2</title>
    <g id="Page-1" stroke="none" stroke-width="1" fill="none" fill-rule="evenodd" opacity="0.5">
        <g id="netlify" transform="translate(112.000000, 12.000000)">
            <polygon id="Path" points="0 0 232 0 232 232 0 232"></polygon>
            <polygon id="Path" fill="#FFFFFF" fill-rule="nonzero" points="68.3298516 180 66.2671798 180 56 169.738462 56 167.676923 71.6855415 152 82.5530511 152 84 153.446154 84 164.307692 68.3144585 179.984615"></polygon>
            <polygon id="Path" fill="#FFFFFF" fill-rule="nonzero" points="56 63.3298516 56 61.2671798 66.2615385 51 68.3230769 51 84 66.6855415 84 77.5530511 82.5538462 79 71.6923077 79 56.0153846 63.3144585"></polygon>
            <path d="M146.742368,147 L131.681842,147 L130.424211,145.737506 L130.424211,110.34092 C130.424211,104.044038 127.955526,99.1655121 120.394211,98.9940623 C116.497105,98.8849579 112.041053,98.9940623 107.29,99.1810985 L106.575789,99.9136566 L106.575789,145.72192 L105.318158,146.984414 L90.2576316,146.984414 L89,145.72192 L89,85.2624938 L90.2576316,84 L124.151579,84 C137.317895,84 148,94.7234043 148,107.940623 L148,145.737506 L146.742368,147 Z" id="Path" fill="#FFFFFF" fill-rule="nonzero"></path>
            <polygon id="Path" fill="#FFFFFF" fill-rule="nonzero" points="70.7375062 125 10.2624938 125 9 123.714286 9 108.285714 10.2624938 107 70.7375062 107 72 108.285714 72 123.714286"></polygon>
            <polygon id="Path" fill="#FFFFFF" fill-rule="nonzero" points="226.737506 125 166.262494 125 165 123.714286 165 108.285714 166.262494 107 226.737506 107 228 108.285714 228 123.714286"></polygon>
            <polygon id="Path" fill="#FFFFFF" fill-rule="nonzero" points="109 65.734375 109 20.265625 110.285714 19 125.714286 19 127 20.265625 127 65.734375 125.714286 67 110.285714 67"></polygon>
            <polygon id="Path" fill="#FFFFFF" fill-rule="nonzero" points="109 210.734375 109 165.265625 110.285714 164 125.714286 164 127 165.265625 127 210.734375 125.714286 212 110.285714 212"></polygon>
        </g>
    </g>
</svg>