<svg width="1171" height="301" fill="none" xmlns="http://www.w3.org/2000/svg"><path fill="#1B205B" d="M.504.75h1170v300H.504z"/><path d="M905.909 123.841h-53.841 7.529c26.168 3.664 46.312 26.143 46.312 53.319 0 29.731-24.11 53.841-53.841 53.841s-53.841-24.11-53.841-53.841h46.315c-26.169-3.662-46.315-26.142-46.315-53.319 0-29.731 24.11-53.841 53.841-53.841s53.841 24.11 53.841 53.841ZM917.411 150.5c0 42.953 34.551 77.841 77.361 78.402v.007h-1.044l52.272.001v-52.273l-50.18 50.18v-68.335c3.062 5.821 9.17 9.791 16.2 9.791 10.11 0 18.3-8.192 18.3-18.296s-8.19-18.295-18.3-18.295c-7.03 0-13.138 3.969-16.2 9.79V74.184l50.18 50.18V72.091h-51.228v.007c-42.81.561-77.361 35.449-77.361 78.402ZM783.59 177.683c0-29.447-23.871-53.318-53.318-53.318s-53.319 23.871-53.319 53.318 23.872 53.318 53.319 53.318c29.447 0 53.318-23.871 53.318-53.318ZM680.09 72.09h100.364v41.819H680.09V72.091ZM270.274 123.318c0 29.447 23.871 53.319 53.318 53.319s53.319-23.872 53.319-53.319c0-29.447-23.872-53.318-53.319-53.318-29.447 0-53.318 23.871-53.318 53.318ZM373.774 228.91H273.41v-41.818h100.364v41.818ZM550.455 228.909V72.091H393.637v156.818h156.818ZM202.316 228.91h52.273v-52.273l-50.18 50.18V74.183l50.18 50.181V72.091h-51.228v.007C160.541 72.658 126 107.547 126 150.5s34.541 77.841 77.361 78.402v.007l-1.045.001ZM613.184 72.09c31.761 0 57.5 25.74 57.5 57.501s-25.739 57.5-57.5 57.5l-.002 41.818h-41.818V72.091h41.82Z" fill="#fff"/><path d="M917.411 150.5c0 43.303 35.117 78.409 78.409 78.409V72.091c-43.292 0-78.409 35.106-78.409 78.409Z" fill="#DEFFFE"/><path d="M780.454 72.09H680.09v41.819h100.364V72.091ZM273.41 228.91h100.364v-41.818H273.41v41.818ZM472.046 150.5l78.409-78.41H393.637l78.409 78.41Z" fill="#316BF4"/><path d="m472.046 150.5-78.409 78.409h156.818L472.046 150.5ZM670.684 129.591c0-31.761-25.739-57.5-57.5-57.5v115c31.761 0 57.5-25.739 57.5-57.5ZM126 150.5c0 43.303 35.106 78.409 78.409 78.409V72.091C161.106 72.09 126 107.197 126 150.5ZM852.068 123.841v53.319h-53.841c0 29.731 24.11 53.841 53.841 53.841s53.841-24.11 53.841-53.841c0-27.176-20.144-49.655-46.312-53.319h-7.529Z" fill="#DEFFFE"/><path d="M462.631 259.232c-2.226 0-3.927 1.701-3.927 4.809 0 3.087 1.701 4.809 3.927 4.809 2.205 0 3.927-1.722 3.927-4.809 0-3.108-1.722-4.809-3.927-4.809Zm0-3.381c4.536 0 7.602 3.045 7.602 8.19s-3.066 8.169-7.602 8.169c-4.536 0-7.602-3.024-7.602-8.169 0-5.145 3.066-8.19 7.602-8.19ZM477.261 259.988c3.381 0 5.712 2.163 5.796 4.914h-3.444c-.126-1.197-1.029-2.079-2.352-2.079-1.554 0-2.625 1.197-2.625 3.318 0 2.079 1.071 3.297 2.625 3.297 1.323 0 2.226-.882 2.352-2.058h3.444c-.084 2.73-2.415 4.914-5.796 4.914-3.78 0-6.048-2.457-6.048-6.153 0-3.717 2.268-6.153 6.048-6.153ZM483.55 260.261h2.205v-3.696h3.276v3.696h2.541v2.772h-2.541V272h-3.276v-8.967h-2.205v-2.772ZM497.957 259.988c3.927 0 6.174 2.646 6.174 6.153 0 3.507-2.247 6.153-6.174 6.153-3.948 0-6.195-2.646-6.195-6.153 0-3.507 2.247-6.153 6.195-6.153Zm0 2.982c-1.701 0-2.772 1.239-2.772 3.171 0 1.932 1.071 3.171 2.772 3.171 1.701 0 2.751-1.239 2.751-3.171 0-1.932-1.05-3.171-2.751-3.171ZM505.37 255.305h3.276v6.342c.777-1.029 2.016-1.659 3.675-1.659 3.045 0 5.208 2.163 5.208 6.153 0 3.969-2.163 6.153-5.208 6.153-1.659 0-2.898-.63-3.675-1.68V272h-3.276v-16.695Zm3.276 10.899c0 1.953 1.113 3.276 2.73 3.276 1.575 0 2.709-1.344 2.709-3.276 0-2.037-1.134-3.255-2.709-3.255-1.617 0-2.73 1.197-2.73 3.255ZM524.39 260.051c3.717 0 6.069 2.394 6.069 6.048v1.008h-8.673c.168 1.407 1.113 2.373 2.667 2.373 1.155 0 1.932-.378 2.289-1.05h3.486c-.672 2.205-2.814 3.78-5.817 3.78-3.675 0-6.09-2.415-6.09-6.069s2.373-6.09 6.069-6.09Zm-2.562 4.809h5.166c-.231-1.323-1.26-2.079-2.604-2.079-1.302 0-2.289.861-2.562 2.079ZM531.806 260.261h3.276v1.596c.735-1.155 2.1-1.869 4.137-1.869v3.444h-1.323c-1.932 0-2.814.924-2.814 2.919V272h-3.276v-11.739ZM548.075 272v-2.877l6.09-4.914c1.176-.966 1.575-1.722 1.575-2.646 0-1.134-.756-1.995-2.1-1.995-1.365 0-2.268.945-2.268 2.331h-3.402c0-3.171 2.142-5.481 5.754-5.481 3.444 0 5.439 2.079 5.439 4.998 0 1.848-.819 3.297-3.129 5.166l-2.856 2.31h6.216V272h-11.319ZM561.183 264.209h8.064v2.667h-8.064v-2.667ZM571.563 259.778v-3.108h10.416v3.108l-3.339 2.814c2.373.441 3.885 2.247 3.885 4.641 0 3.066-2.331 5.04-5.796 5.04-3.15 0-5.166-1.68-5.985-3.969l3.129-1.071c.483 1.239 1.428 1.911 2.751 1.911 1.491 0 2.457-.861 2.457-2.205 0-1.239-.924-2.1-2.331-2.1-.567 0-1.071.168-1.449.441l-1.617-1.932 4.326-3.57h-6.447ZM586.455 268.493c1.323 0 2.121 1.008 2.121 2.646 0 1.974-.966 3.297-2.898 3.864l-.483.147-.525-1.596.441-.126c.903-.273 1.407-.651 1.638-1.26a2.314 2.314 0 0 1-.378.042c-1.155 0-1.827-.84-1.827-1.848 0-1.071.735-1.869 1.911-1.869ZM597.183 272v-2.877l6.09-4.914c1.176-.966 1.575-1.722 1.575-2.646 0-1.134-.756-1.995-2.1-1.995-1.365 0-2.268.945-2.268 2.331h-3.402c0-3.171 2.142-5.481 5.754-5.481 3.444 0 5.439 2.079 5.439 4.998 0 1.848-.819 3.297-3.129 5.166l-2.856 2.31h6.216V272h-11.319ZM617.011 256.271c3.738 0 6.006 2.247 6.006 6.195v3.738c0 3.948-2.268 6.195-6.006 6.195-3.759 0-6.006-2.247-6.006-6.195v-3.738c0-3.948 2.247-6.195 6.006-6.195Zm0 3.108c-1.512 0-2.583 1.155-2.583 3.234v3.444c0 2.079 1.071 3.234 2.583 3.234 1.512 0 2.583-1.155 2.583-3.234v-3.444c0-2.079-1.071-3.234-2.583-3.234ZM625.834 272v-2.877l6.09-4.914c1.176-.966 1.575-1.722 1.575-2.646 0-1.134-.756-1.995-2.1-1.995-1.365 0-2.268.945-2.268 2.331h-3.402c0-3.171 2.142-5.481 5.754-5.481 3.444 0 5.439 2.079 5.439 4.998 0 1.848-.819 3.297-3.129 5.166l-2.856 2.31h6.216V272h-11.319ZM650.113 256.67v9.87h2.205v2.835h-2.205V272H646.9v-2.625h-7.476v-2.835l7.476-9.87h3.213Zm-6.846 9.87h3.633v-4.83l-3.633 4.83ZM664.84 254.75h.84v19.74h-.84v-19.74ZM684.497 255.851c3.927 0 6.027 2.016 6.027 4.956h-3.675c0-1.176-.882-1.995-2.436-1.995-1.365 0-2.226.714-2.226 1.617 0 .84.504 1.365 1.953 1.701l1.806.42c3.465.777 4.893 2.268 4.893 4.893 0 2.772-2.1 4.767-6.216 4.767-4.158 0-6.426-2.121-6.426-5.229h3.675c0 1.386 1.05 2.415 2.772 2.415 1.659 0 2.52-.819 2.52-1.89 0-.903-.504-1.428-2.058-1.764l-1.743-.357c-3.633-.735-4.872-2.457-4.872-4.893 0-2.709 2.1-4.641 6.006-4.641ZM697.837 259.988c1.911 0 3.024.903 3.612 1.869v-1.596h3.276V272h-3.276v-1.554c-.588.945-1.701 1.848-3.612 1.848-3.675 0-5.901-2.541-5.901-6.153 0-3.591 2.226-6.153 5.901-6.153Zm-2.478 6.153c0 1.911 1.302 3.171 3.087 3.171 1.827 0 2.961-1.239 3.003-3.171-.042-1.932-1.176-3.15-3.003-3.15-1.785 0-3.087 1.281-3.087 3.15ZM707.021 260.261h3.276v1.323c.651-.945 1.848-1.596 3.339-1.596 2.667 0 4.389 1.911 4.389 5.376V272h-3.276v-6.006c0-1.806-.861-2.814-2.184-2.814-1.344 0-2.268 1.092-2.268 2.793V272h-3.276v-11.739ZM727.432 256.061h11.55v3.402h-8.001v2.982h5.586v3.402h-5.586V272h-3.549v-15.939ZM739.927 260.261h3.276v1.596c.735-1.155 2.1-1.869 4.137-1.869v3.444h-1.323c-1.932 0-2.814.924-2.814 2.919V272h-3.276v-11.739ZM753.467 259.988c1.911 0 3.024.903 3.612 1.869v-1.596h3.276V272h-3.276v-1.554c-.588.945-1.701 1.848-3.612 1.848-3.675 0-5.901-2.541-5.901-6.153 0-3.591 2.226-6.153 5.901-6.153Zm-2.478 6.153c0 1.911 1.302 3.171 3.087 3.171 1.827 0 2.961-1.239 3.003-3.171-.042-1.932-1.176-3.15-3.003-3.15-1.785 0-3.087 1.281-3.087 3.15ZM762.65 260.261h3.276v1.323c.651-.945 1.848-1.596 3.339-1.596 2.667 0 4.389 1.911 4.389 5.376V272h-3.276v-6.006c0-1.806-.861-2.814-2.184-2.814-1.344 0-2.268 1.092-2.268 2.793V272h-3.276v-11.739ZM780.808 259.988c3.381 0 5.712 2.163 5.796 4.914h-3.444c-.126-1.197-1.029-2.079-2.352-2.079-1.554 0-2.625 1.197-2.625 3.318 0 2.079 1.071 3.297 2.625 3.297 1.323 0 2.226-.882 2.352-2.058h3.444c-.084 2.73-2.415 4.914-5.796 4.914-3.78 0-6.048-2.457-6.048-6.153 0-3.717 2.268-6.153 6.048-6.153ZM789.308 260.471c.735 0 1.239-.189 1.638-.483V272h-3.276v-12.012c.42.294.903.483 1.638.483Zm-.021-5.502c1.218 0 1.974.882 1.974 1.974 0 1.071-.756 1.974-1.974 1.974s-1.953-.903-1.953-1.974c0-1.092.735-1.974 1.953-1.974ZM797.527 260.03c3.255 0 5.04 1.701 5.04 3.927h-3.276c-.021-.756-.693-1.344-1.806-1.344-1.071 0-1.638.399-1.638.945 0 .525.252.819 1.575 1.05l1.575.252c3.024.504 3.822 1.869 3.822 3.654 0 2.289-1.827 3.738-5.145 3.738-3.57 0-5.355-1.701-5.355-4.053h3.255c.021.861.693 1.449 2.226 1.449 1.155 0 1.743-.399 1.743-.987 0-.63-.336-.945-1.701-1.176l-1.638-.273c-2.772-.441-3.633-1.827-3.633-3.507 0-2.079 1.701-3.675 4.956-3.675ZM809.838 259.988c3.381 0 5.712 2.163 5.796 4.914h-3.444c-.126-1.197-1.029-2.079-2.352-2.079-1.554 0-2.625 1.197-2.625 3.318 0 2.079 1.071 3.297 2.625 3.297 1.323 0 2.226-.882 2.352-2.058h3.444c-.084 2.73-2.415 4.914-5.796 4.914-3.78 0-6.048-2.457-6.048-6.153 0-3.717 2.268-6.153 6.048-6.153ZM822.628 259.988c3.927 0 6.174 2.646 6.174 6.153 0 3.507-2.247 6.153-6.174 6.153-3.948 0-6.195-2.646-6.195-6.153 0-3.507 2.247-6.153 6.195-6.153Zm0 2.982c-1.701 0-2.772 1.239-2.772 3.171 0 1.932 1.071 3.171 2.772 3.171 1.701 0 2.751-1.239 2.751-3.171 0-1.932-1.05-3.171-2.751-3.171ZM831.46 268.493c1.323 0 2.121 1.008 2.121 2.646 0 1.974-.966 3.297-2.898 3.864l-.483.147-.525-1.596.441-.126c.903-.273 1.407-.651 1.638-1.26a2.314 2.314 0 0 1-.378.042c-1.155 0-1.827-.84-1.827-1.848 0-1.071.735-1.869 1.911-1.869ZM848.762 255.851c4.494 0 7.161 3.003 7.224 6.342h-3.759c-.147-1.617-1.407-2.961-3.465-2.961-2.142 0-3.738 1.596-3.738 4.809 0 3.192 1.596 4.788 3.738 4.788 2.058 0 3.318-1.323 3.465-2.961h3.759c-.063 3.339-2.709 6.342-7.182 6.342-4.473 0-7.455-2.919-7.455-8.169 0-5.271 2.982-8.19 7.413-8.19ZM861.886 256.061h3.864L871.798 272h-3.696l-1.008-2.835h-6.699L859.387 272h-3.57l6.069-15.939Zm-.399 10.017h4.494l-2.247-6.3-2.247 6.3ZM882.84 254.75h.84v19.74h-.84v-19.74ZM896.806 256.061h3.549V272h-3.549v-15.939ZM902.985 260.261h3.276v1.323c.651-.945 1.848-1.596 3.339-1.596 2.667 0 4.389 1.911 4.389 5.376V272h-3.276v-6.006c0-1.806-.861-2.814-2.184-2.814-1.344 0-2.268 1.092-2.268 2.793V272h-3.276v-11.739ZM923.186 260.261h3.276v1.386c.777-1.029 1.995-1.659 3.633-1.659 3.045 0 5.187 2.163 5.187 6.153 0 3.969-2.142 6.153-5.187 6.153-1.638 0-2.856-.63-3.633-1.68v5.376h-3.276v-15.729Zm3.276 5.943c0 2.1 1.092 3.276 2.688 3.276 1.575 0 2.709-1.218 2.709-3.276 0-2.037-1.134-3.255-2.709-3.255-1.596 0-2.688 1.197-2.688 3.255ZM942.123 260.051c3.717 0 6.069 2.394 6.069 6.048v1.008h-8.673c.168 1.407 1.113 2.373 2.667 2.373 1.155 0 1.932-.378 2.289-1.05h3.486c-.672 2.205-2.814 3.78-5.817 3.78-3.675 0-6.09-2.415-6.09-6.069s2.373-6.09 6.069-6.09Zm-2.562 4.809h5.166c-.231-1.323-1.26-2.079-2.604-2.079-1.302 0-2.289.861-2.562 2.079ZM949.539 260.261h3.276v1.596c.735-1.155 2.1-1.869 4.137-1.869v3.444h-1.323c-1.932 0-2.814.924-2.814 2.919V272h-3.276v-11.739ZM962.656 260.03c3.255 0 5.04 1.701 5.04 3.927h-3.276c-.021-.756-.693-1.344-1.806-1.344-1.071 0-1.638.399-1.638.945 0 .525.252.819 1.575 1.05l1.575.252c3.024.504 3.822 1.869 3.822 3.654 0 2.289-1.827 3.738-5.145 3.738-3.57 0-5.355-1.701-5.355-4.053h3.255c.021.861.693 1.449 2.226 1.449 1.155 0 1.743-.399 1.743-.987 0-.63-.336-.945-1.701-1.176l-1.638-.273c-2.772-.441-3.633-1.827-3.633-3.507 0-2.079 1.701-3.675 4.956-3.675ZM975.114 259.988c3.927 0 6.174 2.646 6.174 6.153 0 3.507-2.247 6.153-6.174 6.153-3.948 0-6.195-2.646-6.195-6.153 0-3.507 2.247-6.153 6.195-6.153Zm0 2.982c-1.701 0-2.772 1.239-2.772 3.171 0 1.932 1.071 3.171 2.772 3.171 1.701 0 2.751-1.239 2.751-3.171 0-1.932-1.05-3.171-2.751-3.171ZM982.671 260.261h3.276v1.323c.651-.945 1.848-1.596 3.339-1.596 2.667 0 4.389 1.911 4.389 5.376V272h-3.276v-6.006c0-1.806-.861-2.814-2.184-2.814-1.344 0-2.268 1.092-2.268 2.793V272h-3.276v-11.739ZM1008.16 259.988c3.93 0 6.18 2.646 6.18 6.153 0 3.507-2.25 6.153-6.18 6.153-3.94 0-6.19-2.646-6.19-6.153 0-3.507 2.25-6.153 6.19-6.153Zm0 2.982c-1.7 0-2.77 1.239-2.77 3.171 0 1.932 1.07 3.171 2.77 3.171s2.75-1.239 2.75-3.171c0-1.932-1.05-3.171-2.75-3.171ZM1015.72 260.261h3.28v1.323c.65-.945 1.84-1.596 3.34-1.596 2.66 0 4.38 1.911 4.38 5.376V272h-3.27v-6.006c0-1.806-.86-2.814-2.19-2.814-1.34 0-2.26 1.092-2.26 2.793V272h-3.28v-11.739ZM1028.73 255.305h3.28V272h-3.28v-16.695ZM1032.79 260.261h3.3l2.94 7.308 3.04-7.308h3.18l-6.51 15.603h-3.18l1.81-4.305-4.58-11.298Z" fill="#32E6E2"/><path d="M691.967 25.748h4.732v12.544c0 3.108 1.568 4.508 3.668 4.508s3.668-1.4 3.668-4.508V25.748h4.564v12.768c0 5.656-2.884 8.764-8.316 8.764-5.46 0-8.316-3.108-8.316-8.764V25.748ZM711.477 31.348h4.368v1.764c.868-1.26 2.464-2.128 4.452-2.128 3.556 0 5.852 2.548 5.852 7.168V47h-4.368v-8.008c0-2.408-1.148-3.752-2.912-3.752-1.792 0-3.024 1.456-3.024 3.724V47h-4.368V31.348ZM728.827 24.74h4.368V47h-4.368V24.74ZM743.116 30.984c5.236 0 8.232 3.528 8.232 8.204s-2.996 8.204-8.232 8.204c-5.264 0-8.26-3.528-8.26-8.204s2.996-8.204 8.26-8.204Zm0 3.976c-2.268 0-3.696 1.652-3.696 4.228 0 2.576 1.428 4.228 3.696 4.228 2.268 0 3.668-1.652 3.668-4.228 0-2.576-1.4-4.228-3.668-4.228ZM760.462 30.984c4.508 0 7.616 2.884 7.728 6.552h-4.592c-.168-1.596-1.372-2.772-3.136-2.772-2.072 0-3.5 1.596-3.5 4.424 0 2.772 1.428 4.396 3.5 4.396 1.764 0 2.968-1.176 3.136-2.744h4.592c-.112 3.64-3.22 6.552-7.728 6.552-5.04 0-8.065-3.276-8.065-8.204 0-4.956 3.025-8.204 8.065-8.204ZM769.667 24.74h4.368v12.544l5.404-5.88h5.068l-7 7.616L784.73 47h-5.096l-5.599-6.104V47h-4.368V24.74ZM794.36 31.348h2.94V26.42h4.368v4.928h3.388v3.696h-3.388V47H797.3V35.044h-2.94v-3.696ZM807.312 24.74h4.368v8.372c.868-1.26 2.436-2.128 4.452-2.128 3.556 0 5.852 2.548 5.852 7.168V47h-4.368v-8.008c0-2.408-1.148-3.752-2.912-3.752-1.792 0-2.996 1.456-2.996 3.724l-.028-.196V47h-4.368V24.74ZM831.682 31.068c4.956 0 8.092 3.192 8.092 8.064v1.344H828.21c.224 1.876 1.484 3.164 3.556 3.164 1.54 0 2.576-.504 3.052-1.4h4.648c-.896 2.94-3.752 5.04-7.756 5.04-4.9 0-8.12-3.22-8.12-8.092s3.164-8.12 8.092-8.12Zm-3.416 6.412h6.888c-.308-1.764-1.68-2.772-3.472-2.772-1.736 0-3.052 1.148-3.416 2.772ZM849.36 31.348h4.256l2.94 9.968 3.08-9.968h3.752l3.052 9.912 2.94-9.912h4.2L868.988 47h-4.396l-3.164-9.94-3.192 9.94h-4.284l-4.592-15.652ZM881.408 31.068c4.956 0 8.092 3.192 8.092 8.064v1.344h-11.564c.224 1.876 1.484 3.164 3.556 3.164 1.54 0 2.576-.504 3.052-1.4h4.648c-.896 2.94-3.752 5.04-7.756 5.04-4.9 0-8.12-3.22-8.12-8.092s3.164-8.12 8.092-8.12Zm-3.416 6.412h6.888c-.308-1.764-1.68-2.772-3.472-2.772-1.736 0-3.052 1.148-3.416 2.772ZM891.405 24.74h4.368v8.456c1.036-1.372 2.688-2.212 4.9-2.212 4.06 0 6.944 2.884 6.944 8.204 0 5.292-2.884 8.204-6.944 8.204-2.212 0-3.864-.84-4.9-2.24V47h-4.368V24.74Zm4.368 14.532c0 2.604 1.484 4.368 3.64 4.368 2.1 0 3.612-1.792 3.612-4.368 0-2.716-1.512-4.34-3.612-4.34-2.156 0-3.64 1.596-3.64 4.34ZM911.167 42.324c1.764 0 2.828 1.344 2.828 3.528 0 2.632-1.288 4.396-3.864 5.152l-.644.196-.7-2.128.588-.168c1.204-.364 1.876-.868 2.184-1.68a3.085 3.085 0 0 1-.504.056c-1.54 0-2.436-1.12-2.436-2.464 0-1.428.98-2.492 2.548-2.492ZM923.988 31.348h2.94V26.42h4.368v4.928h3.388v3.696h-3.388V47h-4.368V35.044h-2.94v-3.696ZM943.198 30.984c5.236 0 8.232 3.528 8.232 8.204s-2.996 8.204-8.232 8.204c-5.264 0-8.26-3.528-8.26-8.204s2.996-8.204 8.26-8.204Zm0 3.976c-2.268 0-3.696 1.652-3.696 4.228 0 2.576 1.428 4.228 3.696 4.228 2.268 0 3.668-1.652 3.668-4.228 0-2.576-1.4-4.228-3.668-4.228ZM959.56 30.984c2.212 0 3.836.812 4.872 2.184v-1.82h4.368v16.604c0 3.416-2.1 5.544-5.516 5.544h-7.448V49.8h6.748c1.26 0 1.848-.616 1.848-1.848v-3.22c-1.036 1.344-2.66 2.184-4.872 2.184-4.06 0-6.944-2.828-6.944-8.008 0-5.152 2.884-7.924 6.944-7.924Zm-2.38 7.812c0 2.604 1.54 4.172 3.64 4.172 2.156 0 3.612-1.596 3.612-4.172 0-2.548-1.456-4.06-3.612-4.06-2.1 0-3.64 1.512-3.64 4.06ZM978.386 31.068c4.956 0 8.092 3.192 8.092 8.064v1.344h-11.564c.224 1.876 1.484 3.164 3.556 3.164 1.54 0 2.576-.504 3.052-1.4h4.648c-.896 2.94-3.752 5.04-7.756 5.04-4.9 0-8.12-3.22-8.12-8.092s3.164-8.12 8.092-8.12Zm-3.416 6.412h6.888c-.308-1.764-1.68-2.772-3.472-2.772-1.736 0-3.052 1.148-3.416 2.772ZM986.717 31.348h2.94V26.42h4.368v4.928h3.388v3.696h-3.388V47h-4.368V35.044h-2.94v-3.696ZM999.669 24.74h4.371v8.372c.86-1.26 2.43-2.128 4.45-2.128 3.55 0 5.85 2.548 5.85 7.168V47h-4.37v-8.008c0-2.408-1.15-3.752-2.91-3.752-1.79 0-3 1.456-3 3.724l-.02-.196V47h-4.371V24.74ZM1024.04 31.068c4.95 0 8.09 3.192 8.09 8.064v1.344h-11.56c.22 1.876 1.48 3.164 3.55 3.164 1.54 0 2.58-.504 3.05-1.4h4.65c-.89 2.94-3.75 5.04-7.75 5.04-4.9 0-8.12-3.22-8.12-8.092s3.16-8.12 8.09-8.12Zm-3.42 6.412h6.89c-.31-1.764-1.68-2.772-3.47-2.772-1.74 0-3.05 1.148-3.42 2.772ZM1033.93 31.348h4.36v2.128c.98-1.54 2.8-2.492 5.52-2.492v4.592h-1.76c-2.58 0-3.76 1.232-3.76 3.892V47h-4.36V31.348ZM1044.29 41.68c1.68 0 2.8 1.232 2.8 2.828 0 1.54-1.12 2.828-2.8 2.828-1.66 0-2.8-1.288-2.8-2.828 0-1.596 1.14-2.828 2.8-2.828Z" fill="#fff"/></svg>