<svg width="282" height="70" fill="none" xmlns="http://www.w3.org/2000/svg"><path d="m243.713 33.383.374-.373c0-1.119-.374-4.477-4.478-4.477s-4.477 3.358-4.477 4.477l.373.373h8.208Zm-3.73 11.194c-5.97 0-8.955-4.105-8.955-9.701 0-5.224 2.612-9.701 8.581-9.701 5.97 0 8.582 4.477 8.582 9.7v1.12l-.373.373h-12.313l-.373.373c0 .747.373 4.478 4.851 4.478 1.492 0 2.984-.373 3.73-2.239l.374-.373h2.985l.373.373c-.373 2.985-2.985 5.597-7.462 5.597ZM229.146 43.83l-.374.374h-2.984c-2.612 0-5.224-1.493-5.224-4.85V29.278l-.373-.373h-2.612l-.373-.373v-2.612l.373-.373h2.612l.373-.373v-3.358l.373-.373h2.985l.373.373v3.358l.373.373h4.104l.374.373v2.612l-.374.373h-4.104l-.373.373v10.074c0 1.12.746 1.493 1.493 1.493h2.984l.374.373v2.612ZM214.959 43.83l-.373.374h-2.612l-.373-.373-.374-1.493h-.372c-1.232 1.492-3.172 2.239-5.224 2.239-4.142 0-6.343-2.239-6.343-5.97 0-4.104 3.321-5.97 8.208-5.97 1.12 0 2.426.187 3.359.373l.372-.373v-.746c0-2.65-1.082-3.358-3.731-3.358s-3.731.746-3.731 2.239l-.373.373h-2.984l-.374-.373c0-2.612 1.866-5.597 7.462-5.597 5.597 0 7.463 2.649 7.463 8.208V43.83Zm-3.732-6.342v-1.12l-.372-.373a11.245 11.245 0 0 0-2.986-.373c-3.395 0-4.85 1.082-4.85 2.985 0 1.903 1.119 2.612 3.358 2.612 2.985 0 4.85-1.493 4.85-3.731ZM192.596 33.383l.372-.373c0-1.119-.372-4.477-4.477-4.477-4.104 0-4.477 3.358-4.477 4.477l.373.373h8.209Zm-3.731 11.194c-5.97 0-8.955-4.105-8.955-9.701 0-5.224 2.611-9.701 8.581-9.701 5.97 0 8.582 4.477 8.582 9.7v1.12l-.373.373h-12.313l-.373.373c0 .747.373 4.478 4.851 4.478 1.492 0 2.984-.373 3.731-2.239l.372-.373h2.986l.373.373c-.373 2.985-2.985 5.597-7.462 5.597ZM179.162 28.534l-.373.373h-1.866c-2.984 0-4.85 1.12-4.85 5.597v9.328l-.373.373h-2.985l-.373-.373v-17.91l.373-.373h2.612l.373.373.373 1.493h.373c1.119-1.12 2.239-1.866 4.851-1.866h1.492l.373.373v2.612ZM151.572 34.876c0 4.104 1.866 6.343 5.224 6.343 2.985 0 4.104-1.493 4.477-2.985l.374-.373h2.984l.374.373c-.374 3.358-2.986 6.343-8.209 6.343-5.596 0-8.955-3.731-8.955-9.701 0-5.97 3.359-9.701 8.955-9.701 5.223 0 7.835 2.985 8.209 6.343l-.374.373h-2.984l-.374-.373c-.373-1.493-1.492-2.985-4.477-2.985-3.358 0-5.224 2.239-5.224 6.343Z" fill="#ABB5BF"/><path d="M39.238 69.633V51.951l.366-.367h4.421l.366.367v17.682l-.366.367h-4.42l-.367-.367ZM39.238 18.05V.366L39.604 0h4.421l.366.366V18.05l-.366.366h-4.42l-.367-.366ZM24.023 57.202h-.607l-3.041-3.041v-.607l5.698-5.704 3.218.006.43.424v3.218l-5.698 5.704ZM20.375 16.607v-.613l3.04-3.035h.608l5.697 5.698v3.212l-.43.436h-3.217l-5.698-5.698ZM.366 32.417H25.42l.366.367v4.427l-.366.366H.366L0 37.211v-4.427l.366-.367Z" fill="#32E6E2"/><path d="M50.106 44.214h-4.42l-.367-.367V33.5c0-1.844-.721-3.27-2.943-3.316-1.146-.029-2.451 0-3.848.057l-.212.212v13.389l-.367.366h-4.42l-.367-.366V26.158l.366-.366h9.947a6.997 6.997 0 0 1 6.998 6.998v11.052l-.367.366v.006ZM71.518 36.472l-.367.366h-11.43l-.366.367c0 .739.739 2.949 3.688 2.949 1.105 0 2.21-.367 2.582-1.105l.367-.367h4.42l.367.367c-.367 2.21-2.21 5.531-7.742 5.531-6.265 0-9.214-4.42-9.214-9.586 0-5.165 2.949-9.586 8.847-9.586s8.848 4.421 8.848 9.586v1.478Zm-5.532-3.688c0-.367-.366-2.95-3.316-2.95-2.949 0-3.315 2.583-3.315 2.95l.366.366h5.899l.366-.366ZM81.837 38.682c0 .739.366 1.105 1.105 1.105h3.316l.366.367v3.688l-.366.366h-3.316c-3.316 0-6.265-1.477-6.265-5.532v-8.108l-.366-.367h-2.583l-.366-.366v-3.688l.366-.366h2.583l.366-.367v-3.316l.367-.366h4.42l.367.366v3.316l.367.366h4.054l.366.367v3.688l-.366.366h-4.054l-.367.367v8.108l.006.006ZM95.477 44.214h-4.421l-.366-.367v-25.07l.366-.366h4.421l.367.366v25.065l-.367.366v.006ZM105.429 22.831h-4.42l-.367-.366v-3.688l.367-.366h4.42l.367.366v3.688l-.367.366Zm0 21.383h-4.42l-.367-.367V26.153l.367-.367h4.42l.367.367v17.694l-.367.367ZM122.758 18.777v3.688l-.367.366h-3.315c-.739 0-1.105.367-1.105 1.106v1.477l.366.366h3.688l.366.367v3.688l-.366.366h-3.688l-.366.367v13.268l-.367.367h-4.421l-.366-.367V30.568l-.367-.367h-2.582l-.367-.366v-3.688l.367-.366h2.582l.367-.367v-1.477c0-4.055 2.949-5.532 6.265-5.532h3.315l.367.366-.006.006ZM136.393 44.58c-1.478 3.688-2.95 5.899-8.109 5.899h-1.844l-.366-.367v-3.688l.366-.366h1.844c1.844 0 2.211-.367 2.582-1.472v-.366l-5.898-14.38v-3.687l.367-.367h3.316l.366.367 4.421 12.535h.366l4.421-12.535.367-.367h3.315l.367.367v3.688l-5.898 14.745.017-.006Z" fill="#fff"/><path d="m280.85 32.443.367.367v4.42l-.367.367h-25.42l-.366-.366 1.838-4.421.367-.367h23.581Z" fill="#32E6E2"/><path d="m248.072 59.557-.124.124h-.992c-.868 0-1.735-.496-1.735-1.612v-3.347l-.124-.124h-.868l-.124-.124v-.868l.124-.124h.868l.124-.124v-1.116l.124-.124h.991l.124.124v1.116l.124.124h1.364l.124.124v.868l-.124.124h-1.364l-.124.124v3.347c0 .372.248.496.496.496h.992l.124.124v.868ZM243.118 52.366l-.124.124h-.991l-.124-.124v-.991l.124-.124h.991l.124.124v.991Zm0 7.19-.124.125h-.991l-.124-.124v-5.95l.124-.125h.991l.124.124v5.95ZM240.764 56.581c0 1.86-1.104 3.224-2.728 3.224-.62 0-1.214-.248-1.611-.744h-.124l-.124.496-.124.124h-.868l-.124-.124v-8.43l.124-.124h.992l.124.124v2.975h.124c.371-.471.955-.744 1.611-.744 1.624 0 2.728 1.24 2.728 3.223Zm-1.24 0c0-1.376-.62-2.107-1.612-2.107-.992 0-1.611.62-1.611 2.107 0 1.488.619 2.108 1.611 2.108s1.612-.732 1.612-2.108ZM233.947 59.557l-.124.124h-.495l-.249-.124-1.859-2.356h-.124l-.868.868-.124.248v1.24l-.124.124h-.991l-.124-.124v-8.43l.124-.124h.991l.124.124v5.33h.124l2.851-2.85.249-.125h.371l.124.124v.868l-1.735 1.736v.123l1.859 2.356v.868ZM223.291 56.581c0 1.364.619 2.108 1.735 2.108.992 0 1.364-.496 1.488-.992l.124-.124h.992l.124.124c-.124 1.116-.992 2.108-2.728 2.108-1.859 0-2.975-1.24-2.975-3.224 0-1.983 1.116-3.223 2.975-3.223 1.736 0 2.604.992 2.728 2.108l-.124.124h-.992l-.124-.124c-.124-.496-.496-.992-1.488-.992-1.116 0-1.735.744-1.735 2.107ZM221.059 59.557l-.124.124h-.868l-.124-.124-.124-.496h-.124c-.409.496-1.053.744-1.735.744-1.376 0-2.108-.744-2.108-1.984 0-1.364 1.103-1.983 2.728-1.983.372 0 .806.062 1.115.123l.124-.123v-.248c0-.88-.359-1.116-1.239-1.116-.881 0-1.24.248-1.24.744l-.124.124h-.992l-.124-.124c0-.868.62-1.86 2.48-1.86 1.859 0 2.479.88 2.479 2.727v3.472Zm-1.24-2.108v-.372l-.124-.124a3.747 3.747 0 0 0-.991-.124c-1.129 0-1.612.36-1.612.992 0 .633.372.868 1.116.868.992 0 1.611-.496 1.611-1.24ZM215.107 59.557l-.124.124h-.992c-.868 0-1.736-.496-1.736-1.612v-3.347l-.123-.124h-.868l-.124-.124v-.868l.124-.124h.868l.123-.124v-1.116l.124-.124h.992l.124.124v1.116l.124.124h1.364l.124.124v.868l-.124.124h-1.364l-.124.124v3.347c0 .372.248.496.496.496h.992l.124.124v.868ZM210.519 57.325c0 1.364-.991 2.48-3.347 2.48-2.107 0-3.471-.992-3.471-2.852l.124-.124h.992l.124.124c0 1.24.867 1.736 2.355 1.736 1.116 0 1.984-.372 1.984-1.364 0-1.116-.744-1.364-2.48-1.611-1.735-.248-2.851-.992-2.851-2.48 0-1.116.868-2.355 3.099-2.355 1.86 0 3.223.744 3.223 2.603l-.124.124h-.991l-.124-.124c0-.992-.496-1.488-2.108-1.488-1.116 0-1.735.496-1.735 1.24 0 .992.619 1.24 2.355 1.488s2.975.868 2.975 2.603ZM199.735 54.474l-1.983 4.959c-.744 1.86-1.24 2.231-2.728 2.231h-.248l-.124-.124v-.868l.124-.124h.248c.62 0 .992-.124 1.24-.743v-.124l-2.107-5.207v-.868l.124-.124h.743l.124.124 1.736 4.587h.124l1.735-4.587.124-.124h.744l.124.124v.868ZM193.044 59.557l-.124.124h-.991l-.124-.124v-8.43l.124-.124h.991l.124.124v8.43ZM190.813 54.474l-.124.124h-.62c-.992 0-1.612.372-1.612 1.86v3.099l-.124.124h-.991l-.124-.124v-5.951l.124-.124h.867l.124.124.124.496h.124c.372-.372.744-.62 1.612-.62h.496l.124.124v.868ZM184.619 56.085l.124-.123c0-.372-.124-1.488-1.487-1.488-1.364 0-1.488 1.116-1.488 1.488l.124.123h2.727Zm-1.239 3.72c-1.984 0-2.976-1.364-2.976-3.224 0-1.735.868-3.223 2.852-3.223 1.983 0 2.851 1.488 2.851 3.223v.372l-.124.124h-4.091l-.124.124c0 .248.124 1.488 1.612 1.488.496 0 .991-.124 1.239-.744l.124-.124h.992l.124.124c-.124.992-.992 1.86-2.479 1.86ZM179.417 59.557l-.124.124h-.991l-.124-.124v-3.72c0-.743-.124-1.363-1.116-1.363-.868 0-1.364.62-1.364 1.611v3.472l-.124.124h-.992l-.123-.124v-3.72c0-.743-.124-1.363-1.116-1.363-.62 0-1.364.372-1.364 1.611v3.472l-.124.124h-.992l-.124-.124v-5.951l.124-.124h.868l.124.124.124.496h.124c.248-.372.744-.744 1.612-.744.991 0 1.363.496 1.611.868h.124c.372-.496.992-.868 1.86-.868 1.735 0 2.107 1.116 2.107 2.48v3.719ZM169.748 54.474l-.124.124h-.62c-.992 0-1.612.372-1.612 1.86v3.099l-.124.124h-.992l-.124-.124v-5.951l.124-.124h.868l.124.124.124.496h.124c.372-.372.744-.62 1.612-.62h.496l.124.124v.868ZM159.086 56.581c0-1.983 1.115-3.223 2.975-3.223s2.975 1.24 2.975 3.223c0 1.984-1.115 3.224-2.975 3.224s-2.975-1.24-2.975-3.224Zm1.239 0c0 1.364.62 2.108 1.736 2.108s1.736-.744 1.736-2.108c0-1.363-.62-2.107-1.736-2.107s-1.736.744-1.736 2.107ZM158.582 54.474l-.124.124h-1.24l-.124.124v4.835l-.124.124h-.992l-.124-.124v-4.835l-.124-.124h-.867l-.124-.124v-.868l.124-.124h.867l.124-.124v-.496c0-1.116.868-1.611 1.736-1.611h.992l.124.124v.867l-.124.124h-.992c-.248 0-.496.124-.496.496v.496l.124.124h1.24l.124.124v.868Z" fill="#7E8792"/></svg>