<?xml version="1.0" encoding="UTF-8"?>
<svg width="147px" height="50px" viewBox="0 0 147 50" version="1.1" xmlns="http://www.w3.org/2000/svg" xmlns:xlink="http://www.w3.org/1999/xlink">
    <title>Group 2</title>
    <defs>
        <linearGradient x1="50.0229156%" y1="21.6727438%" x2="50.0229156%" y2="90.3828624%" id="linearGradient-1">
            <stop stop-color="#EE46E0" offset="0%"></stop>
            <stop stop-color="#DA3737" offset="100%"></stop>
        </linearGradient>
    </defs>
    <g id="Page-1" stroke="none" stroke-width="1" fill="none" fill-rule="evenodd">
        <g id="Group-2">
            <g id="astro-framework" transform="translate(97.000000, 0.000000)">
                <g id="Layer_2">
                    <polygon id="Layer_3" points="0 0 50 0 50 50 0 50"></polygon>
                </g>
                <path d="M19.1766667,42.73 C17.2233333,40.95 16.6533333,37.2066667 17.4666667,34.4966667 C18.8766667,36.2066667 20.8333333,36.7466667 22.8566667,37.0533333 C26.3266667,37.5733333 29.9266667,37.3066667 32.9566667,35.3233333 C33.8366667,37.9533333 32.6166667,40.82 30.4233333,42.37 C27.6366667,44.2466667 25.45,45.3233333 26.7833333,49.1233333 C24.7766667,48.2433333 23.5833333,46.26 23.57,44.1233333 C23.5633333,43.59 23.5633333,43.0533333 23.49,42.5266667 C23.3133333,41.2466667 22.7133333,40.6733333 21.5766667,40.64 C20.28,40.5866667 19.3766667,41.4966667 19.1733333,42.73 L19.1733333,42.73 L19.1766667,42.73 Z" id="Path" fill="url(#linearGradient-1)" fill-rule="nonzero"></path>
                <path d="M8.03333333,34.0433333 C8.03333333,34.0433333 13.8166667,31.2333333 19.6133333,31.2333333 L23.9866667,17.7366667 C24.15,17.0833333 24.6266667,16.64 25.1666667,16.64 C25.7066667,16.64 26.1833333,17.0833333 26.3466667,17.7366667 L30.72,31.2333333 C37.5866667,31.2333333 42.3,34.0433333 42.3,34.0433333 C42.3,34.0433333 32.4766667,7.35333333 32.46,7.3 C32.1766667,6.51 31.7033333,6.00333333 31.06,6.00333333 L19.2733333,6.00333333 C18.6333333,6.00333333 18.1766667,6.51 17.8733333,7.3 C17.8533333,7.35333333 8.03,34.0433333 8.03,34.0433333 L8.03333333,34.0433333 Z" id="Path" fill="#FFFFFF" fill-rule="nonzero"></path>
            </g>
            <g id="netlify">
                <polygon id="Path" points="0 0 50 0 50 50 0 50"></polygon>
                <polygon id="Path" fill="#05BDBA" fill-rule="nonzero" points="14.6366667 38.88 14.19 38.88 11.9666667 36.6566667 11.9666667 36.21 15.3633333 32.8133333 17.7166667 32.8133333 18.03 33.1266667 18.03 35.48 14.6333333 38.8766667"></polygon>
                <polygon id="Path" fill="#05BDBA" fill-rule="nonzero" points="11.9666667 13.74 11.9666667 13.2933333 14.19 11.07 14.6366667 11.07 18.0333333 14.4666667 18.0333333 16.82 17.72 17.1333333 15.3666667 17.1333333 11.97 13.7366667"></polygon>
                <path d="M31.5333333,31.7133333 L28.3,31.7133333 L28.03,31.4433333 L28.03,23.8733333 C28.03,22.5266667 27.5,21.4833333 25.8766667,21.4466667 C25.04,21.4233333 24.0833333,21.4466667 23.0633333,21.4866667 L22.91,21.6433333 L22.91,31.44 L22.64,31.71 L19.4066667,31.71 L19.1366667,31.44 L19.1366667,18.51 L19.4066667,18.24 L26.6833333,18.24 C29.51,18.24 31.8033333,20.5333333 31.8033333,23.36 L31.8033333,31.4433333 L31.5333333,31.7133333 Z" id="Path" fill="#FFFFFF" fill-rule="nonzero"></path>
                <polygon id="Path" fill="#05BDBA" fill-rule="nonzero" points="15.0966667 26.8666667 2.16333333 26.8666667 1.89333333 26.5966667 1.89333333 23.3566667 2.16333333 23.0866667 15.0966667 23.0866667 15.3666667 23.3566667 15.3666667 26.5966667"></polygon>
                <polygon id="Path" fill="#05BDBA" fill-rule="nonzero" points="48.78 26.8666667 35.8466667 26.8666667 35.5766667 26.5966667 35.5766667 23.3566667 35.8466667 23.0866667 48.78 23.0866667 49.05 23.3566667 49.05 26.5966667"></polygon>
                <polygon id="Path" fill="#05BDBA" fill-rule="nonzero" points="23.6066667 14.2 23.6066667 4.5 23.8766667 4.23 27.1166667 4.23 27.3866667 4.5 27.3866667 14.2 27.1166667 14.47 23.8766667 14.47"></polygon>
                <polygon id="Path" fill="#05BDBA" fill-rule="nonzero" points="23.6066667 45.4533333 23.6066667 35.7533333 23.8766667 35.4833333 27.1166667 35.4833333 27.3866667 35.7533333 27.3866667 45.4533333 27.1166667 45.7233333 23.8766667 45.7233333"></polygon>
            </g>
            <path d="M73.5,16.4090909 L73.5,33.5909091 M64.9090909,25 L82.0909091,25" id="Combined-Shape" stroke="#FFFFFF" stroke-linecap="square"></path>
        </g>
    </g>
</svg>