<svg width="101" height="18" viewBox="0 0 101 18" fill="none" xmlns="http://www.w3.org/2000/svg">
<path d="M32.8034 6.95249C32.8034 5.14466 31.5277 3.8611 29.4698 3.8611C27.8026 3.8611 26.6093 4.64951 26.6093 5.95014C26.6093 9.55375 35.5001 6.63311 35.5001 12.9866C35.5001 16.0358 32.9275 17.7633 29.6346 17.7633C26.8749 17.7633 24.5776 16.5028 23.7148 14.1748L26.0539 11.7503C26.0539 13.9036 27.4109 15.2655 29.6346 15.2655C31.3794 15.2655 32.6803 14.4339 32.6803 13.0911C32.6803 9.44428 23.7895 12.3659 23.7895 6.13896C23.7895 3.26049 26.3418 1.36328 29.4698 1.36328C32.2809 1.36328 34.2409 2.75732 35.0067 4.66558L32.8034 6.95249Z" fill="white"/>
<path d="M39.6629 2.13477V6.35304H42.6679V8.70422H39.6629V13.6516C39.6629 14.9091 40.0952 15.2295 41.1247 15.2295C41.6018 15.2135 42.0768 15.1564 42.5448 15.0587V17.4692C42.1745 17.6178 41.1043 17.7253 40.7544 17.7253C38.3048 17.7253 36.9875 16.6587 36.9875 14.0363V8.70422H35.0488V6.35705H36.9875V4.90878L39.6629 2.13477Z" fill="white"/>
<path d="M97.9949 2.13477V6.35304H101V8.70422H97.9949V13.6516C97.9949 14.9091 98.4273 15.2295 99.4567 15.2295C99.9338 15.2135 100.409 15.1564 100.877 15.0587V17.4692C100.507 17.6178 99.4364 17.7253 99.0864 17.7253C96.6369 17.7253 95.3195 16.6587 95.3195 14.0363V8.70422H93.3809V6.35705H95.3195V4.90878L97.9949 2.13477Z" fill="white"/>
<path d="M65.9898 9.10571L63.6227 10.5339C63.3765 9.27544 62.2656 8.48703 60.9483 8.48703C59.2035 8.48703 57.9637 9.72338 57.9637 11.8556C57.9637 13.9879 59.1783 15.2322 60.9483 15.2322C62.2239 15.2322 63.3145 14.3575 63.6227 13.2487L65.9278 14.6347C65.2076 16.4043 63.3348 17.7692 60.9483 17.7692C57.511 17.7692 55.1855 15.3588 55.1855 11.8626C55.1855 8.3876 57.5934 5.95607 60.9483 5.95607C63.3144 5.95105 65.29 7.31596 65.9898 9.10571Z" fill="white"/>
<path d="M69.3395 1.77344V10.4309L73.3525 6.3583H76.9333L72.3231 10.9853L77.036 17.4413H73.7645L70.4503 12.8564L69.3395 13.9612V17.4413H66.6641V1.77344H69.3395Z" fill="white"/>
<path d="M80.2389 1.77344V7.52836C81.0618 6.56921 82.2347 5.95053 83.7993 5.95053C86.968 5.95053 89.1907 8.50961 89.1907 11.9003C89.1907 15.2478 86.968 17.7637 83.7789 17.7637C82.2144 17.7637 81.0415 17.145 80.2185 16.1859V17.4413H77.5635V1.77344H80.2389ZM83.2642 15.2498C85.0749 15.2498 86.4126 13.906 86.4126 11.9023C86.4126 9.85544 85.0749 8.46944 83.2642 8.46944C81.5562 8.46944 80.1565 9.81225 80.1565 11.9023C80.1565 13.9472 81.561 15.2478 83.2642 15.2478V15.2498Z" fill="white"/>
<path d="M89.9102 1.77344H92.6883V4.54544H89.9102V1.77344ZM92.6243 6.3583V17.4413H89.9489V6.35629L92.6243 6.3583Z" fill="white"/>
<path d="M3.16103 0C2.74551 -5.06065e-07 2.33407 0.0848805 1.95024 0.249788C1.56641 0.414695 1.21772 0.656392 0.92413 0.961053C0.630538 1.26571 0.397801 1.62736 0.23923 2.02531C0.0806591 2.42325 -0.000633389 2.84968 3.71599e-06 3.28021V8.19248C-4.89023e-05 8.59681 0.108209 8.99323 0.312724 9.33759C0.517239 9.68195 0.809983 9.96075 1.15837 10.1429L5.27323 12.2832V5.45864H11.8551L17.1128 0H3.16103Z" fill="#687AF0"/>
<path d="M13.9625 17.7432C14.8007 17.7429 15.6044 17.3977 16.197 16.7836C16.7896 16.1694 17.1225 15.3365 17.1225 14.468V9.55472C17.1222 9.14998 17.0132 8.75332 16.8078 8.40906C16.6024 8.0648 16.3086 7.78651 15.9593 7.60528L11.8551 5.45898V12.2835H5.2733L0.0107422 17.7432H13.9625Z" fill="#687AF0"/>
<path d="M54.4475 17.441H53.9551H51.8681L51.9088 16.051C51.0839 17.0774 49.8664 17.7584 48.2359 17.7584C45.0371 17.7584 42.8076 15.2355 42.8076 11.8789C42.8076 8.4792 45.0158 5.91309 48.2146 5.91309C49.7656 5.91309 50.9385 6.53277 51.7634 7.47385V6.32286H54.4465L54.4475 17.441ZM48.7284 15.2365C50.4412 15.2365 51.8652 13.9308 51.8652 11.8799C51.8652 9.78385 50.4412 8.43701 48.7284 8.43701C46.9331 8.43701 45.5916 9.82704 45.5916 11.8799C45.5993 13.8926 46.936 15.2395 48.7313 15.2395L48.7284 15.2365Z" fill="white"/>
</svg>
