<svg xmlns="http://www.w3.org/2000/svg" width="122" height="38"><g fill="none" fill-rule="nonzero"><path fill="#FFF" d="M39.364 8.343c0-2.17-1.53-3.71-4-3.71-2 0-3.433.946-3.433 2.507 0 4.324 10.67.82 10.67 8.444 0 3.659-3.088 5.732-7.04 5.732-3.311 0-6.068-1.513-7.103-4.306l2.807-2.91c0 2.584 1.628 4.219 4.297 4.219 2.093 0 3.654-.998 3.654-2.61 0-4.376-10.669-.87-10.669-8.342 0-3.454 3.063-5.731 6.817-5.731 3.373 0 5.725 1.673 6.644 3.963l-2.644 2.744Z"/><path fill="#FFF" d="M47.595 2.562v5.062h3.606v2.821h-3.606v5.937c0 1.509.52 1.893 1.755 1.893a9.974 9.974 0 0 0 1.704-.205v2.893c-.445.178-1.729.307-2.149.307-2.94 0-4.52-1.28-4.52-4.426v-6.399h-2.326V7.628h2.326V5.891l3.21-3.33ZM117.594 2.562v5.062h3.606v2.821h-3.606v5.937c0 1.509.519 1.893 1.754 1.893a9.977 9.977 0 0 0 1.704-.205v2.893c-.444.178-1.728.307-2.148.307-2.94 0-4.52-1.28-4.52-4.426v-6.399h-2.327V7.628h2.326V5.891l3.21-3.33ZM79.188 10.927l-2.84 1.714c-.296-1.51-1.63-2.457-3.21-2.457-2.094 0-3.582 1.484-3.582 4.043 0 2.558 1.458 4.052 3.582 4.052 1.53 0 2.84-1.05 3.21-2.38l2.765 1.663c-.864 2.123-3.111 3.761-5.975 3.761-4.125 0-6.915-2.892-6.915-7.088 0-4.17 2.89-7.088 6.915-7.088 2.84-.006 5.21 1.632 6.05 3.78ZM83.207 2.128v10.389l4.816-4.887h4.297l-5.532 5.552 5.655 7.748h-3.926l-3.977-5.502-1.333 1.325v4.177h-3.21V2.128zM96.287 2.128v6.906c.987-1.15 2.395-1.893 4.272-1.893 3.803 0 6.47 3.07 6.47 7.14 0 4.016-2.667 7.035-6.494 7.035-1.878 0-3.285-.742-4.273-1.893v1.507h-3.186V2.128h3.21Zm3.63 16.172c2.173 0 3.778-1.613 3.778-4.017 0-2.456-1.605-4.12-3.778-4.12-2.05 0-3.73 1.612-3.73 4.12 0 2.454 1.686 4.014 3.73 4.014v.003ZM107.892 2.128h3.334v3.327h-3.334V2.128Zm3.257 5.502v13.3h-3.21V7.628l3.21.002Z"/><path fill="#04A29F" d="M3.793 0c-.498 0-.992.102-1.453.3-.46.198-.879.488-1.231.853-.352.366-.632.8-.822 1.277C.097 2.908 0 3.42 0 3.936v5.895c0 .485.13.96.375 1.374.246.413.597.748 1.015.966l4.938 2.569V6.55h7.898L20.536 0H3.792ZM16.755 21.292c1.006 0 1.97-.415 2.681-1.152a4.003 4.003 0 0 0 1.111-2.778v-5.896a2.69 2.69 0 0 0-.378-1.375 2.563 2.563 0 0 0-1.018-.965l-4.925-2.575v8.19H6.328L.013 21.29h16.742Z"/><path fill="#FFF" d="M65.337 20.93H62.242l.049-1.669c-.99 1.232-2.451 2.05-4.408 2.05-3.838 0-6.514-3.028-6.514-7.056 0-4.08 2.65-7.16 6.489-7.16 1.86 0 3.268.744 4.258 1.874V7.587h3.22l.001 13.342Zm-6.863-2.646c2.055 0 3.764-1.567 3.764-4.028 0-2.515-1.709-4.132-3.764-4.132-2.154 0-3.764 1.668-3.764 4.132.01 2.415 1.613 4.031 3.768 4.031l-.004-.003Z"/><path fill="#778089" d="M65.128 35.196c.532 0 .994-.105 1.386-.315.392-.21.716-.49.973-.84s.448-.754.574-1.211c.126-.457.189-.929.189-1.414 0-.532-.07-1.031-.21-1.498a3.588 3.588 0 0 0-.63-1.225 2.94 2.94 0 0 0-1.057-.826c-.425-.2-.922-.301-1.491-.301a2.746 2.746 0 0 0-1.225.301 2.54 2.54 0 0 0-.525.357c-.159.14-.294.299-.406.476h-.028v-3.696h-1.596V35h1.512v-.994h.028c.121.243.273.439.455.588.182.15.385.27.609.364.224.093.46.156.707.189.247.033.492.049.735.049Zm-.476-1.26c-.327 0-.614-.065-.861-.196a1.992 1.992 0 0 1-.637-.532 2.284 2.284 0 0 1-.399-.805 3.708 3.708 0 0 1-.133-1.015c0-.775.17-1.395.511-1.862.34-.467.847-.7 1.519-.7.327 0 .616.072.868.217.252.145.462.336.63.574.168.238.294.511.378.819.084.308.126.625.126.952 0 .317-.035.628-.105.931-.07.303-.187.574-.35.812a1.954 1.954 0 0 1-.623.581c-.252.15-.56.224-.924.224Zm5.936 3.934c.42 0 .765-.068 1.036-.203.27-.135.497-.317.679-.546.182-.229.336-.492.462-.791.126-.299.254-.611.385-.938l2.814-7.63h-1.666l-1.834 5.404h-.028l-1.89-5.404h-1.75l2.744 7.21-.182.56a3.081 3.081 0 0 1-.154.42 1.26 1.26 0 0 1-.203.315.764.764 0 0 1-.301.203 1.3 1.3 0 0 1-.462.07c-.13 0-.257-.012-.378-.035a7.975 7.975 0 0 0-.378-.063v1.344c.364.056.733.084 1.106.084ZM82.572 35v-7.35h.042l4.55 7.35h1.848v-9.996h-1.666v7.364h-.028l-4.564-7.364h-1.848V35h1.666Zm11.48.196c.392 0 .768-.054 1.127-.161.36-.107.684-.266.973-.476a3.01 3.01 0 0 0 1.176-1.827h-1.512c-.14.401-.352.702-.637.903-.285.2-.66.301-1.127.301-.336 0-.625-.058-.868-.175a1.72 1.72 0 0 1-.602-.469 2 2 0 0 1-.357-.686 2.78 2.78 0 0 1-.119-.812h5.32a4.141 4.141 0 0 0-.105-1.575 3.826 3.826 0 0 0-.651-1.351 3.364 3.364 0 0 0-1.127-.945 3.244 3.244 0 0 0-1.533-.357c-.541 0-1.027.103-1.456.308-.43.205-.796.483-1.099.833-.303.35-.537.756-.7 1.218-.163.462-.245.95-.245 1.463 0 .56.077 1.073.231 1.54.154.467.383.868.686 1.204.303.336.674.597 1.113.784.439.187.943.28 1.512.28Zm1.778-4.452h-3.724c.01-.27.063-.523.161-.756.098-.233.229-.436.392-.609s.36-.308.588-.406c.229-.098.483-.147.763-.147.27 0 .516.054.735.161.22.107.406.247.56.42.154.173.275.376.364.609.089.233.142.476.161.728Zm5.292 4.326c.177 0 .35-.01.518-.028l.518-.056v-1.232a1.669 1.669 0 0 1-.336.049 8.07 8.07 0 0 1-.336.007c-.177 0-.317-.021-.42-.063a.468.468 0 0 1-.231-.189.75.75 0 0 1-.098-.308 3.854 3.854 0 0 1-.021-.434v-3.864h1.442v-1.19h-1.442v-2.17H99.12v2.17h-1.204v1.19h1.204v4.27c.01.299.04.565.091.798.051.233.15.427.294.581.145.154.345.27.602.35.257.08.595.119 1.015.119Zm3.822-.07v-9.996h-1.596V35h1.596Zm3.374-8.484v-1.512h-1.596v1.512h1.596Zm0 8.484v-7.238h-1.596V35h1.596Zm3.808 0v-6.048h1.358v-1.19h-1.358v-.742c0-.299.077-.5.231-.602a.974.974 0 0 1 .553-.154c.159 0 .296.007.413.021.117.014.226.035.329.063v-1.246c-.233-.065-.607-.098-1.12-.098-.261 0-.511.026-.749.077-.238.051-.45.154-.637.308s-.336.373-.448.658c-.112.285-.168.656-.168 1.113v.602h-1.19v1.19h1.19V35h1.596Zm3.332 2.87c.42 0 .765-.068 1.036-.203.27-.135.497-.317.679-.546.182-.229.336-.492.462-.791.126-.299.254-.611.385-.938l2.814-7.63h-1.666l-1.834 5.404h-.028l-1.89-5.404h-1.75l2.744 7.21-.182.56a3.081 3.081 0 0 1-.154.42 1.26 1.26 0 0 1-.203.315.764.764 0 0 1-.301.203 1.3 1.3 0 0 1-.462.07c-.13 0-.257-.012-.378-.035a7.975 7.975 0 0 0-.378-.063v1.344c.364.056.733.084 1.106.084Z"/></g></svg>